SplineFontDB: 3.2
FontName: Multivers-Semibold
FullName: Multivers SemiBold
FamilyName: Multivers
Weight: Semibold
Copyright: 
Version: 1.000
ItalicAngle: 0
UnderlinePosition: -199
UnderlineWidth: 38
Ascent: 800
Descent: 200
InvalidEm: 0
sfntRevision: 0x00010000
LayerCount: 3
Layer: 0 0 "Back" 1
Layer: 1 0 "Fore" 0
Layer: 2 0 "Back 2" 1
XUID: [1021 473 -325923738 4484261]
StyleMap: 0x0040
FSType: 0
OS2Version: 4
OS2_WeightWidthSlopeOnly: 0
OS2_UseTypoMetrics: 0
CreationTime: 1659194366
ModificationTime: 1742829463
PfmFamily: 81
TTFWeight: 600
TTFWidth: 5
LineGap: 0
VLineGap: 0
Panose: 0 0 0 0 0 0 0 0 0 0
OS2TypoAscent: 970
OS2TypoAOffset: 0
OS2TypoDescent: -250
OS2TypoDOffset: 0
OS2TypoLinegap: 0
OS2WinAscent: 986
OS2WinAOffset: 0
OS2WinDescent: 350
OS2WinDOffset: 0
HheadAscent: 970
HheadAOffset: 0
HheadDescent: -250
HheadDOffset: 0
OS2SubXSize: 650
OS2SubYSize: 600
OS2SubXOff: 0
OS2SubYOff: 75
OS2SupXSize: 650
OS2SupYSize: 600
OS2SupXOff: 0
OS2SupYOff: 350
OS2StrikeYSize: 38
OS2StrikeYPos: 301
OS2CapHeight: 720
OS2XHeight: 510
OS2Vendor: 'NONE'
OS2CodePages: 00000093.00000000
OS2UnicodeRanges: a000006f.0000006a.00000000.00000000
Lookup: 1 0 0 "'aalt' Access All Alternates in Latin lookup 0" { "'aalt' Access All Alternates in Latin lookup 0 subtable"  } ['aalt' ('DFLT' <'dflt' > 'latn' <'AZE ' 'CAT ' 'CRT ' 'KAZ ' 'MOL ' 'ROM ' 'TAT ' 'TRK ' 'dflt' > ) ]
Lookup: 3 0 0 "'aalt' Access All Alternates in Latin lookup 1" { "'aalt' Access All Alternates in Latin lookup 1 subtable"  } ['aalt' ('DFLT' <'dflt' > 'latn' <'AZE ' 'CAT ' 'CRT ' 'KAZ ' 'MOL ' 'ROM ' 'TAT ' 'TRK ' 'dflt' > ) ]
Lookup: 6 0 0 "'ccmp' Glyph Composition/Decomposition in Latin lookup 2" { "'ccmp' Glyph Composition/Decomposition in Latin lookup 2 subtable"  } ['ccmp' ('DFLT' <'dflt' > 'latn' <'AZE ' 'CAT ' 'CRT ' 'KAZ ' 'MOL ' 'ROM ' 'TAT ' 'TRK ' 'dflt' > ) ]
Lookup: 1 0 0 "Single Substitution lookup 3" { "Single Substitution lookup 3 subtable"  } []

StartChar: .notdef
Encoding: 65536 -1 0
Width: 662
Flags: HW
HStem: 0 102<196 467> 618 102<196 467>
VStem: 67 129<102 618> 467 129<102 618>
LayerCount: 3
Fore
SplineSet
67 0 m 1
 67 720 l 1
 596 720 l 1
 596 0 l 1
 67 0 l 1
196 102 m 1
 467 102 l 1
 467 618 l 1
 196 618 l 1
 196 102 l 1
EndSplineSet
Validated: 1
EndChar

StartChar: A
Encoding: 65 65 1
Width: 722
GlyphClass: 2
Flags: HW
HStem: 0 21G<32 177.611 544.389 690> 179 103<165 548> 700 20G<279.917 442.083>
AnchorPoint: "Anchor-3" 690 0 basechar 0
AnchorPoint: "Anchor-2" 361 0 basechar 0
AnchorPoint: "Anchor-0" 361 720 basechar 0
LayerCount: 3
Fore
SplineSet
32 0 m 1
 287 720 l 1
 409 720 l 1
 171 0 l 1
 32 0 l 1
551 0 m 1
 313 720 l 1
 435 720 l 1
 690 0 l 1
 551 0 l 1
165 282 m 1
 548 282 l 1
 548 179 l 1
 165 179 l 1
 165 282 l 1
EndSplineSet
Validated: 5
Substitution2: "Single Substitution lookup 17 subtable" ordfeminine
Substitution2: "'aalt' Access All Alternates in Latin lookup 0 subtable" ordfeminine
EndChar

StartChar: AE
Encoding: 198 198 12
Width: 955
Flags: HW
HStem: 0 102<537 900> 320 101<233 866> 618 102<329 890>
VStem: 475 129<102 720> 537 67<0 102>
LayerCount: 3
Fore
SplineSet
32 0 m 1xe0
 287 720 l 1
 399 720 l 1
 159 0 l 1
 32 0 l 1xe0
475 0 m 1xf0
 475 720 l 1
 604 720 l 1xf0
 604 0 l 1xe8
 475 0 l 1xf0
537 0 m 1xe8
 537 102 l 1
 900 102 l 1
 900 0 l 1
 537 0 l 1xe8
233 320 m 1
 233 421 l 1
 866 421 l 1
 866 320 l 1
 233 320 l 1
329 618 m 1
 329 720 l 1
 890 720 l 1
 890 618 l 1
 329 618 l 1
EndSplineSet
Validated: 5
EndChar

StartChar: B
Encoding: 66 66 13
Width: 639
Flags: HW
HStem: 0 96<168 420.689> 330 94<168 401.152> 369 21<407 436> 624 96<168 411.158>
VStem: 168 38<0 96 330 424 624 720> 443 139<456.856 593.121> 461 141<134.924 285.708>
LayerCount: 3
Fore
SplineSet
168 0 m 1xba
 168 96 l 1
 348 96 l 6
 384 96 411.833007812 106 431.5 126 c 4
 451.166992188 146 461 173.666992188 461 209 c 4xba
 461 246.333007812 450.5 275.833007812 429.5 297.5 c 4
 408.5 319.166992188 379.333007812 330 342 330 c 6
 168 330 l 1
 168 424 l 1
 333 424 l 6
 368.333007812 424 395.5 432.666992188 414.5 450 c 4
 433.5 467.333007812 443 492.666992188 443 526 c 4
 443 558 434 582.333007812 416 599 c 4
 398 615.666992188 371.666992188 624 337 624 c 6
 168 624 l 1
 168 720 l 1
 371 720 l 2
 435 720 486.166992188 703.833007812 524.5 671.5 c 0
 562.833007812 639.166992188 582 595.333007812 582 540 c 0xdc
 582 505.333007812 574 475.166992188 558 449.5 c 0
 542 423.833007812 520.5 404 493.5 390 c 0
 466.5 376 436 369 402 369 c 1
 407 390 l 1
 443 390 475.833007812 381.833007812 505.5 365.5 c 0
 535.166992188 349.166992188 558.666992188 326.333007812 576 297 c 0
 593.333007812 267.666992188 602 233.666992188 602 195 c 0
 602 155.666992188 592.833007812 121.333007812 574.5 92 c 0
 556.166992188 62.6669921875 530.666992188 40 498 24 c 0
 465.333007812 8 427 0 383 0 c 2
 168 0 l 1xba
67 0 m 1
 67 720 l 1
 206 720 l 1
 206 0 l 1
 67 0 l 1
EndSplineSet
Validated: 5
EndChar

StartChar: C
Encoding: 67 67 14
Width: 736
GlyphClass: 2
Flags: HW
HStem: -10 105<296.161 471.057> 625 105<298.617 472.467>
VStem: 41 139<236.373 480.668> 555 144<189.663 265 455 532.404>
AnchorPoint: "Anchor-2" 380 0 basechar 0
AnchorPoint: "Anchor-0" 380 720 basechar 0
LayerCount: 3
Back
SplineSet
385 -10 m 4
 335 -10 289 -1 247 17 c 132
 205 35 168.666992188 60.6669921875 138 94 c 132
 107.333007812 127.333007812 83.5 166.666992188 66.5 212 c 132
 49.5 257.333007812 41 307.333007812 41 362 c 260
 41 416.666992188 49.5 466.333007812 66.5 511 c 132
 83.5 555.666992188 107.166992188 594.5 137.5 627.5 c 132
 167.833007812 660.5 204 685.833007812 246 703.5 c 132
 288 721.166992188 334 730 384 730 c 4
 440.666992188 730 491.333007812 718.666992188 536 696 c 132
 580.666992188 673.333007812 617.166992188 641.333007812 645.5 600 c 132
 673.833007812 558.666992188 691 510.333007812 697 455 c 5
 564 455 l 5
 554.96484375 516.740234375 519.890625 625 385 625 c 4
 282.508789062 625 187 558.841796875 187 363 c 4
 187 301.858398438 191.380859375 95 386 95 c 4
 436.483398438 95 541.02734375 113.790039062 565 265 c 5
 699 265 l 5
 691.666992188 209 673.833007812 160.333007812 645.5 119 c 132
 617.166992188 77.6669921875 580.666992188 45.8330078125 536 23.5 c 132
 491.333007812 1.1669921875 441 -10 385 -10 c 4
EndSplineSet
Fore
SplineSet
385 -10 m 0
 335 -10 289 -1 247 17 c 0
 205 35 168.666992188 60.6669921875 138 94 c 0
 107.333007812 127.333007812 83.5 166.666992188 66.5 212 c 0
 49.5 257.333007812 41 307.333007812 41 362 c 256
 41 416.666992188 49.5 466.333007812 66.5 511 c 0
 83.5 555.666992188 107.166992188 594.5 137.5 627.5 c 0
 167.833007812 660.5 204 685.833007812 246 703.5 c 0
 288 721.166992188 334 730 384 730 c 0
 440.666992188 730 491.333007812 718.666992188 536 696 c 0
 580.666992188 673.333007812 617.166992188 641.333007812 645.5 600 c 0
 673.833007812 558.666992188 691 510.333007812 697 455 c 1
 554 455 l 1
 544.96484375 516.740234375 519.890625 625 385 625 c 0
 222.508789062 625 180 448.841796875 180 363 c 0
 180 281.858398438 211.380859375 95 386 95 c 0
 509 95 544 192 555 265 c 1
 699 265 l 1
 691.666992188 209 673.833007812 160.333007812 645.5 119 c 0
 617.166992188 77.6669921875 580.666992188 45.8330078125 536 23.5 c 0
 491.333007812 1.1669921875 441 -10 385 -10 c 0
EndSplineSet
Validated: 1
EndChar

StartChar: D
Encoding: 68 68 19
Width: 745
GlyphClass: 2
Flags: HW
HStem: 0 103<145 434.618> 617 103<147 437.642>
VStem: 145 61<0 103 617 720> 563 141<244.338 481.714>
AnchorPoint: "Anchor-2" 374 0 basechar 0
AnchorPoint: "Anchor-0" 374 720 basechar 0
LayerCount: 3
Fore
SplineSet
145 0 m 1
 145 103 l 1
 323 103 l 2
 375.666992188 103 420.666992188 114 458 136 c 0
 495.333007812 158 513.833007812 188.5 533.5 227.5 c 0
 553.166992188 266.5 563 312 563 364 c 0
 563 415.333007812 553.333007812 459.833007812 534 497.5 c 0
 514.666992188 535.166992188 496.333007812 564.5 459 585.5 c 0
 421.666992188 606.5 376.333007812 617 323 617 c 2
 147 617 l 1
 147 720 l 1
 323 720 l 2
 400.333007812 720 467.5 705.5 524.5 676.5 c 0
 581.5 647.5 625.666992188 606.166992188 657 552.5 c 0
 688.333007812 498.833007812 704 435.333007812 704 362 c 256
 704 288.666992188 688.166992188 224.833007812 656.5 170.5 c 0
 624.833007812 116.166992188 580.666992188 74.1669921875 524 44.5 c 0
 467.333007812 14.8330078125 400.666992188 0 324 0 c 2
 145 0 l 1
67 0 m 1
 67 720 l 1
 206 720 l 5
 206 0 l 5
 67 0 l 1
EndSplineSet
Validated: 5
EndChar

StartChar: Eth
Encoding: 208 208 20
Width: 755
GlyphClass: 2
Flags: HW
HStem: 0 103<157 446.852> 310 102<12 386> 617 103<160 449.862>
VStem: 157 51<0 103 617 720> 585 131<244.338 481.715>
AnchorPoint: "Anchor-2" 387 0 basechar 0
AnchorPoint: "Anchor-0" 387 720 basechar 0
LayerCount: 3
Fore
SplineSet
12 310 m 1
 12 412 l 1
 386 412 l 1
 386 310 l 1
 12 310 l 1
157 0 m 1
 157 103 l 1
 336 103 l 2
 388.666992188 103 433.666992188 114 471 136 c 0
 508.333007812 158 536.666992188 188.5 556 227.5 c 0
 575.333007812 266.5 585 312 585 364 c 0
 585 415.333007812 575.333007812 459.833007812 556 497.5 c 0
 536.666992188 535.166992188 508.5 564.5 471.5 585.5 c 0
 434.5 606.5 389.333007812 617 336 617 c 2
 160 617 l 1
 160 720 l 1
 336 720 l 2
 412.666992188 720 479.5 705.5 536.5 676.5 c 0
 593.5 647.5 637.666992188 606.166992188 669 552.5 c 0
 700.333007812 498.833007812 716 435.333007812 716 362 c 256
 716 288.666992188 700.166992188 224.833007812 668.5 170.5 c 0
 636.833007812 116.166992188 592.666992188 74.1669921875 536 44.5 c 0
 479.333007812 14.8330078125 413 0 337 0 c 2
 157 0 l 1
79 0 m 1
 79 720 l 1
 208 720 l 1
 208 0 l 1
 79 0 l 1
EndSplineSet
Validated: 5
EndChar

StartChar: E
Encoding: 69 69 23
Width: 622
GlyphClass: 2
Flags: HW
HStem: 0 102<129 568> 320 101<129 534> 618 102<129 558>
VStem: 129 77<0 102 320 421 618 720>
AnchorPoint: "Anchor-3" 531 0 basechar 0
AnchorPoint: "Anchor-2" 312 0 basechar 0
AnchorPoint: "Anchor-0" 322 720 basechar 0
LayerCount: 3
Fore
SplineSet
67 0 m 1
 67 720 l 1
 206 720 l 5
 206 0 l 5
 67 0 l 1
129 0 m 1
 129 102 l 1
 568 102 l 1
 568 0 l 1
 129 0 l 1
129 320 m 1
 129 421 l 1
 534 421 l 1
 534 320 l 1
 129 320 l 1
129 618 m 1
 129 720 l 1
 558 720 l 1
 558 618 l 1
 129 618 l 1
EndSplineSet
Validated: 5
EndChar

StartChar: F
Encoding: 70 70 32
Width: 587
Flags: HW
HStem: 0 21G<67 206> 290 101<129 518> 618 102<129 542>
VStem: 67 139<0 290 391 618> 129 77<290 391 618 720>
LayerCount: 3
Fore
SplineSet
67 0 m 1xf0
 67 720 l 1xf0
 206 720 l 5xe8
 206 0 l 5
 67 0 l 1xf0
129 290 m 1xe8
 129 391 l 1
 518 391 l 1
 518 290 l 1
 129 290 l 1xe8
129 618 m 1
 129 720 l 1
 542 720 l 1
 542 618 l 1
 129 618 l 1
EndSplineSet
Validated: 5
EndChar

StartChar: G
Encoding: 71 71 33
Width: 752
GlyphClass: 2
Flags: HW
HStem: -10 104<302.921 556.135> 287 102<405 560> 625 105<293.346 483.883>
VStem: 41 141<225.013 488.472> 560 139<105.594 287 485 549.373>
AnchorPoint: "Anchor-2" 386 0 basechar 0
AnchorPoint: "Anchor-0" 386 720 basechar 0
LayerCount: 3
Fore
SplineSet
401 -10 m 0
 326.333007812 -10 262.166992188 5 208.5 35 c 0
 154.833007812 65 113.5 107.5 84.5 162.5 c 0
 55.5 217.5 41 282.333007812 41 357 c 0
 41 431 55.6669921875 496 85 552 c 0
 114.333007812 608 154.833007812 651.666992188 206.5 683 c 0
 258.166992188 714.333007812 318.333007812 730 387 730 c 0
 443 730 493.166992188 719.5 537.5 698.5 c 0
 581.833007812 677.5 617.666992188 648.833007812 645 612.5 c 0
 672.333007812 576.166992188 688.666992188 533.666992188 694 485 c 1
 555 485 l 1
 549 528.333007812 540.166992188 562.5 508.5 587.5 c 0
 476.833007812 612.5 437 625 389 625 c 0
 265.2890625 625 231.506835938 551.180664062 209 502 c 0
 191 462.666992188 182 415.333007812 182 360 c 0
 182 102.370117188 353.07421875 94 408 94 c 3
 482.075195312 94 526 107.290039062 560 123.87109375 c 5
 560 287 l 1
 405 287 l 1
 405 389 l 1
 699 389 l 1
 699 51 l 1
 683.666992188 38.3330078125 632 22.1669921875 544 2.5 c 0
 506.666992188 -5.8330078125 459 -10 401 -10 c 0
EndSplineSet
Validated: 1
Substitution2: "'ss07' Style Set 7 in Latin lookup 28 subtable" G.ss07
Substitution2: "'aalt' Access All Alternates in Latin lookup 0 subtable" G.ss07
EndChar

StartChar: H
Encoding: 72 72 37
Width: 717
GlyphClass: 2
Flags: HW
HStem: 0 21G<67 206 512 651> 324 102<129 580> 700 20G<67 206 512 651>
VStem: 67 139<0 324 426 720> 129 77<324 426> 512 139<0 324 426 720> 512 68<324 426>
AnchorPoint: "Anchor-2" 359 0 basechar 0
AnchorPoint: "Anchor-0" 359 720 basechar 0
LayerCount: 3
Fore
SplineSet
67 0 m 1xf0
 67 720 l 1
 206 720 l 1
 206 0 l 1
 67 0 l 1xf0
512 0 m 5xe4
 512 720 l 5
 651 720 l 1
 651 0 l 1
 512 0 l 5xe4
129 426 m 1xea
 580 426 l 1
 580 324 l 1
 129 324 l 1
 129 426 l 1xea
EndSplineSet
Validated: 5
EndChar

StartChar: Hbar
Encoding: 294 294 38
Width: 738
GlyphClass: 2
Flags: HW
HStem: 0 21G<77 206 532 661> 324 102<139 591> 529 102<12 726> 700 20G<77 206 532 661>
VStem: 77 129<0 324 426 720> 139 67<324 426> 532 129<0 324 426 720> 532 59<324 426>
AnchorPoint: "Anchor-2" 369 0 basechar 0
AnchorPoint: "Anchor-0" 369 720 basechar 0
LayerCount: 3
Fore
SplineSet
12 529 m 1xf0
 12 631 l 1
 726 631 l 1
 726 529 l 1
 12 529 l 1xf0
77 0 m 1xf8
 77 720 l 1
 206 720 l 1
 206 0 l 1
 77 0 l 1xf8
532 0 m 1xf2
 532 720 l 1
 661 720 l 1
 661 0 l 1
 532 0 l 1xf2
139 426 m 1xf5
 591 426 l 1
 591 324 l 1
 139 324 l 1
 139 426 l 1xf5
EndSplineSet
Validated: 5
EndChar

StartChar: I
Encoding: 73 73 39
Width: 262
GlyphClass: 2
Flags: HW
HStem: 0 21G<62 201> 700 20G<62 201>
VStem: 62 139<0 720>
AnchorPoint: "Anchor-3" 177 0 basechar 0
AnchorPoint: "Anchor-2" 131 0 basechar 0
AnchorPoint: "Anchor-0" 131 720 basechar 0
LayerCount: 3
Fore
SplineSet
62 0 m 5
 62 720 l 5
 201 720 l 1
 201 0 l 1
 62 0 l 5
EndSplineSet
Validated: 1
EndChar

StartChar: J
Encoding: 74 74 48
Width: 427
Flags: HW
HStem: -10 103<19.7941 198.682> 700 20G<225 364>
VStem: 225 139<120.02 720>
LayerCount: 3
Fore
SplineSet
138 -10 m 0
 101.333007812 -10 61.3330078125 -8 18 -4 c 1
 18 100 l 1
 51.3330078125 95.3330078125 80.3330078125 93 117 93 c 4
 153.666992188 93 181.166992188 100.5 199.5 115.5 c 4
 217.833007812 130.5 225 155.333007812 225 190 c 6
 225 720 l 5
 364 720 l 1
 364 184 l 2
 364 118.666992188 344.666992188 70 306 38 c 0
 267.333007812 6 211.333007812 -10 138 -10 c 0
EndSplineSet
Validated: 1
Substitution2: "'ss08' Style Set 8 in Latin lookup 29 subtable" J.ss08
Substitution2: "'aalt' Access All Alternates in Latin lookup 0 subtable" J.ss08
EndChar

StartChar: K
Encoding: 75 75 49
Width: 704
GlyphClass: 2
Flags: HW
HStem: 0 21G<67 206 529.711 716> 700 20G<67 206 513.156 700>
VStem: 67 139<0 720>
AnchorPoint: "Anchor-2" 367 0 basechar 0
AnchorPoint: "Anchor-0" 363 720 basechar 0
LayerCount: 3
Fore
SplineSet
67 0 m 1
 67 720 l 1
 206 720 l 1
 206 0 l 1
 67 0 l 1
206 374 m 1
 532 720 l 1
 700 720 l 1
 374 374 l 1
 206 374 l 1
548 0 m 1
 206 374 l 1
 374 374 l 1
 716 0 l 1
 548 0 l 1
EndSplineSet
Validated: 5
Substitution2: "'ss04' Style Set 4 in Latin lookup 25 subtable" K.ss04
Substitution2: "'aalt' Access All Alternates in Latin lookup 0 subtable" K.ss04
EndChar

StartChar: L
Encoding: 76 76 51
Width: 582
GlyphClass: 2
Flags: HW
HStem: 0 102<129 535> 700 20G<67 206>
VStem: 67 139<102 720> 129 77<0 102>
AnchorPoint: "Anchor-2" 315 0 basechar 0
AnchorPoint: "Anchor-1" 366 720 basechar 0
AnchorPoint: "Anchor-0" 131 720 basechar 0
LayerCount: 3
Fore
SplineSet
67 0 m 1xe0
 67 720 l 1
 206 720 l 1xe0
 206 0 l 1xd0
 67 0 l 1xe0
129 0 m 1xd0
 129 102 l 1
 535 102 l 1
 535 0 l 1
 129 0 l 1xd0
EndSplineSet
Validated: 5
EndChar

StartChar: Lslash
Encoding: 321 321 55
Width: 587
GlyphClass: 2
Flags: HW
HStem: 0 102<135 541> 494 20G<300.683 348> 700 20G<73 202>
VStem: 73 129<102 331 432 720> 135 67<0 102> 154 48<339 432>
AnchorPoint: "Anchor-2" 322 0 basechar 0
AnchorPoint: "Anchor-1" 373 720 basechar 0
AnchorPoint: "Anchor-0" 137 720 basechar 0
LayerCount: 3
Fore
SplineSet
155 331 m 1xe4
 5 270 l 1
 5 363 l 1
 154 424 l 1
 155 331 l 1xe4
154 432 m 1
 348 514 l 1
 348 421 l 1
 155 339 l 1
 154 432 l 1
73 0 m 1xf0
 73 720 l 1
 202 720 l 1xf0
 202 0 l 1xe8
 73 0 l 1xf0
135 0 m 1xe8
 135 102 l 1
 541 102 l 1
 541 0 l 1
 135 0 l 1xe8
EndSplineSet
Validated: 5
EndChar

StartChar: M
Encoding: 77 77 56
Width: 891
Flags: HW
HStem: 0 21G<67 206 368.793 516.19 685 824> 700 20G<67 272.205 617.824 824>
VStem: 168 38<644.444 667> 685 139<0 588> 693 25<649.385 672>
LayerCount: 3
Fore
SplineSet
67 0 m 1xe8
 67 720 l 1
 266 720 l 1
 481 27 l 1
 410 27 l 1
 624 720 l 1
 824 720 l 1
 824 0 l 1
 685 0 l 5xf0
 693 672 l 5
 718 672 l 1
 510 0 l 1
 375 0 l 1
 168 667 l 1
 206 667 l 1
 206 0 l 1
 67 0 l 1xe8
EndSplineSet
Validated: 5
Substitution2: "'ss06' Style Set 6 in Latin lookup 27 subtable" M.ss06
Substitution2: "'aalt' Access All Alternates in Latin lookup 0 subtable" M.ss06
EndChar

StartChar: N
Encoding: 78 78 57
Width: 718
GlyphClass: 2
Flags: HW
HStem: 0 21G<67 206 481.216 651> 700 20G<67 236.752 512 651>
VStem: 67 139<0 625> 512 139<95 720>
AnchorPoint: "Anchor-2" 359 0 basechar 0
AnchorPoint: "Anchor-0" 359 720 basechar 0
LayerCount: 3
Fore
SplineSet
67 0 m 1
 67 720 l 1
 226 720 l 1
 562 95 l 1
 512 87 l 5
 512 720 l 5
 651 720 l 1
 651 0 l 1
 492 0 l 1
 155 625 l 1
 206 633 l 1
 206 0 l 1
 67 0 l 1
EndSplineSet
Validated: 5
EndChar

StartChar: Eng
Encoding: 330 330 62
Width: 713
Flags: HW
HStem: -215 103<396.408 506.01> 0 41<525 649> 700 20G<64 235.104 524 649>
VStem: 64 125<0 617> 524 125<-96.5271 41 118 720>
LayerCount: 3
Fore
SplineSet
64 0 m 1
 64 720 l 1
 223 720 l 1
 594 107 l 1
 524 118 l 1
 524 720 l 1
 649 720 l 1
 649 0 l 1
 525 0 l 1
 153 617 l 1
 189 625 l 1
 189 0 l 1
 64 0 l 1
474 -215 m 0
 456.666992188 -215 441.5 -214 428.5 -212 c 0
 415.5 -210 404.666992188 -207.666992188 396 -205 c 1
 396 -103 l 1
 403.333007812 -105 412 -107 422 -109 c 0
 432 -111 442.666992188 -112 454 -112 c 0
 478.666992188 -112 496.166992188 -107 506.5 -97 c 0
 516.833007812 -87 522 -71.3330078125 522 -50 c 2
 522 41 l 1
 649 41 l 1
 649 -54 l 2
 649 -104.666992188 635.166992188 -144.166992188 607.5 -172.5 c 0
 579.833007812 -200.833007812 535.333007812 -215 474 -215 c 0
EndSplineSet
Validated: 5
EndChar

StartChar: O
Encoding: 79 79 63
Width: 782
GlyphClass: 2
Flags: HW
HStem: -10 105<297.966 479.614> 625 105<297.255 487.514>
VStem: 41 141<233.129 493.303> 599 141<235.292 495.961>
AnchorPoint: "Anchor-3" 537 20 basechar 0
AnchorPoint: "Anchor-2" 391 0 basechar 0
AnchorPoint: "Anchor-1" 757 720 basechar 0
AnchorPoint: "Anchor-0" 391 720 basechar 0
LayerCount: 3
Fore
SplineSet
391 -10 m 0
 339.666992188 -10 292.833007812 -1 250.5 17 c 0
 208.166992188 35 171.333007812 60.5 140 93.5 c 0
 108.666992188 126.5 84.3330078125 165.833007812 67 211.5 c 0
 49.6669921875 257.166992188 41 307.666992188 41 363 c 0
 41 436.333007812 55.8330078125 500.5 85.5 555.5 c 0
 115.166992188 610.5 156.333007812 653.333007812 209 684 c 0
 261.666992188 714.666992188 322 730 390 730 c 0
 458.666992188 730 519.333007812 714.666992188 572 684 c 0
 624.666992188 653.333007812 665.833007812 610.333007812 695.5 555 c 0
 725.166992188 499.666992188 740 435.333007812 740 362 c 0
 740 307.333007812 731.333007812 257.166992188 714 211.5 c 0
 696.666992188 165.833007812 672.5 126.5 641.5 93.5 c 0
 610.5 60.5 573.666992188 35 531 17 c 0
 488.333007812 -1 441.666992188 -10 391 -10 c 0
390 95 m 256
 520.985351562 95 599 205.919921875 599 364 c 0
 599 394.278320312 602.043945312 625 390 625 c 256
 260.0625 625 182 526.889648438 182 364 c 4
 182 201.057617188 260.342773438 95 390 95 c 256
EndSplineSet
Validated: 33
Substitution2: "Single Substitution lookup 17 subtable" ordmasculine
Substitution2: "'aalt' Access All Alternates in Latin lookup 0 subtable" ordmasculine
EndChar

StartChar: Oslash
Encoding: 216 216 70
Width: 782
GlyphClass: 2
Flags: HW
HStem: -10 105<296.159 483.442> 625 105<293.048 487.327>
VStem: 41 131<236.838 489.602> 609 131<238.296 488.904>
AnchorPoint: "Anchor-3" 537 20 basechar 0
AnchorPoint: "Anchor-2" 391 0 basechar 0
AnchorPoint: "Anchor-1" 757 720 basechar 0
AnchorPoint: "Anchor-0" 391 720 basechar 0
LayerCount: 3
Fore
SplineSet
120 -10 m 1
 51 51 l 1
 654 730 l 1
 723 669 l 1
 120 -10 l 1
391 -10 m 0
 339.666992188 -10 292.833007812 -1 250.5 17 c 0
 208.166992188 35 171.333007812 60.5 140 93.5 c 0
 108.666992188 126.5 84.3330078125 165.833007812 67 211.5 c 0
 49.6669921875 257.166992188 41 307.666992188 41 363 c 0
 41 436.333007812 55.8330078125 500.5 85.5 555.5 c 0
 115.166992188 610.5 156.333007812 653.333007812 209 684 c 0
 261.666992188 714.666992188 322 730 390 730 c 0
 458.666992188 730 519.333007812 714.666992188 572 684 c 0
 624.666992188 653.333007812 665.833007812 610.333007812 695.5 555 c 0
 725.166992188 499.666992188 740 435.333007812 740 362 c 0
 740 307.333007812 731.333007812 257.166992188 714 211.5 c 0
 696.666992188 165.833007812 672.5 126.5 641.5 93.5 c 0
 610.5 60.5 573.666992188 35 531 17 c 0
 488.333007812 -1 441.666992188 -10 391 -10 c 0
390 95 m 256
 433.333007812 95 471.333007812 106.333007812 504 129 c 0
 536.666992188 151.666992188 562.333007812 183.166992188 581 223.5 c 0
 599.666992188 263.833007812 609 310.666992188 609 364 c 0
 609 416.666992188 599.833007812 462.666992188 581.5 502 c 0
 563.166992188 541.333007812 537.666992188 571.666992188 505 593 c 0
 472.333007812 614.333007812 434 625 390 625 c 256
 346 625 307.666992188 614.333007812 275 593 c 0
 242.333007812 571.666992188 217 541.5 199 502.5 c 0
 181 463.5 172 417.333007812 172 364 c 0
 172 310 181.166992188 262.833007812 199.5 222.5 c 0
 217.833007812 182.166992188 243.333007812 150.833007812 276 128.5 c 0
 308.666992188 106.166992188 346.666992188 95 390 95 c 256
EndSplineSet
Validated: 5
EndChar

StartChar: OE
Encoding: 338 338 72
Width: 1059
Flags: HW
HStem: -10 105<303.986 533.764> 0 102<663 1004> 320 101<663 970> 618 102<663 994> 625 105<303.986 533.764>
VStem: 41 131<233.668 486.086> 534 129<102 320 421 603> 534 30<5 5 603 715>
LayerCount: 3
Fore
SplineSet
420 -10 m 0xad
 344 -10 277.666992188 5.5 221 36.5 c 0
 164.333007812 67.5 120.166992188 110.833007812 88.5 166.5 c 0
 56.8330078125 222.166992188 41 287 41 361 c 256
 41 435 56.8330078125 499.666992188 88.5 555 c 0
 120.166992188 610.333007812 164.333007812 653.333007812 221 684 c 0
 277.666992188 714.666992188 344 730 420 730 c 0
 449.333007812 730 475.666992188 728.666992188 499 726 c 0
 522.333007812 723.333007812 544 719.666992188 564 715 c 1
 560 603 l 1
 542 610.333007812 521.5 615.833007812 498.5 619.5 c 0
 475.5 623.166992188 449.333007812 625 420 625 c 0
 366 625 320.5 614.333007812 283.5 593 c 0
 246.5 571.666992188 218.666992188 541.166992188 200 501.5 c 0
 181.333007812 461.833007812 172 415 172 361 c 0
 172 306.333007812 181.333007812 259 200 219 c 0
 218.666992188 179 246.5 148.333007812 283.5 127 c 0
 320.5 105.666992188 366 95 420 95 c 0
 449.333007812 95 475.5 96.8330078125 498.5 100.5 c 0
 521.5 104.166992188 542 109.666992188 560 117 c 1
 564 5 l 1
 544 0.3330078125 522.333007812 -3.3330078125 499 -6 c 0
 475.666992188 -8.6669921875 449.333007812 -10 420 -10 c 0xad
534 0 m 1x75
 534 720 l 1x75
 994 720 l 1
 994 618 l 1
 663 618 l 1
 663 421 l 1
 970 421 l 1
 970 320 l 1
 663 320 l 1
 663 102 l 1x76
 1004 102 l 1
 1004 0 l 1
 534 0 l 1x75
EndSplineSet
Validated: 5
EndChar

StartChar: P
Encoding: 80 80 73
Width: 659
Flags: HW
HStem: 0 21G<67 206> 280 102<167 442.367> 618 102<206 442.486>
VStem: 67 139<0 280 382 618> 167 39<280 382> 487 139<426.008 574.374>
LayerCount: 3
Fore
SplineSet
67 0 m 1xf4
 67 720 l 1xf4
 377 720 l 2
 429 720 473.5 711 510.5 693 c 0
 547.5 675 576 649.666992188 596 617 c 0
 616 584.333007812 626 545.666992188 626 501 c 256
 626 456.333007812 615.833007812 417.5 595.5 384.5 c 0
 575.166992188 351.5 546.5 325.833007812 509.5 307.5 c 0
 472.5 289.166992188 428.333007812 280 377 280 c 2
 167 280 l 1
 167 382 l 1xec
 361 382 l 6
 401.666992188 382 432.833007812 392.5 454.5 413.5 c 4
 476.166992188 434.5 487 463.666992188 487 501 c 4
 487 537.666992188 476.166992188 566.333007812 454.5 587 c 4
 432.833007812 607.666992188 401.666992188 618 361 618 c 6
 206 618 l 1
 206 0 l 1
 67 0 l 1xf4
EndSplineSet
Validated: 5
EndChar

StartChar: Thorn
Encoding: 222 222 74
Width: 657
Flags: HW
HStem: 0 21G<64 193> 154 102<164 447.69> 484 102<164 447.69> 700 20G<64 193>
VStem: 64 129<0 154 256 484 586 720> 164 29<154 256 484 586> 495 129<300.737 439.591>
LayerCount: 3
Fore
SplineSet
164 154 m 1xf6
 164 256 l 1
 366 256 l 2
 406.666992188 256 438.333007812 266.333007812 461 287 c 0
 483.666992188 307.666992188 495 335.333007812 495 370 c 256
 495 404.666992188 483.666992188 432.333007812 461 453 c 0
 438.333007812 473.666992188 406.666992188 484 366 484 c 2
 164 484 l 1
 164 586 l 1
 374 586 l 2
 425.333007812 586 469.5 577 506.5 559 c 0
 543.5 541 572.333007812 515.833007812 593 483.5 c 0
 613.666992188 451.166992188 624 413.333007812 624 370 c 0
 624 327.333007812 613.666992188 289.666992188 593 257 c 0
 572.333007812 224.333007812 543.5 199 506.5 181 c 0
 469.5 163 425.333007812 154 374 154 c 2
 164 154 l 1xf6
64 0 m 1xfa
 64 720 l 1
 193 720 l 1
 193 0 l 1
 64 0 l 1xfa
EndSplineSet
Validated: 5
EndChar

StartChar: Q
Encoding: 81 81 75
Width: 793
Flags: HW
HStem: -10 100<298.81 520.516> 625 105<297.255 487.514>
VStem: 41 141<228.298 493.303> 599 141<229.902 495.961>
LayerCount: 3
Fore
SplineSet
397 -10 m 1
 326.333007812 -10 264.166992188 5.6669921875 210.5 37 c 0
 156.833007812 68.3330078125 115.166992188 112 85.5 168 c 0
 55.8330078125 224 41 289 41 363 c 0
 41 436.333007812 55.8330078125 500.5 85.5 555.5 c 0
 115.166992188 610.5 156.333007812 653.333007812 209 684 c 0
 261.666992188 714.666992188 322 730 390 730 c 0
 458.666992188 730 519.333007812 714.666992188 572 684 c 0
 624.666992188 653.333007812 665.833007812 610.333007812 695.5 555 c 0
 725.166992188 499.666992188 740 435.333007812 740 362 c 0
 740 312.666992188 732.333007812 266.666992188 717 224 c 0
 701.666992188 181.333007812 677.666992188 144.833007812 645 114.5 c 0
 612.333007812 84.1669921875 570.333007812 62.3330078125 519 49 c 1
 397 -10 l 1
390 90 m 256
 520.516601562 90 599 195.713867188 599 364 c 4
 599 394.278320312 602.043945312 625 390 625 c 256
 260.0625 625 182 526.889648438 182 364 c 0
 182 192.919921875 262.1171875 90 390 90 c 256
397 -10 m 1
 395 52 l 1
 782 119 l 1
 782 0 l 1
 741.333007812 0 704.166992188 -0.5 670.5 -1.5 c 0
 636.833007812 -2.5 606.5 -3.6669921875 579.5 -5 c 0
 552.5 -6.3330078125 524.5 -7.5 495.5 -8.5 c 0
 466.5 -9.5 433.666992188 -10 397 -10 c 1
EndSplineSet
Validated: 37
Substitution2: "'ss09' Style Set 9 in Latin lookup 30 subtable" Q.ss09
Substitution2: "'aalt' Access All Alternates in Latin lookup 0 subtable" Q.ss09
EndChar

StartChar: R
Encoding: 65537 -1 76
Width: 657
GlyphClass: 2
Flags: HW
HStem: 0 21G<64 193 446.306 639> 303 99<352 436.776> 303 66<164 299> 618 102<193 438.516>
VStem: 64 129<0 303 402 618> 164 29<303 402> 479 125<442.744 579.096>
AnchorPoint: "Anchor-2" 328 0 basechar 0
AnchorPoint: "Anchor-0" 328 720 basechar 0
LayerCount: 3
Fore
SplineSet
64 0 m 1xda
 64 720 l 1
 356 720 l 2
 406.666992188 720 450.666992188 711.333007812 488 694 c 0
 525.333007812 676.666992188 554 652.333007812 574 621 c 0
 594 589.666992188 604 553 604 511 c 0
 604 469.666992188 594 433.5 574 402.5 c 0
 554 371.5 525.333007812 347.166992188 488 329.5 c 0
 450.666992188 311.833007812 406.666992188 303 356 303 c 2xda
 164 303 l 1xb6
 164 402 l 1xd6
 352 402 l 2
 393.333007812 402 424.833007812 411.666992188 446.5 431 c 0
 468.166992188 450.333007812 479 477 479 511 c 256
 479 545 468.333007812 571.333007812 447 590 c 0
 425.666992188 608.666992188 394 618 352 618 c 2
 193 618 l 1
 193 0 l 1
 64 0 l 1xda
463 0 m 1
 155 369 l 1
 299 369 l 1xb2
 639 0 l 1
 463 0 l 1
EndSplineSet
Validated: 5
Substitution2: "'calt' Contextual Alternates in Latin lookup 26 subtable" R.ss05
Substitution2: "'aalt' Access All Alternates in Latin lookup 0 subtable" R.ss05
EndChar

StartChar: S
Encoding: 83 83 80
Width: 631
GlyphClass: 2
Flags: HW
HStem: -9 99<238.038 432.919> 514 21G<444.667 587> 631 100<239.716 405.481>
VStem: 35 139<148.796 230> 69 134<481.23 597.548> 448 139<514 590.989> 463 145<119.142 250.179>
AnchorPoint: "Anchor-2" 331 0 basechar 0
AnchorPoint: "Anchor-0" 325 720 basechar 0
LayerCount: 3
Fore
SplineSet
336 -9 m 0xea
 248 -9 177.833007812 11.8330078125 125.5 53.5 c 0
 73.1669921875 95.1669921875 43 154 35 230 c 1
 174 230 l 1
 179.333007812 185.333007812 182.833007812 150.833007812 214.5 126.5 c 0
 246.166992188 102.166992188 288.333007812 90 341 90 c 0
 429 90 463 120.666992188 463 182 c 0xf2
 463 237.9296875 441.348632812 266.439453125 379 286 c 2
 254 327 l 2
 190 347.666992188 143.166992188 374.333007812 113.5 407 c 0
 83.8330078125 439.666992188 69 480.333007812 69 529 c 0
 69 663.666992188 153 731 321 731 c 0
 399 731 461.333007812 711.5 508 672.5 c 0
 554.666992188 633.5 581 580.666992188 587 514 c 1
 448 514 l 5xec
 441.333007812 554.666992188 440.5 584.333007812 415.5 603 c 0
 390.5 621.666992188 357 631 315 631 c 0
 233.666992188 631 203 582.666992188 203 546 c 0
 203 484.017578125 247.950195312 451.608398438 288 439 c 2
 416 397 l 2
 479.333007812 377 525.5 360.166992188 554.5 326.5 c 0
 583.5 292.833007812 608 251 608 201 c 0
 608 61 510.666992188 -9 336 -9 c 0xea
EndSplineSet
Validated: 1
EndChar

StartChar: uni1E9E
Encoding: 7838 7838 85
Width: 708
Flags: HW
HStem: -9 103<280.876 499.278> 0 21G<67 196> 628 103<275.035 474.784>
VStem: 67 129<0 546.447> 544 130<134.788 273.793>
LayerCount: 3
Fore
SplineSet
409 -9 m 0xb8
 385.666992188 -9 363 -7.5 341 -4.5 c 0
 319 -1.5 298.666992188 3 280 9 c 1
 280 116 l 1
 297.333007812 108.666992188 315.666992188 103.166992188 335 99.5 c 0
 354.333007812 95.8330078125 375.333007812 94 398 94 c 0xb8
 447.333007812 94 484 103 508 121 c 0
 532 139 544 166.666992188 544 204 c 0
 544 240 530.833007812 269.833007812 504.5 293.5 c 0
 478.166992188 317.166992188 434.333007812 338.333007812 373 357 c 2
 335 368 l 1
 537 636 l 1
 525 568 l 1
 507 588 485.166992188 603 459.5 613 c 0
 433.833007812 623 404.666992188 628 372 628 c 0
 314.666992188 628 271 612.333007812 241 581 c 0
 211 549.666992188 196 503.333007812 196 442 c 2
 196 0 l 1
 67 0 l 1x78
 67 432 l 2
 67 529.333007812 93.6669921875 603.5 147 654.5 c 0
 200.333007812 705.5 277.666992188 731 379 731 c 0
 437.666992188 731 490.5 722.166992188 537.5 704.5 c 0
 584.5 686.833007812 627.666992188 659.333007812 667 622 c 1
 478 377 l 1
 430 442 l 1
 514 414.666992188 575.666992188 381 615 341 c 0
 654.333007812 301 674 252 674 194 c 0
 674 152 663.5 115.833007812 642.5 85.5 c 0
 621.5 55.1669921875 591.166992188 31.8330078125 551.5 15.5 c 0
 511.833007812 -0.8330078125 464.333007812 -9 409 -9 c 0xb8
EndSplineSet
Validated: 5
EndChar

StartChar: T
Encoding: 84 84 86
Width: 654
GlyphClass: 2
Flags: HW
HStem: 0 21G<258 397> 618 102<32 258 397 622>
VStem: 258 139<0 618>
AnchorPoint: "Anchor-2" 327 0 basechar 0
AnchorPoint: "Anchor-0" 327 720 basechar 0
LayerCount: 3
Fore
SplineSet
258 0 m 1
 258 618 l 1
 32 618 l 1
 32 720 l 1
 622 720 l 1
 622 618 l 1
 397 618 l 5
 397 0 l 5
 258 0 l 1
EndSplineSet
Validated: 1
EndChar

StartChar: U
Encoding: 85 85 89
Width: 696
GlyphClass: 2
Flags: HW
HStem: -10 105<272.583 429.368> 700 20G<59 209 497 637>
VStem: 59 150<168.612 720> 497 140<170.005 720>
AnchorPoint: "Anchor-3" 494 20 basechar 0
AnchorPoint: "Anchor-2" 348 0 basechar 0
AnchorPoint: "Anchor-1" 675 720 basechar 0
AnchorPoint: "Anchor-0" 338 720 basechar 0
LayerCount: 3
Back
SplineSet
347 -10 m 4
 252.333007812 -10 180.666992188 16.8330078125 132 70.5 c 132
 83.3330078125 124.166992188 59 201.333007812 59 302 c 6
 59 720 l 5
 198 720 l 5
 198 282 l 6
 198 222.841796875 213.553710938 95 348 95 c 260
 419.09375 95 508 126.154296875 508 282 c 6
 508 720 l 5
 637 720 l 5
 637 301 l 6
 637 201 612.5 124.166992188 563.5 70.5 c 132
 514.5 16.8330078125 442.333007812 -10 347 -10 c 4
EndSplineSet
Fore
SplineSet
347 -10 m 0
 252.333007812 -10 180.666992188 16.8330078125 132 70.5 c 0
 83.3330078125 124.166992188 59 171.333007812 59 302 c 2
 59 720 l 1
 209 720 l 1
 209 282 l 2
 209 134 282 93 348 95 c 256
 419.060546875 97.1533203125 497 126.154296875 497 282 c 2
 497 720 l 1
 637 720 l 1
 637 301 l 2
 637 161 612.5 124.166992188 563.5 70.5 c 0
 514.5 16.8330078125 442.333007812 -10 347 -10 c 0
EndSplineSet
Validated: 33
EndChar

StartChar: V
Encoding: 86 86 99
Width: 722
Flags: HW
HStem: 0 21G<279.917 442.083> 700 20G<32 177.614 544.386 690>
LayerCount: 3
Fore
SplineSet
287 0 m 1
 32 720 l 1
 171 720 l 1
 379 91 l 1
 343 91 l 5
 551 720 l 5
 690 720 l 1
 435 0 l 1
 287 0 l 1
EndSplineSet
Validated: 5
EndChar

StartChar: W
Encoding: 87 87 100
Width: 1026
GlyphClass: 2
Flags: HW
HStem: 0 21G<218.528 387.04 642.992 810.472> 700 20G<27 190.411 439.287 596.653 838.559 1002>
AnchorPoint: "Anchor-2" 515 0 basechar 0
AnchorPoint: "Anchor-0" 515 720 basechar 0
LayerCount: 3
Fore
SplineSet
224 0 m 1
 27 720 l 1
 181 720 l 1
 332 58 l 1
 293 58 l 1
 444 720 l 1
 592 720 l 1
 741 58 l 1
 696 58 l 1
 848 720 l 1
 1002 720 l 1
 805 0 l 1
 648 0 l 1
 491 657 l 5
 540 657 l 5
 382 0 l 1
 224 0 l 1
EndSplineSet
Validated: 5
EndChar

StartChar: X
Encoding: 88 88 105
Width: 696
Flags: HW
HStem: 0 21G<30 182.069 493.368 645> 700 20G<37 188.632 515.931 668>
LayerCount: 3
Fore
SplineSet
496 0 m 1
 292 323 l 1
 27 720 l 1
 206 720 l 1
 398 416 l 1
 675 0 l 1
 496 0 l 1
311 417 m 1
 509 720 l 1
 678 720 l 5
 391 307 l 5
 311 417 l 1
377 303 m 1
 179 0 l 1
 10 0 l 1
 296 413 l 1
 377 303 l 1
EndSplineSet
Validated: 5
EndChar

StartChar: Y
Encoding: 89 89 106
Width: 692
GlyphClass: 2
Flags: HW
HStem: 0 21G<281 416> 700 20G<20 180.057 520.997 673>
VStem: 281 135<0 304>
AnchorPoint: "Anchor-2" 346 0 basechar 0
AnchorPoint: "Anchor-0" 346 720 basechar 0
LayerCount: 3
Fore
SplineSet
281 0 m 1
 281 304 l 1
 20 720 l 1
 179 720 l 1
 383 351 l 1
 307 351 l 5
 510 720 l 5
 673 720 l 1
 416 304 l 1
 416 0 l 1
 281 0 l 1
EndSplineSet
Validated: 5
EndChar

StartChar: Z
Encoding: 90 90 111
Width: 626
GlyphClass: 2
Flags: HW
HStem: 0 102<205 579> 618 102<64 413>
AnchorPoint: "Anchor-2" 314 0 basechar 0
AnchorPoint: "Anchor-0" 314 720 basechar 0
LayerCount: 3
Fore
SplineSet
52 0 m 1
 52 90 l 1
 413 667 l 1
 477 618 l 1
 64 618 l 1
 64 720 l 1
 563 720 l 5
 563 632 l 5
 195 57 l 5
 153 102 l 1
 579 102 l 1
 579 0 l 1
 52 0 l 1
EndSplineSet
Validated: 5
EndChar

StartChar: K.ss04
Encoding: 65559 -1 133
Width: 704
GlyphClass: 2
Flags: HW
HStem: 0 21G<67 196 507.733 679> 700 20G<67 196 481.033 660>
VStem: 67 129<0 155 298 720>
AnchorPoint: "Anchor-2" 357 0 basechar 0
AnchorPoint: "Anchor-0" 353 720 basechar 0
LayerCount: 3
Fore
SplineSet
67 0 m 1
 67 720 l 1
 196 720 l 1
 196 0 l 1
 67 0 l 1
140 298 m 1
 498 720 l 1
 660 720 l 1
 346 358 l 1
 324 350 l 1
 155 155 l 1
 140 298 l 1
521 0 m 1
 253 404 l 1
 373 442 l 1
 679 0 l 1
 521 0 l 1
EndSplineSet
Validated: 5
EndChar

StartChar: R.ss05
Encoding: 82 82 135
Width: 650
GlyphClass: 2
Flags: HWO
HStem: 0 21G<67 206 503.556 648.879> 304 98<129 411.017> 618 102<206 427.605>
VStem: 67 139<0 304 402 618> 129 77<304 402> 468 139<443.895 579.101>
AnchorPoint: "Anchor-2" 332 0 basechar 0
AnchorPoint: "Anchor-0" 326 720 basechar 0
LayerCount: 3
Fore
SplineSet
67 0 m 1xf4
 67 720 l 1xf4
 366 720 l 2
 416 720 459 712 495 696 c 0
 531 680 558.666992188 657.166992188 578 627.5 c 0
 597.333007812 597.833007812 607 562.666992188 607 522 c 0
 607 423.333007812 544.333007812 366.333007812 419 351 c 1
 422 363 l 1
 456.666992188 365.666992188 489.923828125 355.064453125 521.770507812 331.194335938 c 0
 558.58984375 304.3984375 576.837890625 252.666992188 596.578125 183.432617188 c 6
 651.87890625 0 l 5
 512.87890625 0 l 1
 468 184.5 l 2
 450.924018433 263.502131589 408.333007812 304 331 304 c 2
 129 304 l 1
 129 402 l 1xec
 341 402 l 2
 381.666992188 402 413 411.666992188 435 431 c 0
 457 450.333007812 468 477 468 511 c 0
 468 545.666992188 457.166992188 572.166992188 435.5 590.5 c 0
 413.833007812 608.833007812 382.333007812 618 341 618 c 2
 206 618 l 1
 206 0 l 1
 67 0 l 1xf4
EndSplineSet
EndChar

StartChar: M.ss06
Encoding: 65561 -1 139
Width: 870
Flags: HW
HStem: 0 21G<47 169.971 356.029 506.985 694.017 823> 700 20G<117 289.135 578.894 752.028>
VStem: 47 121<0 70> 696 127<0 69.0411>
LayerCount: 3
Fore
SplineSet
47 0 m 1
 119 720 l 1
 284 720 l 1
 465 15 l 1
 404 15 l 1
 584 720 l 1
 750 720 l 1
 823 0 l 1
 696 0 l 1
 628 686 l 1
 673 686 l 1
 502 0 l 1
 361 0 l 1
 192 680 l 1
 235 680 l 1
 168 0 l 1
 47 0 l 1
EndSplineSet
Validated: 5
EndChar

StartChar: G.ss07
Encoding: 65562 -1 140
Width: 760
GlyphClass: 2
Flags: HW
HStem: -10 105<295.606 492.874> 282 102<407 598> 282 51<598 627> 625 105<295.422 491.162>
VStem: 41 131<233.87 487.154> 580 127<485 542.059>
AnchorPoint: "Anchor-2" 386 0 basechar 0
AnchorPoint: "Anchor-0" 386 720 basechar 0
LayerCount: 3
Fore
SplineSet
393 -10 m 0xbc
 323.666992188 -10 262.5 5.6669921875 209.5 37 c 0
 156.5 68.3330078125 115.166992188 112 85.5 168 c 0
 55.8330078125 224 41 288 41 360 c 0
 41 432.666992188 56 496.666992188 86 552 c 0
 116 607.333007812 157.5 650.833007812 210.5 682.5 c 0
 263.5 714.166992188 324.666992188 730 394 730 c 0
 450.666992188 730 501.166992188 719.333007812 545.5 698 c 0
 589.833007812 676.666992188 626.166992188 647.666992188 654.5 611 c 0
 682.833007812 574.333007812 700.333007812 532.333007812 707 485 c 1
 580 485 l 1
 575.333007812 512.333007812 564.666992188 536.5 548 557.5 c 0
 531.333007812 578.5 510.166992188 595 484.5 607 c 0
 458.833007812 619 429 625 395 625 c 0
 349.666992188 625 310.333007812 614.333007812 277 593 c 0
 243.666992188 571.666992188 217.833007812 541.166992188 199.5 501.5 c 0
 181.166992188 461.833007812 172 414.666992188 172 360 c 0
 172 306.666992188 181 260 199 220 c 0
 217 180 242.833007812 149.166992188 276.5 127.5 c 0
 310.166992188 105.833007812 350 95 396 95 c 0
 436.666992188 95 472.166992188 103.833007812 502.5 121.5 c 0
 532.833007812 139.166992188 556.333007812 165.666992188 573 201 c 0
 589.666992188 236.333007812 598 280.333007812 598 333 c 1
 718 333 l 1
 718 260.333007812 704.333007812 198.333007812 677 147 c 0
 649.666992188 95.6669921875 611.666992188 56.6669921875 563 30 c 0
 514.333007812 3.3330078125 457.666992188 -10 393 -10 c 0xbc
627 282 m 1
 407 282 l 1
 407 384 l 1
 718 384 l 1xdc
 718 333 l 1
 627 282 l 1
EndSplineSet
Validated: 5
EndChar

StartChar: J.ss08
Encoding: 65566 -1 144
Width: 629
Flags: HW
HStem: -10 105<232.97 384.044> 700 20G<440 569>
VStem: 46 126<157.647 247> 440 129<155.811 720>
LayerCount: 3
Fore
SplineSet
306 -10 m 0
 250.666992188 -10 203.666992188 1.3330078125 165 24 c 0
 126.333007812 46.6669921875 96.8330078125 77.3330078125 76.5 116 c 0
 56.1669921875 154.666992188 46 198.333007812 46 247 c 1
 172 247 l 1
 172 199 184.833007812 161.666992188 210.5 135 c 0
 236.166992188 108.333007812 268 95 306 95 c 0
 331.333007812 95 354.166992188 100.333007812 374.5 111 c 0
 394.833007812 121.666992188 410.833007812 138.833007812 422.5 162.5 c 0
 434.166992188 186.166992188 440 217.666992188 440 257 c 2
 440 720 l 1
 569 720 l 1
 569 274 l 2
 569 212 558.833007812 160 538.5 118 c 0
 518.166992188 76 488.5 44.1669921875 449.5 22.5 c 0
 410.5 0.8330078125 362.666992188 -10 306 -10 c 0
EndSplineSet
Validated: 1
EndChar

StartChar: Q.ss09
Encoding: 65567 -1 145
Width: 782
Flags: HW
HStem: -10 105<296.159 461.773> 625 105<293.048 487.327>
VStem: 41 131<236.838 489.602> 609 131<234.938 488.904>
LayerCount: 3
Fore
SplineSet
391 -10 m 0
 339.666992188 -10 292.833007812 -1 250.5 17 c 0
 208.166992188 35 171.333007812 60.5 140 93.5 c 0
 108.666992188 126.5 84.3330078125 165.833007812 67 211.5 c 0
 49.6669921875 257.166992188 41 307.666992188 41 363 c 0
 41 436.333007812 55.8330078125 500.5 85.5 555.5 c 0
 115.166992188 610.5 156.333007812 653.333007812 209 684 c 0
 261.666992188 714.666992188 322 730 390 730 c 0
 458.666992188 730 519.333007812 714.666992188 572 684 c 0
 624.666992188 653.333007812 665.833007812 610.333007812 695.5 555 c 0
 725.166992188 499.666992188 740 435.333007812 740 362 c 0
 740 307.333007812 731.333007812 257.166992188 714 211.5 c 0
 696.666992188 165.833007812 672.5 126.5 641.5 93.5 c 0
 610.5 60.5 573.666992188 35 531 17 c 0
 488.333007812 -1 441.666992188 -10 391 -10 c 0
390 95 m 0
 422 95 451.5 101.166992188 478.5 113.5 c 0
 505.5 125.833007812 528.833007812 143.833007812 548.5 167.5 c 0
 568.166992188 191.166992188 583.166992188 219.5 593.5 252.5 c 0
 603.833007812 285.5 609 322.666992188 609 364 c 0
 609 416.666992188 599.833007812 462.666992188 581.5 502 c 0
 563.166992188 541.333007812 537.666992188 571.666992188 505 593 c 0
 472.333007812 614.333007812 434 625 390 625 c 256
 346 625 307.666992188 614.333007812 275 593 c 0
 242.333007812 571.666992188 217 541.5 199 502.5 c 0
 181 463.5 172 417.333007812 172 364 c 0
 172 310 181.166992188 262.833007812 199.5 222.5 c 0
 217.833007812 182.166992188 243.333007812 150.833007812 276 128.5 c 0
 308.666992188 106.166992188 346.666992188 95 390 95 c 0
366 241 m 1
 455 292 l 1
 676 -92 l 1
 587 -143 l 1
 366 241 l 1
EndSplineSet
Validated: 5
EndChar

StartChar: a
Encoding: 97 97 150
Width: 556
GlyphClass: 2
Flags: HW
HStem: -10 21G<183 229> 0 21G<378.333 504> 431.729 88.2705<224.228 345.085>
VStem: 45 124<97.1822 208.426> 366 125<0.843262 100 176 244 325 410.927> 380 124<0 99.002>
AnchorPoint: "Anchor-3" 505 0 basechar 0
AnchorPoint: "Anchor-2" 283 0 basechar 0
AnchorPoint: "Anchor-0" 291 510 basechar 0
LayerCount: 3
Fore
SplineSet
380 0 m 1x74
 376.666992188 13.3330078125 374.166992188 28 372.5 44 c 0
 370.833007812 60 370 78.6669921875 370 100 c 1
 366 100 l 1
 366 346 l 2
 366 417.546875 324.524414062 431.729492188 287 431.729492188 c 4
 255.892578125 431.729492188 204.583007812 417.11328125 197 361 c 1
 77 361 l 1
 82.3330078125 408.333007812 104.833007812 446.666992188 144.5 476 c 0
 184.166992188 505.333007812 233 520 291 520 c 0
 359 520 409.333007812 504.333007812 442 473 c 0
 474.666992188 441.666992188 491 396 491 336 c 2
 491 100 l 2x78
 491 84.6669921875 492 68.6669921875 494 52 c 0
 496 35.3330078125 499.333007812 18 504 0 c 1
 380 0 l 1x74
208 -10 m 0xb8
 158 -10 118.333007812 2.6669921875 89 28 c 0
 59.6669921875 53.3330078125 45 87.6669921875 45 131 c 0
 45 185.666992188 61.1669921875 226.666992188 93.5 254 c 0
 129.500976562 284.385742188 183.66796875 303.385742188 256 311 c 2
 389 325 l 1
 389 244 l 1
 279 235 l 2
 237 231.666992188 207.666992188 223 191 209 c 0
 176.333007812 197 169 175.666992188 169 145 c 0
 169 66.1083984375 279.625976562 59.5322265625 331.5 111.5 c 0
 351.989257812 132.026367188 366 150.666992188 366 176 c 1
 379 100 l 1
 366.333007812 64 345.166992188 36.6669921875 315.5 18 c 0
 285.833007812 -0.6669921875 250 -10 208 -10 c 0xb8
EndSplineSet
Validated: 37
Substitution2: "'ss02' Style Set 2 in Latin lookup 23 subtable" a.ss02
Substitution2: "Single Substitution lookup 17 subtable" ordfeminine
AlternateSubs2: "'aalt' Access All Alternates in Latin lookup 1 subtable" a.ss02 ordfeminine
EndChar

StartChar: ae
Encoding: 230 230 161
Width: 870
Flags: HW
HStem: -10 95<185.896 318.278 534.813 678.388> 218 87<433 722> 426 94<204.083 340.734 536.962 677.15>
VStem: 45 124<100.432 190.321> 363 117<139 140 177 218 237 317 336 372> 433 47<218 305>
LayerCount: 3
Fore
SplineSet
363 139 m 1xf8
 363 346 l 2
 363 372 355.5 391.833007812 340.5 405.5 c 0
 325.5 419.166992188 304 426 276 426 c 0
 250 426 228.166992188 420.333007812 210.5 409 c 0
 192.833007812 397.666992188 182.333007812 381.666992188 179 361 c 1
 59 361 l 1
 64.3330078125 408.333007812 85.6669921875 446.666992188 123 476 c 0
 160.333007812 505.333007812 211.333007812 520 276 520 c 0
 342.666992188 520 393.333007812 504.333007812 428 473 c 0
 462.666992188 441.666992188 480 396 480 336 c 2
 480 139 l 1
 363 139 l 1xf8
214 -10 m 0
 163.333007812 -10 122.5 2.8330078125 91.5 28.5 c 0
 60.5 54.1669921875 45 89 45 133 c 0
 45 173.666992188 59.5 207.833007812 88.5 235.5 c 0
 117.5 263.166992188 164.666992188 282.333007812 230 293 c 2
 375 317 l 1
 375 237 l 1
 259 217 l 2
 227 211.666992188 204 202.833007812 190 190.5 c 0
 176 178.166992188 169 162.333007812 169 143 c 0
 169 125 175.666992188 110.833007812 189 100.5 c 0
 202.333007812 90.1669921875 222 85 248 85 c 0
 266.666992188 85 284.833007812 89.1669921875 302.5 97.5 c 0
 320.166992188 105.833007812 334.666992188 117 346 131 c 0
 357.333007812 145 363 160.333007812 363 177 c 1
 436 140 l 1
 414 84 384.333007812 45 347 23 c 0
 309.666992188 1 265.333007812 -10 214 -10 c 0
607 -10 m 0
 557 -10 513.833007812 1.3330078125 477.5 24 c 0
 441.166992188 46.6669921875 413.333007812 77.8330078125 394 117.5 c 0
 374.666992188 157.166992188 365 203.333007812 365 256 c 256
 365 308.666992188 374.833007812 354.833007812 394.5 394.5 c 0
 414.166992188 434.166992188 442.166992188 465 478.5 487 c 0
 514.833007812 509 557 520 605 520 c 0
 652.333007812 520 693.333007812 509.5 728 488.5 c 0
 762.666992188 467.5 789.666992188 438.166992188 809 400.5 c 0
 828.333007812 362.833007812 838 318.333007812 838 267 c 0
 838 257.666992188 837.833007812 249 837.5 241 c 0
 837.166992188 233 836.333007812 225.333007812 835 218 c 1
 433 218 l 1
 433 305 l 1xf4
 746 305 l 1
 722 280 l 1
 722 328.666992188 712.166992188 365.166992188 692.5 389.5 c 0
 672.833007812 413.833007812 645 426 609 426 c 0
 583 426 560.333007812 419.833007812 541 407.5 c 0
 521.666992188 395.166992188 506.666992188 376.333007812 496 351 c 0
 485.333007812 325.666992188 480 293.333007812 480 254 c 0
 480 198.666992188 491.166992188 156.5 513.5 127.5 c 0
 535.833007812 98.5 567.333007812 84 608 84 c 0
 633.333007812 84 653.833007812 89.1669921875 669.5 99.5 c 0
 685.166992188 109.833007812 697.333007812 126 706 148 c 1
 825 148 l 1
 809 99.3330078125 782.333007812 60.8330078125 745 32.5 c 0
 707.666992188 4.1669921875 661.666992188 -10 607 -10 c 0
EndSplineSet
Validated: 5
EndChar

StartChar: b
Encoding: 98 98 162
Width: 618
Flags: HW
HStem: -10 88.0205<264.729 389.168> 0 21G<62 181.167> 431.729 88.2705<270.449 389.904> 700 20G<70 196>
VStem: 62 117<0 64.6154> 70 126<143.995 365.459 396 720> 187 9<396 429.333> 453 130<151.36 359.308>
LayerCount: 3
Fore
SplineSet
356 -10 m 4xb3
 309.333007812 -10 270.666992188 2.6669921875 240 28 c 4
 209.333007812 53.3330078125 190.333007812 86 183 126 c 5
 192 120 l 5
 179 0 l 5
 62 0 l 5x7b
 67 114 70 34 70 237 c 4
 70 720 l 5
 196 720 l 5
 196 396 l 5x75
 187 392 l 5
 195.666992188 429.333007812 215.833007812 460 247.5 484 c 4
 279.166992188 508 318 520 364 520 c 4
 408.666992188 520 447.333007812 509.166992188 480 487.5 c 4
 512.666992188 465.833007812 538 435.333007812 556 396 c 4
 574 356.666992188 583 310.333007812 583 257 c 4
 583 203 573.666992188 156 555 116 c 4
 536.333007812 76 510 45 476 23 c 4
 442 1 402 -10 356 -10 c 4xb3
323 78.0205078125 m 4xb1
 403.811523438 78.0205078125 453 153.889648438 453 256 c 260
 453 357.120117188 404.650390625 431.729492188 323 431.729492188 c 260
 242.116210938 431.729492188 193 355.79296875 193 255 c 4
 193 153.143554688 240.634765625 78.0205078125 323 78.0205078125 c 4xb1
EndSplineSet
Validated: 5
EndChar

StartChar: c
Encoding: 99 99 163
Width: 550
GlyphClass: 2
Flags: HW
HStem: -10 101<218.682 357.013> 419 101<218.579 356.611>
VStem: 32 130<154.136 356.922>
AnchorPoint: "Anchor-2" 281 0 basechar 0
AnchorPoint: "Anchor-0" 290 510 basechar 0
LayerCount: 3
Fore
SplineSet
287 -10 m 4
 136.7578125 -10 32 99.27734375 32 256 c 4
 32 411.82421875 136.487304688 520 287 520 c 4
 430.235351562 520 521 446.301757812 521 330 c 4
 395 330 l 7
 395 385.459960938 346.788085938 431.729492188 289 431.729492188 c 4
 208.157226562 431.729492188 162 367.861328125 162 256 c 260
 162 143.856445312 209.348632812 78.0205078125 290 78.0205078125 c 4
 352.211914062 78.0205078125 395 119.578125 395 180 c 4
 521 180 l 7
 521 70.615234375 421.715820312 -10 287 -10 c 4
EndSplineSet
Validated: 1
EndChar

StartChar: d
Encoding: 100 100 168
Width: 618
GlyphClass: 2
Flags: HW
HStem: -10 88.0205<228.832 353.271> 431.729 88.2705<228.096 347.551>
VStem: 35 130<151.36 359.308> 422 126<143.995 365.459> 422 9<396 429.333> 439 117<0 64.6154>
AnchorPoint: "Anchor-2" 309 0 basechar 0
AnchorPoint: "Anchor-1" 603 720 basechar 0
AnchorPoint: "Anchor-0" 309 738 basechar 0
LayerCount: 3
Fore
SplineSet
262 -10 m 4xe8
 308.666992188 -10 347.333007812 2.6669921875 378 28 c 4
 408.666992188 53.3330078125 427.666992188 86 435 126 c 5
 426 120 l 5
 439 0 l 5
 556 0 l 5xec
 551 114 548 34 548 237 c 4
 548 720 l 5xf0
 422 720 l 5
 422 396 l 5
 431 392 l 5
 422.333007812 429.333007812 402.166992188 460 370.5 484 c 4
 338.833007812 508 300 520 254 520 c 4
 209.333007812 520 170.666992188 509.166992188 138 487.5 c 4
 105.333007812 465.833007812 80 435.333007812 62 396 c 4
 44 356.666992188 35 310.333007812 35 257 c 4
 35 203 44.3330078125 156 63 116 c 4
 81.6669921875 76 108 45 142 23 c 4
 176 1 216 -10 262 -10 c 4xe8
295 78.0205078125 m 4
 214.188476562 78.0205078125 165 153.889648438 165 256 c 260
 165 357.120117188 213.349609375 431.729492188 295 431.729492188 c 260
 375.883789062 431.729492188 425 355.79296875 425 255 c 4
 425 153.143554688 377.365234375 78.0205078125 295 78.0205078125 c 4
EndSplineSet
Validated: 5
EndChar

StartChar: eth
Encoding: 240 240 169
Width: 606
Flags: HW
HStem: -10 102<225.875 373.791> 396 99<227.563 377.504> 512 21G<191.385 235.732> 643 87<130 264.37>
VStem: 38 134<149.836 338.708> 434 137<170.169 399.166>
LayerCount: 3
Fore
SplineSet
296 -10 m 0
 246.666992188 -10 202.5 0 163.5 20 c 0
 124.5 40 93.8330078125 68.8330078125 71.5 106.5 c 0
 49.1669921875 144.166992188 38 190 38 244 c 0
 38 297.333007812 49.3330078125 342.666992188 72 380 c 0
 94.6669921875 417.333007812 124.666992188 445.833007812 162 465.5 c 0
 199.333007812 485.166992188 239.666992188 495 283 495 c 0
 319 495 350.5 488.666992188 377.5 476 c 0
 404.5 463.333007812 426.5 445.666992188 443.5 423 c 0
 460.5 400.333007812 471.333007812 373.333007812 476 342 c 1
 443 293 l 1
 443 355 l 2
 443 417 430.833007812 469.333007812 406.5 512 c 0
 382.166992188 554.666992188 345.333007812 587.166992188 296 609.5 c 0
 246.666992188 631.833007812 184.666992188 643 110 643 c 1
 130 730 l 1
 198.666992188 730 260.166992188 721.166992188 314.5 703.5 c 0
 368.833007812 685.833007812 415 659.833007812 453 625.5 c 0
 491 591.166992188 520.166992188 548.833007812 540.5 498.5 c 0
 560.833007812 448.166992188 571 390 571 324 c 0
 571 218 547.666992188 135.833007812 501 77.5 c 0
 454.333007812 19.1669921875 386 -10 296 -10 c 0
298 92 m 0
 322.666992188 92 345.333007812 97.6669921875 366 109 c 0
 386.666992188 120.333007812 403.166992188 137.666992188 415.5 161 c 0
 427.833007812 184.333007812 434 213.333007812 434 248 c 256
 434 282.666992188 427.833007812 310.833007812 415.5 332.5 c 0
 403.166992188 354.166992188 386.833007812 370.166992188 366.5 380.5 c 0
 346.166992188 390.833007812 324 396 300 396 c 0
 264 396 233.666992188 383.5 209 358.5 c 0
 184.333007812 333.5 172 295.333007812 172 244 c 0
 172 208.666992188 177.666992188 179.833007812 189 157.5 c 0
 200.333007812 135.166992188 215.5 118.666992188 234.5 108 c 0
 253.5 97.3330078125 274.666992188 92 298 92 c 0
204 512 m 1
 163 577 l 1
 447 756 l 1
 488 691 l 1
 204 512 l 1
EndSplineSet
Validated: 5
EndChar

StartChar: dcroat
Encoding: 273 273 171
Width: 618
GlyphClass: 2
Flags: HW
HStem: -10 103<222.736 354.791> 0 21G<426 548> 417 103<222.433 358.175> 584 84<250 613> 700 20G<422 548>
VStem: 35 130<154.691 354.328> 425 123<0 111 155.745 354.902 392 720>
AnchorPoint: "Anchor-2" 309 0 basechar 0
AnchorPoint: "Anchor-1" 603 720 basechar 0
AnchorPoint: "Anchor-0" 309 738 basechar 0
LayerCount: 3
Fore
SplineSet
250 584 m 1x3e
 250 668 l 1
 613 668 l 1
 613 584 l 1
 250 584 l 1x3e
426 0 m 1x7e
 426 114 l 1
 436 111 l 1
 427.333007812 74.3330078125 406.666992188 45 374 23 c 0
 341.333007812 1 302.666992188 -10 258 -10 c 0xbe
 212.666992188 -10 173.333007812 0.8330078125 140 22.5 c 0
 106.666992188 44.1669921875 80.8330078125 74.6669921875 62.5 114 c 0
 44.1669921875 153.333007812 35 199.666992188 35 253 c 0
 35 307 44.3330078125 354 63 394 c 0
 81.6669921875 434 108 465 142 487 c 0
 176 509 216 520 262 520 c 0
 308.666992188 520 347.333007812 508.666992188 378 486 c 0
 408.666992188 463.333007812 427.666992188 432 435 392 c 1
 422 390 l 1
 422 720 l 1
 548 720 l 1
 548 0 l 1
 426 0 l 1x7e
295 93 m 0
 335 93 366.666992188 107.166992188 390 135.5 c 0
 413.333007812 163.833007812 425 203.666992188 425 255 c 0
 425 307 413.166992188 347 389.5 375 c 0
 365.833007812 403 334 417 294 417 c 0
 255.333007812 417 224.166992188 402.833007812 200.5 374.5 c 0
 176.833007812 346.166992188 165 306 165 254 c 256
 165 202 176.833007812 162.166992188 200.5 134.5 c 0
 224.166992188 106.833007812 255.666992188 93 295 93 c 0
EndSplineSet
Validated: 5
EndChar

StartChar: e
Encoding: 101 101 172
Width: 569
GlyphClass: 2
Flags: HW
HStem: -10 88.0205<217.352 364.031> 218 87<110 403> 431.729 88.2705<215.546 359.259>
VStem: 110 30<218 305>
AnchorPoint: "Anchor-3" 422 20 basechar 0
AnchorPoint: "Anchor-2" 284 0 basechar 0
AnchorPoint: "Anchor-0" 295 510 basechar 0
LayerCount: 3
Fore
SplineSet
295 -10 m 0
 141.283203125 -10 32 93.087890625 32 256 c 256
 32 414.880859375 135.924804688 520 293 520 c 0
 343 520 386.166992188 509.5 422.5 488.5 c 0
 458.833007812 467.5 487 438.166992188 507 400.5 c 0
 527 362.833007812 537 318.333007812 537 267 c 0
 537 257.666992188 536.833007812 249 536.5 241 c 0
 536.166992188 233 535.333007812 225.333007812 534 218 c 1
 110 218 l 1
 110 305 l 1
 439 305 l 1
 413 280 l 5
 413 380.146484375 365.603515625 431.729492188 293 431.729492188 c 0
 205.711914062 431.729492188 162 362.487304688 162 254 c 0
 162 145.717773438 207.318359375 78.0205078125 299 78.0205078125 c 0
 346.538085938 78.0205078125 377.125 100.086914062 396 148 c 1
 524 148 l 1
 508 99.3330078125 480.5 60.8330078125 441.5 32.5 c 0
 402.5 4.1669921875 353.666992188 -10 295 -10 c 0
EndSplineSet
Validated: 5
EndChar

StartChar: f
Encoding: 102 102 181
Width: 373
Flags: HW
HStem: 0 21G<109 234> 412 98<20 343> 626 96<253.599 353>
VStem: 109 125<0 608.464>
LayerCount: 3
Fore
SplineSet
109 0 m 1
 109 559 l 2
 109 615 124.333007812 656.166992188 155 682.5 c 0
 185.666992188 708.833007812 231.333007812 722 292 722 c 4
 323 722 323 722 353 722 c 1
 353 626 l 1
 350 626 350 626 312 626 c 0
 285.333007812 626 265.666992188 620.333007812 253 609 c 0
 240.333007812 597.666992188 234 580.333007812 234 557 c 2
 234 0 l 1
 109 0 l 1
20 412 m 1
 20 510 l 1
 343 510 l 1
 343 412 l 1
 20 412 l 1
EndSplineSet
Validated: 5
EndChar

StartChar: g
Encoding: 103 103 182
Width: 618
GlyphClass: 2
Flags: W
HStem: -169 87<188.861 383.573> 12 90<229.8 348.756> 430 90<229.8 355.916> 490 20G<429.328 552>
VStem: 35 140<163.012 367.505> 415 133<166.099 372.137> 422 9<102.667 136 391 427.667> 430 122<394 510>
AnchorPoint: "Anchor-2" 319 -159 basechar 0
AnchorPoint: "Anchor-0" 294 510 basechar 0
LayerCount: 3
Fore
SplineSet
301 -169 m 0xdc
 123.598632812 -169 57 -108.0078125 53 -29 c 5
 172 -29 l 7
 172 -82.7626953125 271.004882812 -82 298 -82 c 0
 387.333007812 -82 422 -47 422 41 c 2
 422 136 l 1
 431 140 l 1
 423 102.666992188 403 72 371 48 c 0
 339 24 300.333007812 12 255 12 c 0
 210.333007812 12 171.666992188 22.6669921875 139 44 c 0
 106.333007812 65.3330078125 80.8330078125 95 62.5 133 c 0
 44.1669921875 171 35 213.666992188 35 261 c 256
 35 313 44.5 358.333007812 63.5 397 c 0
 82.5 435.666992188 109 465.833007812 143 487.5 c 0
 177 509.166992188 217 520 263 520 c 0xea
 309.666992188 520 348 508 378 484 c 0
 408 460 426.666992188 427.666992188 434 387 c 1
 426 391 l 1
 430 510 l 1
 552 510 l 1xd9
 548 394 l 0
 548 46 l 2
 548 -46.6259765625 517.107421875 -169 301 -169 c 0xdc
296 102 m 0
 369.85546875 102 415 170.801757812 415 267 c 256xec
 415 367.666992188 373.612304688 430 294 430 c 0
 217.493164062 430 175 363.580078125 175 262 c 256
 175 167.533203125 219.796875 102 296 102 c 0
EndSplineSet
Validated: 37
EndChar

StartChar: h
Encoding: 104 104 186
Width: 609
GlyphClass: 2
Flags: HW
HStem: 0 21G<70 196 419 545> 431.729 88.2705<281.559 391.288> 700 20G<70 196>
VStem: 70 126<0 244 392 720> 419 126<0 403.243>
AnchorPoint: "Anchor-2" 298 0 basechar 0
AnchorPoint: "Anchor-0" 298 510 basechar 0
LayerCount: 3
Fore
SplineSet
419 0 m 5
 419 306 l 6
 419 397.673828125 400.6640625 431.729492188 310 431.729492188 c 4
 228 431.729492188 196 330.873046875 196 244 c 5xcc
 183 392 l 5
 199.708007812 429.42578125 212.67578125 520 374 520 c 4xd4
 428 520 470 504.666992188 500 474 c 4
 530 443.333007812 545 402.666992188 545 352 c 6
 545 0 l 5
 419 0 l 5
70 0 m 1
 70 720 l 1
 196 720 l 1
 196 0 l 1
 70 0 l 1
EndSplineSet
Validated: 5
EndChar

StartChar: hbar
Encoding: 295 295 187
Width: 609
GlyphClass: 2
Flags: HW
HStem: 0 21G<70 196 419 545> 417 103<275.843 394.482> 584 84<5 368> 700 20G<70 196>
VStem: 70 126<0 280 398 720> 419 126<0 392.377>
AnchorPoint: "Anchor-2" 298 0 basechar 0
AnchorPoint: "Anchor-0" 298 510 basechar 0
LayerCount: 3
Fore
SplineSet
5 584 m 1
 5 668 l 1
 368 668 l 1
 368 584 l 1
 5 584 l 1
70 0 m 1
 70 720 l 1
 196 720 l 1
 196 0 l 1
 70 0 l 1
419 0 m 1
 419 326 l 2
 419 356.666992188 411.333007812 379.5 396 394.5 c 0
 380.666992188 409.5 358.333007812 417 329 417 c 0
 302.333007812 417 279 411.166992188 259 399.5 c 0
 239 387.833007812 223.5 371.833007812 212.5 351.5 c 0
 201.5 331.166992188 196 307.333007812 196 280 c 1
 183 398 l 1
 199.666992188 435.333007812 224.333007812 465 257 487 c 0
 289.666992188 509 328.666992188 520 374 520 c 0
 428 520 470 504.666992188 500 474 c 0
 530 443.333007812 545 402.666992188 545 352 c 2
 545 0 l 1
 419 0 l 1
EndSplineSet
Validated: 5
EndChar

StartChar: dotlessi
Encoding: 305 305 189
Width: 266
GlyphClass: 2
Flags: HW
HStem: 0 21G<70 196> 490 20G<70 196>
VStem: 70 126<0 510>
AnchorPoint: "Anchor-3" 196 0 basechar 0
AnchorPoint: "Anchor-2" 133 0 basechar 0
AnchorPoint: "Anchor-0" 133 510 basechar 0
LayerCount: 3
Fore
SplineSet
70 0 m 1
 70 510 l 1
 196 510 l 1
 196 0 l 1
 70 0 l 1
EndSplineSet
Validated: 1
EndChar

StartChar: uni0237
Encoding: 567 567 199
Width: 266
GlyphClass: 2
Flags: HW
HStem: -167 97<-26 55.5588> 490 20G<70 196>
VStem: 70 126<-59.1676 510>
AnchorPoint: "Anchor-2" 133 -165 basechar 0
AnchorPoint: "Anchor-0" 133 510 basechar 0
LayerCount: 3
Fore
SplineSet
32 -167 m 4
 32 -167 32 -167 -26 -167 c 5
 -26 -70 l 5
 -7 -70 -7 -70 13 -70 c 4
 32.3330078125 -70 46.6669921875 -66.5 56 -59.5 c 4
 65.3330078125 -52.5 70 -39.6669921875 70 -21 c 6
 70 510 l 1
 196 510 l 1
 196 -24 l 6
 196 -71.3330078125 182.666992188 -107 156 -131 c 4
 129.333007812 -155 88 -167 32 -167 c 4
EndSplineSet
Validated: 1
EndChar

StartChar: k
Encoding: 107 107 200
Width: 579
GlyphClass: 2
Flags: HW
HStem: 0 21G<70 196 403.094 573> 490 20G<395.286 563> 706 20G<70 196>
VStem: 70 126<0 726>
AnchorPoint: "Anchor-2" 314 0 basechar 0
AnchorPoint: "Anchor-0" 279 740 basechar 0
LayerCount: 3
Fore
SplineSet
70 0 m 1
 70 726 l 1
 196 726 l 1
 196 0 l 1
 70 0 l 1
420 0 m 1
 196 265 l 1
 413 510 l 1
 563 510 l 1
 312 242 l 1
 318 289 l 1
 573 0 l 1
 420 0 l 1
EndSplineSet
Validated: 5
Substitution2: "'ss04' Style Set 4 in Latin lookup 25 subtable" k.ss04
Substitution2: "'aalt' Access All Alternates in Latin lookup 0 subtable" k.ss04
EndChar

StartChar: l
Encoding: 108 108 202
Width: 266
GlyphClass: 2
Flags: HW
HStem: 0 21G<70 196> 700 20G<70 196>
VStem: 70 126<0 720>
AnchorPoint: "Anchor-2" 133 0 basechar 0
AnchorPoint: "Anchor-1" 252 740 basechar 0
AnchorPoint: "Anchor-0" 133 740 basechar 0
LayerCount: 3
Fore
SplineSet
70 0 m 1
 70 740 l 5
 196 740 l 5
 196 0 l 1
 70 0 l 1
EndSplineSet
Validated: 1
EndChar

StartChar: lslash
Encoding: 322 322 206
Width: 299
GlyphClass: 2
Flags: HW
HStem: 0 21G<87 212> 700 20G<87 212>
VStem: 87 125<0 335 429 720> 154 58<343 429>
AnchorPoint: "Anchor-2" 150 0 basechar 0
AnchorPoint: "Anchor-1" 268 720 basechar 0
AnchorPoint: "Anchor-0" 150 720 basechar 0
LayerCount: 3
Fore
SplineSet
154 335 m 1xd0
 12 276 l 1
 12 363 l 1
 154 421 l 1
 154 335 l 1xd0
154 429 m 1
 287 485 l 1
 287 399 l 1
 154 343 l 1
 154 429 l 1
87 0 m 1xe0
 87 720 l 1
 212 720 l 1
 212 0 l 1
 87 0 l 1xe0
EndSplineSet
Validated: 5
EndChar

StartChar: m
Encoding: 109 109 207
Width: 929
Flags: HW
HStem: 0 21G<70 196 405 530 739 864> 431.729 88.2705<263.271 378.924 593.091 713.159> 490 20G<66 188.678>
VStem: 66 117<405.872 510> 70 126<0 265> 405 125<0 405.422> 739 125<0 405.422>
LayerCount: 3
Fore
SplineSet
70 0 m 5xae
 70 404 l 6xae
 70 444 68.6669921875 479.333007812 66 510 c 5xb6
 188 510 l 5
 192 392 l 5
 196 392 l 5
 196 0 l 5
 70 0 l 5xae
405 0 m 5
 405 312 l 6
 405 386.701171875 390.6796875 431.729492188 311 431.729492188 c 4
 227.745117188 431.729492188 196 352.883789062 196 265 c 5xce
 183 393 l 5
 199.620117188 430.893554688 221.03125 520 367 520 c 4xd6
 417.666992188 520 457.5 505.5 486.5 476.5 c 4
 515.5 447.5 530 409.666992188 530 363 c 6
 530 0 l 5
 405 0 l 5
739 0 m 5
 739 312 l 6
 739 386.701171875 724.6796875 431.729492188 645 431.729492188 c 4
 561.745117188 431.729492188 530 352.883789062 530 265 c 5
 508 394 l 5
 531.483398438 446.603515625 560.31640625 520 699 520 c 4
 750.333007812 520 790.666992188 505.166992188 820 475.5 c 4
 849.333007812 445.833007812 864 406.333007812 864 357 c 6
 864 0 l 5
 739 0 l 5
EndSplineSet
Validated: 5
EndChar

StartChar: n
Encoding: 110 110 208
Width: 609
GlyphClass: 2
Flags: HW
HStem: 0 21G<70 196 419 545> 431.729 88.2705<281.559 391.288> 490 20G<66 188.678>
VStem: 66 117<414.531 510> 70 126<0 244 392 495.25> 419 126<0 403.243>
AnchorPoint: "Anchor-2" 315 0 basechar 0
AnchorPoint: "Anchor-0" 328 510 basechar 0
LayerCount: 3
Fore
SplineSet
70 0 m 1xac
 70 413 l 2xac
 70 445.666992188 68.6669921875 478 66 510 c 1xb4
 188 510 l 1
 192 392 l 1
 196 392 l 1
 196 0 l 1
 70 0 l 1xac
419 0 m 5
 419 306 l 6
 419 397.673828125 400.6640625 431.729492188 310 431.729492188 c 4
 228 431.729492188 196 330.873046875 196 244 c 5xcc
 183 392 l 5
 199.708007812 429.42578125 212.67578125 520 374 520 c 4xd4
 428 520 470 504.666992188 500 474 c 4
 530 443.333007812 545 402.666992188 545 352 c 6
 545 0 l 5
 419 0 l 5
EndSplineSet
Validated: 5
EndChar

StartChar: eng
Encoding: 331 331 213
Width: 609
Flags: HW
HStem: -215 99<323.406 404.559> 0 21G<70 196> 417 103<276.272 394.482> 490 20G<70 192>
VStem: 70 126<0 280 398 510> 419 126<-102.075 392.377>
LayerCount: 3
Fore
SplineSet
381 -215 m 0xec
 369 -215 358.5 -214.166992188 349.5 -212.5 c 0
 340.5 -210.833007812 331.666992188 -209 323 -207 c 1
 323 -110 l 1
 328.333007812 -111.333007812 334.166992188 -112.666992188 340.5 -114 c 0
 346.833007812 -115.333007812 354 -116 362 -116 c 0
 381.333007812 -116 395.666992188 -111.5 405 -102.5 c 0
 414.333007812 -93.5 419 -79.6669921875 419 -61 c 2
 419 326 l 2
 419 356.666992188 411.333007812 379.5 396 394.5 c 0
 380.666992188 409.5 358 417 328 417 c 0
 302.666992188 417 280 411.166992188 260 399.5 c 0
 240 387.833007812 224.333007812 371.833007812 213 351.5 c 0
 201.666992188 331.166992188 196 307.333007812 196 280 c 1
 183 398 l 1
 199.666992188 435.333007812 224.333007812 465 257 487 c 0
 289.666992188 509 328.666992188 520 374 520 c 0
 428 520 470 504.666992188 500 474 c 0
 530 443.333007812 545 402.666992188 545 352 c 2
 545 -64 l 2
 545 -111.333007812 531.666992188 -148.333007812 505 -175 c 0
 478.333007812 -201.666992188 437 -215 381 -215 c 0xec
70 0 m 1
 70 510 l 1
 192 510 l 1xdc
 192 392 l 1
 196 392 l 1
 196 0 l 1
 70 0 l 1
EndSplineSet
Validated: 5
EndChar

StartChar: o
Encoding: 111 111 214
Width: 595
GlyphClass: 2
Flags: HW
HStem: -10 88.0205<231.885 372.873> 431.729 88.2705<232.794 374.694>
VStem: 36 129.428<152.301 358.505> 431.326 129.674<147.193 364.561>
AnchorPoint: "Anchor-3" 429 20 basechar 0
AnchorPoint: "Anchor-2" 298 0 basechar 0
AnchorPoint: "Anchor-1" 570 510 basechar 0
AnchorPoint: "Anchor-0" 298 510 basechar 0
LayerCount: 3
Fore
SplineSet
296.708984375 -10 m 0
 138.689453125 -10 36 94.6044921875 36 255.571289062 c 256
 36 416.106445312 138.885742188 520 297.865234375 520 c 256
 456.779296875 520 561 415.618164062 561 256.458007812 c 256
 561 96.146484375 455.716796875 -10 296.708984375 -10 c 0
303.016601562 78.0205078125 m 0
 385.389648438 78.0205078125 431.662109375 142.2109375 431.326171875 256.015625 c 0
 430.993164062 368.747070312 385.220703125 431.729492188 303.623046875 431.729492188 c 256
 219.106445312 431.729492188 166.06640625 364.21875 165.427734375 255.83203125 c 0
 164.784179688 146.594726562 217.846679688 78.0205078125 303.016601562 78.0205078125 c 0
EndSplineSet
Validated: 33
Substitution2: "Single Substitution lookup 17 subtable" ordmasculine
Substitution2: "'aalt' Access All Alternates in Latin lookup 0 subtable" ordmasculine
EndChar

StartChar: oslash
Encoding: 248 248 221
Width: 595
Flags: HW
HStem: -10 97<203.138 370.999> 423 97<221.234 393.026>
VStem: 32 126<154.642 355.432> 437 127<159.763 357.452>
LayerCount: 3
Fore
SplineSet
298 -10 m 0
 244.666992188 -10 198 1.3330078125 158 24 c 0
 118 46.6669921875 87 78.1669921875 65 118.5 c 0
 43 158.833007812 32 205 32 257 c 256
 32 309 43.1669921875 354.666992188 65.5 394 c 0
 87.8330078125 433.333007812 118.833007812 464.166992188 158.5 486.5 c 0
 198.166992188 508.833007812 244.666992188 520 298 520 c 256
 351.333007812 520 397.833007812 508.833007812 437.5 486.5 c 0
 477.166992188 464.166992188 508.166992188 433.333007812 530.5 394 c 0
 552.833007812 354.666992188 564 309 564 257 c 256
 564 205 552.833007812 158.833007812 530.5 118.5 c 0
 508.166992188 78.1669921875 477 46.6669921875 437 24 c 0
 397 1.3330078125 350.666992188 -10 298 -10 c 0
298 87 m 0
 325.333007812 87 349.333007812 93.8330078125 370 107.5 c 0
 390.666992188 121.166992188 407 140.833007812 419 166.5 c 0
 431 192.166992188 437 222.666992188 437 258 c 0
 437 310 424.166992188 350.5 398.5 379.5 c 0
 372.833007812 408.5 339.333007812 423 298 423 c 0
 256 423 222.166992188 408.5 196.5 379.5 c 0
 170.833007812 350.5 158 310 158 258 c 0
 158 222.666992188 164 192.166992188 176 166.5 c 0
 188 140.833007812 204.333007812 121.166992188 225 107.5 c 0
 245.666992188 93.8330078125 270 87 298 87 c 0
94 -13 m 1
 34 45 l 1
 501 523 l 1
 561 465 l 1
 94 -13 l 1
EndSplineSet
Validated: 5
EndChar

StartChar: oe
Encoding: 339 339 223
Width: 935
Flags: HW
HStem: -10 101<221.139 355.473> -10 94<600.843 740.038> 218 87<496 781> 419 101<219.497 356.208> 426 94<600.28 734.878>
VStem: 32 130<157.615 355.552> 422 121<210.333 300> 496 37<219.094 303.895>
LayerCount: 3
Fore
SplineSet
288 -10 m 0xb5
 238 -10 193.666992188 1.3330078125 155 24 c 0
 116.333007812 46.6669921875 86.1669921875 78.1669921875 64.5 118.5 c 0
 42.8330078125 158.833007812 32 205 32 257 c 256
 32 309 43 354.666992188 65 394 c 0
 87 433.333007812 117.166992188 464.166992188 155.5 486.5 c 0
 193.833007812 508.833007812 238 520 288 520 c 256
 338 520 381.333007812 508.833007812 418 486.5 c 0
 454.666992188 464.166992188 483 433.333007812 503 394 c 0
 523 354.666992188 533 309 533 257 c 256
 533 205 523 158.833007812 503 118.5 c 0
 483 78.1669921875 454.5 46.6669921875 417.5 24 c 0
 380.5 1.3330078125 337.333007812 -10 288 -10 c 0xb5
288 91 m 0
 312.666992188 91 334.333007812 97.6669921875 353 111 c 0
 371.666992188 124.333007812 386.333007812 143.5 397 168.5 c 0
 407.666992188 193.5 413 223.333007812 413 258 c 0
 413 292 407.666992188 321 397 345 c 0
 386.333007812 369 371.666992188 387.333007812 353 400 c 0
 334.333007812 412.666992188 312.666992188 419 288 419 c 256
 263.333007812 419 241.666992188 412.666992188 223 400 c 0
 204.333007812 387.333007812 189.5 369 178.5 345 c 0
 167.5 321 162 292 162 258 c 0
 162 223.333007812 167.5 193.5 178.5 168.5 c 0
 189.5 143.5 204.5 124.333007812 223.5 111 c 0
 242.5 97.6669921875 264 91 288 91 c 0
671 -10 m 0x6e
 621.666992188 -10 578.166992188 1.3330078125 540.5 24 c 0
 502.833007812 46.6669921875 473.666992188 77.8330078125 453 117.5 c 0
 432.333007812 157.166992188 422 203.333007812 422 256 c 256x6e
 422 308.666992188 432.333007812 354.833007812 453 394.5 c 0
 473.666992188 434.166992188 502.666992188 465 540 487 c 0
 577.333007812 509 620.333007812 520 669 520 c 0
 715.666992188 520 756.5 509.5 791.5 488.5 c 0
 826.5 467.5 853.833007812 438.166992188 873.5 400.5 c 0
 893.166992188 362.833007812 903 318.333007812 903 267 c 0
 903 257.666992188 902.666992188 249 902 241 c 0
 901.333007812 233 900.666992188 225.333007812 900 218 c 1
 496 218 l 1
 496 305 l 1x6d
 805 305 l 1
 781 280 l 1
 781 328.666992188 770.833007812 365.166992188 750.5 389.5 c 0
 730.166992188 413.833007812 703.333007812 426 670 426 c 0
 644.666992188 426 622.333007812 419.5 603 406.5 c 0
 583.666992188 393.5 568.833007812 374.166992188 558.5 348.5 c 0
 548.166992188 322.833007812 543 291.333007812 543 254 c 0
 543 217.333007812 548.166992188 186.333007812 558.5 161 c 0
 568.833007812 135.666992188 583.666992188 116.5 603 103.5 c 0
 622.333007812 90.5 645.333007812 84 672 84 c 0
 693.333007812 84 713 89.1669921875 731 99.5 c 0
 749 109.833007812 762 126 770 148 c 1
 890 148 l 1
 874 99.3330078125 847 60.8330078125 809 32.5 c 0
 771 4.1669921875 725 -10 671 -10 c 0x6e
EndSplineSet
Validated: 5
EndChar

StartChar: p
Encoding: 112 112 224
Width: 618
Flags: HW
HStem: -10 87.2705<268.124 389.904> 430.979 89.0205<265.545 389.168>
VStem: 62 117<444.385 509> 70 126<143.541 365.005> 187 9<79.667 113> 453 130<149.692 357.64>
LayerCount: 3
Fore
SplineSet
356 520 m 0xcc
 309.333007812 520 270.666992188 506.333007812 240 481 c 0
 209.333007812 455.666992188 190.333007812 423 183 383 c 1
 192 389 l 1
 179 510 l 5
 62 510 l 5xec
 67 396 70 475 70 272 c 0
 70 -158.5 l 1xd4
 196 -158.5 l 1
 196 113 l 1
 187 117 l 1
 195.666992188 79.6669921875 215.833007812 49 247.5 25 c 0
 279.166992188 1 318 -10 364 -10 c 0
 408.666992188 -10 447.333007812 -0.1669921875 480 21.5 c 0
 512.666992188 43.1669921875 538 73.6669921875 556 113 c 0
 574 152.333007812 583 198.666992188 583 252 c 0
 583 306 573.666992188 353 555 393 c 0
 536.333007812 433 510 464 476 486 c 0
 442 508 402 520 356 520 c 0xcc
323 430.979492188 m 0
 403.811523438 430.979492188 453 355.110351562 453 253 c 256
 453 151.879882812 404.650390625 77.2705078125 323 77.2705078125 c 256
 242.116210938 77.2705078125 193 153.20703125 193 254 c 0
 193 355.856445312 240.634765625 430.979492188 323 430.979492188 c 0
EndSplineSet
Validated: 5
EndChar

StartChar: thorn
Encoding: 254 254 225
Width: 618
Flags: HW
HStem: -10 103<260.521 396.229> 417 103<263.762 396.355> 700 20G<70 196>
VStem: 70 126<-205 118 149.004 360.376 399 720> 453 130<154.891 355.309>
LayerCount: 3
Fore
SplineSet
356 -10 m 0
 309.333007812 -10 271 1.3330078125 241 24 c 0
 211 46.6669921875 192.333007812 78 185 118 c 1
 196 120 l 1
 196 -205 l 1
 70 -205 l 1
 70 720 l 1
 196 720 l 1
 196 396 l 1
 183 399 l 1
 191.666992188 436.333007812 212.333007812 465.833007812 245 487.5 c 0
 277.666992188 509.166992188 317.333007812 520 364 520 c 0
 408.666992188 520 447.333007812 509.166992188 480 487.5 c 0
 512.666992188 465.833007812 538 435.333007812 556 396 c 0
 574 356.666992188 583 310.333007812 583 257 c 0
 583 203 573.666992188 156 555 116 c 0
 536.333007812 76 510 45 476 23 c 0
 442 1 402 -10 356 -10 c 0
324 93 m 0
 364 93 395.5 107.166992188 418.5 135.5 c 0
 441.5 163.833007812 453 204 453 256 c 256
 453 308 441.333007812 347.833007812 418 375.5 c 0
 394.666992188 403.166992188 363 417 323 417 c 256
 283 417 251.333007812 402.833007812 228 374.5 c 0
 204.666992188 346.166992188 193 306.333007812 193 255 c 0
 193 203 204.666992188 163 228 135 c 0
 251.333007812 107 283.333007812 93 324 93 c 0
EndSplineSet
Validated: 5
EndChar

StartChar: q
Encoding: 113 113 226
Width: 618
Flags: HW
HStem: -10 87.9521<228.096 349.876> 431.661 88.3389<229.216 351.387> 489.932 20G<436.015 555>
VStem: 35 130<149.808 357.755> 422 126<-158.5 -158.5 143.803 365.266> 422 9<79.667 113> 438 117<439.388 509.932>
LayerCount: 3
Fore
SplineSet
262 520 m 0xd4
 308.666992188 520 347.333007812 506.333007812 378 481 c 0
 408.666992188 455.666992188 427.666992188 423 435 383 c 1
 426 389 l 1
 438 509.931640625 l 1
 555 509.931640625 l 1xb6
 550 395.931640625 548 475 548 272 c 0
 548 -158.5 l 1
 422 -158.5 l 1xb8
 422 113 l 1
 431 117 l 1
 422.333007812 79.6669921875 402.166992188 49 370.5 25 c 0
 338.833007812 1 300 -10 254 -10 c 0
 209.333007812 -10 170.666992188 -0.1669921875 138 21.5 c 0
 105.333007812 43.1669921875 80 73.6669921875 62 113 c 0
 44 152.333007812 35 198.666992188 35 252 c 0
 35 306 44.3330078125 353 63 393 c 0
 81.6669921875 433 108 464 142 486 c 0
 176 508 216 520 262 520 c 0xd4
296 431.661132812 m 0xd0
 215.188476562 431.661132812 165 355.110351562 165 253 c 256
 165 151.879882812 213.349609375 77.9521484375 295 77.9521484375 c 256
 375.883789062 77.9521484375 425 153.20703125 425 254 c 0
 425 355.856445312 378.365234375 431.661132812 296 431.661132812 c 0xd0
EndSplineSet
Validated: 5
EndChar

StartChar: r
Encoding: 114 114 227
Width: 393
GlyphClass: 2
Flags: HW
HStem: 0 21G<70 196> 400 120<262.914 371.716> 490 20G<70 192>
VStem: 70 126<0 269 387 510>
AnchorPoint: "Anchor-2" 131 0 basechar 0
AnchorPoint: "Anchor-0" 217 510 basechar 0
LayerCount: 3
Fore
SplineSet
70 0 m 1xb0
 70 510 l 1
 192 510 l 1
 192 387 l 1
 196 387 l 1
 196 0 l 1
 70 0 l 1xb0
196 269 m 1
 183 382 l 5
 195 425.333007812 214.833007812 459.166992188 242.5 483.5 c 0
 270.166992188 507.833007812 303.666992188 520 343 520 c 0
 356.333007812 520 366 518.666992188 372 516 c 1
 372 398 l 1
 368.666992188 398.666992188 364.166992188 399.166992188 358.5 399.5 c 0
 352.833007812 399.833007812 345.666992188 400 337 400 c 0xd0
 289.666992188 400 254.333007812 389.5 231 368.5 c 0
 207.666992188 347.5 196 314.333007812 196 269 c 1
EndSplineSet
Validated: 5
EndChar

StartChar: s
Encoding: 115 115 231
Width: 492
GlyphClass: 2
Flags: HW
HStem: -10 88<178.186 334.434> 432 88<181.229 320.206>
VStem: 29 113<109.906 158> 51 113<343.36 417.456> 355 113<95.632 175.958>
AnchorPoint: "Anchor-2" 258 0 basechar 0
AnchorPoint: "Anchor-0" 247 510 basechar 0
LayerCount: 3
Fore
SplineSet
260 -10 m 0xd8
 191.333007812 -10 136.666992188 4.8330078125 96 34.5 c 0
 55.3330078125 64.1669921875 33 105.333007812 29 158 c 1
 142 158 l 1xe8
 145.333007812 132 157.166992188 112.166992188 177.5 98.5 c 0
 197.833007812 84.8330078125 225.666992188 78 261 78 c 4
 292.333007812 78 315.833007812 83.1669921875 331.5 93.5 c 0
 347.166992188 103.833007812 355 118.666992188 355 138 c 0
 355 152 350.333007812 163.666992188 341 173 c 0
 331.666992188 182.333007812 314.333007812 190 289 196 c 2
 209 216 l 2
 155 229.333007812 115.166992188 248.5 89.5 273.5 c 0
 63.8330078125 298.5 51 330.333007812 51 369 c 0
 51 415.666992188 68.6669921875 452.5 104 479.5 c 0
 139.333007812 506.5 188 520 250 520 c 256
 312 520 361.5 506.5 398.5 479.5 c 0
 435.5 452.5 456 415.333007812 460 368 c 1
 347 368 l 1
 343.666992188 388.666992188 333.666992188 404.5 317 415.5 c 0
 300.333007812 426.5 277.333007812 432 248 432 c 0
 220.666992188 432 199.833007812 427.333007812 185.5 418 c 0
 171.166992188 408.666992188 164 395.666992188 164 379 c 0
 164 365.666992188 169.5 354.333007812 180.5 345 c 0
 191.5 335.666992188 210 327.666992188 236 321 c 2
 322 299 l 2
 370 287.666992188 406.333007812 268.166992188 431 240.5 c 0
 455.666992188 212.833007812 468 180 468 142 c 0
 468 94 449.833007812 56.6669921875 413.5 30 c 0
 377.166992188 3.3330078125 326 -10 260 -10 c 0xd8
EndSplineSet
Validated: 1
EndChar

StartChar: germandbls
Encoding: 223 223 236
Width: 628
Flags: HW
HStem: -10 101<267.408 418.121> 0 21G<70 196> 327 99<277 373.296> 370 21<376 408> 631 99<242.002 386.677>
VStem: 70 126<0 584.208> 424 130<461.989 593.916> 461 131<132.555 278.435>
LayerCount: 3
Fore
SplineSet
347 -10 m 0x9d
 329.666992188 -10 314.166992188 -8.8330078125 300.5 -6.5 c 0
 286.833007812 -4.1669921875 275.666992188 -1 267 3 c 1
 267 100 l 1
 275.666992188 97.3330078125 285.166992188 95.1669921875 295.5 93.5 c 0
 305.833007812 91.8330078125 317 91 329 91 c 0
 374.333007812 91 407.666992188 101 429 121 c 0
 450.333007812 141 461 169.666992188 461 207 c 0x9d
 461 243 449.166992188 272 425.5 294 c 0
 401.833007812 316 368.666992188 327 326 327 c 2
 277 327 l 1
 277 426 l 1
 318 426 l 2
 338 426 356 430 372 438 c 0
 388 446 400.666992188 457.5 410 472.5 c 0
 419.333007812 487.5 424 505 424 525 c 0
 424 557.666992188 414.333007812 583.5 395 602.5 c 0
 375.666992188 621.5 348.666992188 631 314 631 c 0
 276 631 246.833007812 619.333007812 226.5 596 c 0
 206.166992188 572.666992188 196 537.666992188 196 491 c 2
 196 0 l 1
 70 0 l 1
 70 488 l 2
 70 561.333007812 90.8330078125 620 132.5 664 c 0
 174.166992188 708 235.333007812 730 316 730 c 0
 364.666992188 730 406.666992188 721.833007812 442 705.5 c 0
 477.333007812 689.166992188 504.833007812 666.5 524.5 637.5 c 0
 544.166992188 608.5 554 575 554 537 c 0x6e
 554 502.333007812 546.166992188 472.5 530.5 447.5 c 0
 514.833007812 422.5 493.333007812 403.333007812 466 390 c 0
 438.666992188 376.666992188 408 370 374 370 c 1
 376 391 l 1
 422 391 461 382.5 493 365.5 c 0
 525 348.5 549.5 325.5 566.5 296.5 c 0
 583.5 267.5 592 234.333007812 592 197 c 0
 592 155 581.833007812 118.5 561.5 87.5 c 0
 541.166992188 56.5 512.666992188 32.5 476 15.5 c 0
 439.333007812 -1.5 396.333007812 -10 347 -10 c 0x9d
EndSplineSet
Validated: 5
EndChar

StartChar: t
Encoding: 116 116 237
Width: 407
GlyphClass: 2
Flags: W
HStem: 0 93.0205<247.789 375> 412 98<20 376>
VStem: 115 126<104.464 624>
AnchorPoint: "Anchor-2" 262 0 basechar 0
AnchorPoint: "Anchor-1" 318 786 basechar 0
AnchorPoint: "Anchor-0" 162 510 basechar 0
LayerCount: 3
Fore
SplineSet
295 0 m 0
 155.880859375 0 115 44.4287109375 115 164 c 2
 115 624 l 1
 241 692 l 1
 241 162 l 2
 241 100 250.749023438 96.447265625 321 93.0205078125 c 6
 321 93.0205078125 321 93.0205078125 375 93.0205078125 c 5
 376 0 l 1
 335 0 335 0 295 0 c 0
20 412 m 1
 20 510 l 1
 376 510 l 1
 376 412 l 1
 20 412 l 1
EndSplineSet
Validated: 5
EndChar

StartChar: u
Encoding: 117 117 240
Width: 601
GlyphClass: 2
Flags: HW
HStem: -10 103<213.538 322.687> 0 21G<412.322 534> 490 20G<64 190 405 530>
VStem: 64 126<116.553 510> 405 125<14.75 118 230 510> 413 121<0 106>
AnchorPoint: "Anchor-3" 534 0 basechar 0
AnchorPoint: "Anchor-2" 301 0 basechar 0
AnchorPoint: "Anchor-1" 576 510 basechar 0
AnchorPoint: "Anchor-0" 301 510 basechar 0
LayerCount: 3
Fore
SplineSet
231 -10 m 0xb8
 197 -10 167.5 -2.6669921875 142.5 12 c 0
 117.5 26.6669921875 98.1669921875 46.6669921875 84.5 72 c 4
 70.8330078125 97.3330078125 64 126 64 158 c 2
 64 510 l 1
 190 510 l 1
 190 184 l 2
 190 160.97265625 198.499023438 78.0205078125 283 78.0205078125 c 0
 365 78.0205078125 405 187.1875 405 280 c 5
 418 116 l 1
 401.333007812 79.3330078125 376.833007812 49.1669921875 344.5 25.5 c 0
 312.166992188 1.8330078125 274.333007812 -10 231 -10 c 0xb8
413 0 m 1x74
 409 118 l 1
 405 118 l 1
 405 510 l 1
 530 510 l 1
 530 106 l 1x78
 530 110 531.333007812 74.6669921875 534 0 c 1
 413 0 l 1x74
EndSplineSet
Validated: 37
EndChar

StartChar: v
Encoding: 118 118 250
Width: 536
Flags: HW
HStem: 0 21G<201.235 334.765> 490 20G<11 151.738 388.305 525>
LayerCount: 3
Fore
SplineSet
209 0 m 1
 11 510 l 1
 145 510 l 1
 302 44 l 1
 239 44 l 1
 395 510 l 1
 525 510 l 1
 327 0 l 1
 209 0 l 1
EndSplineSet
Validated: 5
EndChar

StartChar: w
Encoding: 119 119 251
Width: 797
GlyphClass: 2
Flags: HW
HStem: 0 21G<168.039 297.91 499.142 628.961> 490 20G<22 167.648 337.256 463.796 633.405 775>
AnchorPoint: "Anchor-2" 399 0 basechar 0
AnchorPoint: "Anchor-0" 399 510 basechar 0
LayerCount: 3
Fore
SplineSet
174 0 m 1
 22 510 l 1
 163 510 l 1
 252 127 l 1
 233 127 l 1
 343 510 l 1
 458 510 l 1
 569 127 l 1
 550 127 l 5
 638 510 l 5
 775 510 l 1
 623 0 l 1
 505 0 l 1
 394 379 l 1
 404 379 l 1
 292 0 l 1
 174 0 l 1
EndSplineSet
Validated: 5
EndChar

StartChar: x
Encoding: 120 120 256
Width: 582
Flags: HW
HStem: 0 21G<31 182.057 397.579 552> 490 20G<52 206.237 393.305 544>
LayerCount: 3
Fore
SplineSet
411 0 m 1
 258 228 l 1
 52 510 l 1
 193 510 l 1
 330 303 l 1
 552 0 l 1
 411 0 l 1
268 307 m 1
 407 510 l 1
 544 510 l 1
 329 218 l 1
 268 307 l 1
317 212 m 1
 168 0 l 1
 31 0 l 1
 257 302 l 1
 317 212 l 1
EndSplineSet
Validated: 5
EndChar

StartChar: y
Encoding: 65573 -1 257
Width: 543
GlyphClass: 2
Flags: HW
HStem: -207 103<68 161.042> 490 20G<17 158.35 399.953 532>
AnchorPoint: "Anchor-2" 269 0 basechar 0
AnchorPoint: "Anchor-0" 271 510 basechar 0
LayerCount: 3
Fore
SplineSet
127 -207 m 0
 97 -207 97 -207 68 -207 c 1
 68 -104 l 1
 89 -104 89 -104 111 -104 c 0
 135 -104 151.833007812 -100.333007812 161.5 -93 c 0
 174.543945312 -82.966796875 185.709960938 -65.2998046875 195 -40 c 2
 242 88 l 1
 271 124 l 1
 407 510 l 1
 532 510 l 1
 294 -90 l 2
 282.666992188 -118.666992188 269.166992188 -142.333007812 253.5 -161 c 0
 237.833007812 -179.666992188 219.666992188 -192 199 -198 c 0
 178.333007812 -204 154.333007812 -207 127 -207 c 0
220 4 m 1
 17 510 l 1
 151 510 l 1
 316 61 l 1
 220 4 l 1
EndSplineSet
Validated: 5
Substitution2: "'calt' Contextual Alternates in Latin lookup 24 subtable" y.ss03
Substitution2: "'aalt' Access All Alternates in Latin lookup 0 subtable" y.ss03
EndChar

StartChar: z
Encoding: 122 122 262
Width: 512
GlyphClass: 2
Flags: HW
HStem: 0 78.0205<179 466> 429.729 80.2705<60 335>
AnchorPoint: "Anchor-2" 256 0 basechar 0
AnchorPoint: "Anchor-0" 256 510 basechar 0
LayerCount: 3
Fore
SplineSet
51 0 m 1
 51 88 l 1
 335 457 l 1
 364 429.729492188 l 5
 60 429.729492188 l 5
 60 510 l 1
 461 510 l 1
 461 423 l 1
 179 57 l 1
 153 78.0205078125 l 1
 467 78.0205078125 l 1
 466 0 l 1
 51 0 l 1
EndSplineSet
Validated: 5
EndChar

StartChar: a.ss02
Encoding: 65601 -1 289
Width: 618
GlyphClass: 2
Flags: HW
HStem: -10 103<221.419 355.116> 0 21G<426 548> 417 103<221.771 358.506> 490 20G<426 548>
VStem: 35 130<154.691 355.109> 426 122<0 111 157.317 353.335 392 510>
AnchorPoint: "Anchor-3" 548 0 basechar 0
AnchorPoint: "Anchor-2" 309 0 basechar 0
AnchorPoint: "Anchor-0" 309 510 basechar 0
LayerCount: 3
Fore
SplineSet
258 -10 m 0x8c
 212.666992188 -10 173.333007812 0.8330078125 140 22.5 c 0
 106.666992188 44.1669921875 80.8330078125 74.6669921875 62.5 114 c 0
 44.1669921875 153.333007812 35 199.666992188 35 253 c 0
 35 307 44.3330078125 354 63 394 c 0
 81.6669921875 434 108 465 142 487 c 0
 176 509 216 520 262 520 c 0xac
 308.666992188 520 347.333007812 508.666992188 378 486 c 0
 408.666992188 463.333007812 427.666992188 432 435 392 c 1
 426 390 l 1
 426 510 l 1
 548 510 l 1
 548 0 l 1
 426 0 l 1x5c
 426 114 l 1
 436 111 l 1
 427.333007812 74.3330078125 406.666992188 45 374 23 c 0
 341.333007812 1 302.666992188 -10 258 -10 c 0x8c
295 93 m 0
 335.666992188 93 367.5 107.166992188 390.5 135.5 c 0
 413.5 163.833007812 425 203.666992188 425 255 c 0
 425 307 413.333007812 347 390 375 c 0
 366.666992188 403 334.666992188 417 294 417 c 0
 254 417 222.5 402.833007812 199.5 374.5 c 0
 176.5 346.166992188 165 306 165 254 c 256
 165 202 176.666992188 162.166992188 200 134.5 c 0
 223.333007812 106.833007812 255 93 295 93 c 0
EndSplineSet
Validated: 5
EndChar

StartChar: y.ss03
Encoding: 121 121 300
Width: 536
GlyphClass: 2
Flags: HW
HStem: 490 20G<11 154.309 385.723 525>
AnchorPoint: "Anchor-2" 269 0 basechar 0
AnchorPoint: "Anchor-0" 269 510 basechar 0
LayerCount: 3
Fore
SplineSet
123 -158.5 m 1
 231 91 l 1
 254 128 l 1
 393 510 l 1
 525 510 l 1
 249 -158.5 l 1
 123 -158.5 l 1
231 18 m 5
 11 510 l 1
 147 510 l 1
 332 67 l 5
 231 18 l 5
EndSplineSet
Validated: 5
EndChar

StartChar: k.ss04
Encoding: 65612 -1 305
Width: 557
GlyphClass: 2
Flags: HW
HStem: 0 21G<70 196 392.259 545> 490 20G<366.4 531> 700 20G<70 196>
VStem: 70 126<0 131 235 720>
AnchorPoint: "Anchor-2" 286 0 basechar 0
AnchorPoint: "Anchor-0" 279 740 basechar 0
LayerCount: 3
Fore
SplineSet
70 0 m 1
 70 720 l 1
 196 720 l 1
 196 0 l 1
 70 0 l 1
142 235 m 1
 384 510 l 1
 531 510 l 1
 320 276 l 1
 311 275 l 1
 177 131 l 1
 142 235 l 1
337 315 m 1
 545 0 l 1
 405 0 l 1
 233 270 l 1
 337 315 l 1
EndSplineSet
Validated: 5
EndChar

StartChar: f_f_i
Encoding: 65617 -1 310
Width: 942
GlyphClass: 3
LigCaretCntFixed: 1
Flags: HW
HStem: 0 21G<109 234 429 554 749 874> 412 98<20 788> 587 133<747 877> 624 106<253.083 351.594 573.083 671.594>
VStem: 109 125<0 604.402> 429 125<0 604.402> 749 125<0 412 587 720> 749 39<412 510>
LayerCount: 3
Fore
SplineSet
109 0 m 1xdc
 109 559 l 2
 109 615 124.333007812 657.5 155 686.5 c 0
 185.666992188 715.5 231 730 291 730 c 0
 305 730 316.5 729.333007812 325.5 728 c 0
 334.5 726.666992188 343.333007812 724.666992188 352 722 c 1
 352 618 l 1
 347.333007812 620 341.5 621.5 334.5 622.5 c 0
 327.5 623.5 319.333007812 624 310 624 c 0
 284 624 264.833007812 617.666992188 252.5 605 c 0
 240.166992188 592.333007812 234 574 234 550 c 2
 234 0 l 1
 109 0 l 1xdc
429 0 m 1
 429 559 l 2
 429 615 444.333007812 657.5 475 686.5 c 0
 505.666992188 715.5 551 730 611 730 c 0
 624.333007812 730 635.666992188 729.333007812 645 728 c 0
 654.333007812 726.666992188 663.333007812 724.666992188 672 722 c 1
 672 618 l 1
 667.333007812 620 661.5 621.5 654.5 622.5 c 0
 647.5 623.5 639.333007812 624 630 624 c 0
 604 624 584.833007812 617.666992188 572.5 605 c 0
 560.166992188 592.333007812 554 574 554 550 c 2
 554 0 l 1
 429 0 l 1
749 0 m 1xce
 749 510 l 1xcd
 874 510 l 1
 874 0 l 1
 749 0 l 1xce
20 412 m 1
 20 510 l 1
 788 510 l 1
 788 412 l 1
 20 412 l 1
747 587 m 1xec
 747 720 l 1
 877 720 l 1
 877 587 l 1
 747 587 l 1xec
EndSplineSet
Validated: 5
Substitution2: "'ss01' Style Set 1 in Latin lookup 22 subtable" f_f_i.ss01
Ligature2: "'liga' Standard Ligatures in Latin lookup 21 subtable" f f i
Substitution2: "'aalt' Access All Alternates in Latin lookup 0 subtable" f_f_i.ss01
LCarets2: 2 311 621
EndChar

StartChar: f_f_l
Encoding: 65618 -1 311
Width: 945
GlyphClass: 3
LigCaretCntFixed: 1
Flags: HW
HStem: 0 21G<109 234 429 554 749 874> 405 105<20 653> 614 106<253.599 352.594 573.599 811>
VStem: 109 125<0 594.402> 429 125<0 594.402> 749 125<0 614> 749 62<614 720>
LayerCount: 3
Fore
SplineSet
429 0 m 1xfa
 429 549 l 2
 429 605 444.333007812 647.5 475 676.5 c 0
 505.666992188 705.5 551.666992188 720 613 720 c 2
 811 720 l 1
 811 614 l 1
 631 614 l 2
 605 614 585.666992188 607.666992188 573 595 c 0
 560.333007812 582.333007812 554 564 554 540 c 2
 554 0 l 1
 429 0 l 1xfa
109 0 m 1
 109 549 l 2
 109 605 124.333007812 647.5 155 676.5 c 0
 185.666992188 705.5 231.333007812 720 292 720 c 0
 305.333007812 720 316.666992188 719.333007812 326 718 c 0
 335.333007812 716.666992188 344.333007812 714.666992188 353 712 c 1
 353 608 l 1
 348.333007812 610 342.5 611.5 335.5 612.5 c 0
 328.5 613.5 320.333007812 614 311 614 c 0
 285 614 265.666992188 607.666992188 253 595 c 0
 240.333007812 582.333007812 234 564 234 540 c 2
 234 0 l 1
 109 0 l 1
20 405 m 1
 20 510 l 1
 653 510 l 1
 653 405 l 1
 20 405 l 1
749 0 m 1xfc
 749 720 l 1xfa
 874 720 l 1
 874 0 l 1
 749 0 l 1xfc
EndSplineSet
Validated: 5
Ligature2: "'liga' Standard Ligatures in Latin lookup 21 subtable" f f l
LCarets2: 2 312 623
EndChar

StartChar: f_i
Encoding: 65619 -1 312
Width: 609
GlyphClass: 3
LigCaretCntFixed: 1
Flags: HW
HStem: 0 21G<109 234 429 554> 405 105<20 468> 587 133<427 557> 624 106<253.083 351.594>
VStem: 109 125<0 604.402> 429 125<0 405 587 720> 429 39<405 510>
AnchorPoint: "Anchor-5" 155 0 baselig 0
AnchorPoint: "Anchor-4" 155 740 baselig 0
AnchorPoint: "Anchor-5" 454 0 baselig 1
AnchorPoint: "Anchor-4" 454 740 baselig 1
LayerCount: 3
Fore
SplineSet
109 0 m 1xd8
 109 559 l 2
 109 615 124.333007812 657.5 155 686.5 c 0
 185.666992188 715.5 231 730 291 730 c 0
 304.333007812 730 315.666992188 729.333007812 325 728 c 0
 334.333007812 726.666992188 343.333007812 724.666992188 352 722 c 1
 352 618 l 1
 347.333007812 620 341.5 621.5 334.5 622.5 c 0
 327.5 623.5 319.333007812 624 310 624 c 0
 284 624 264.833007812 617.666992188 252.5 605 c 0
 240.166992188 592.333007812 234 574 234 550 c 2
 234 0 l 1
 109 0 l 1xd8
429 0 m 1xcc
 429 510 l 1xca
 554 510 l 1
 554 0 l 1
 429 0 l 1xcc
20 405 m 1
 20 510 l 1
 468 510 l 1
 468 405 l 1
 20 405 l 1
427 587 m 1xe8
 427 720 l 1
 557 720 l 1
 557 587 l 1
 427 587 l 1xe8
EndSplineSet
Validated: 5
Substitution2: "'ss01' Style Set 1 in Latin lookup 22 subtable" f_i.ss01
Ligature2: "'liga' Standard Ligatures in Latin lookup 21 subtable" f i
Substitution2: "'aalt' Access All Alternates in Latin lookup 0 subtable" f_i.ss01
LCarets2: 1 300
EndChar

StartChar: f_l
Encoding: 65620 -1 313
Width: 625
GlyphClass: 3
LigCaretCntFixed: 1
Flags: HW
HStem: 0 21G<109 234 429 554> 405 105<20 333> 614 106<253.599 491>
VStem: 109 125<0 594.402> 429 125<0 614> 429 62<614 720>
AnchorPoint: "Anchor-5" 159 0 baselig 0
AnchorPoint: "Anchor-4" 159 740 baselig 0
AnchorPoint: "Anchor-5" 466 0 baselig 1
AnchorPoint: "Anchor-4" 466 740 baselig 1
LayerCount: 3
Fore
SplineSet
109 0 m 1xf4
 109 549 l 2
 109 605 124.333007812 647.5 155 676.5 c 0
 185.666992188 705.5 231.666992188 720 293 720 c 2
 491 720 l 1
 491 614 l 1
 311 614 l 2
 285 614 265.666992188 607.666992188 253 595 c 0
 240.333007812 582.333007812 234 564 234 540 c 2
 234 0 l 1
 109 0 l 1xf4
20 405 m 1
 20 510 l 1
 333 510 l 1
 333 405 l 1
 20 405 l 1
429 0 m 1xf8
 429 720 l 1xf4
 554 720 l 1
 554 0 l 1
 429 0 l 1xf8
EndSplineSet
Validated: 5
Ligature2: "'liga' Standard Ligatures in Latin lookup 21 subtable" f l
LCarets2: 1 308
EndChar

StartChar: w_w_w.liga
Encoding: 65621 -1 314
Width: 2103
GlyphClass: 3
LigCaretCntFixed: 1
Flags: HW
HStem: 0 21G<168.039 297.91 499.142 623.91 825.142 950.858 1152.14 1276.91 1478.14 1603.91 1805.14 1934> 490 20G<22 157.648 337.256 463.796 664.256 789.796 990.26 1115.85 1317.2 1442.8 1643.26 1768.85 1949.35 2081>
AnchorPoint: "Anchor-5" 354 0 baselig 0
AnchorPoint: "Anchor-4" 354 510 baselig 0
AnchorPoint: "Anchor-5" 1051 0 baselig 1
AnchorPoint: "Anchor-4" 1051 510 baselig 1
AnchorPoint: "Anchor-5" 1749 0 baselig 2
AnchorPoint: "Anchor-4" 1749 510 baselig 2
LayerCount: 3
Fore
SplineSet
174 0 m 1
 22 510 l 1
 153 510 l 1
 242 127 l 1
 233 127 l 1
 343 510 l 1
 458 510 l 1
 569 127 l 1
 560 127 l 1
 670 510 l 1
 784 510 l 1
 895 127 l 1
 886 127 l 1
 996 510 l 1
 1110 510 l 1
 1222 127 l 1
 1212 127 l 1
 1323 510 l 1
 1437 510 l 1
 1548 127 l 1
 1539 127 l 1
 1649 510 l 1
 1763 510 l 1
 1875 127 l 1
 1865 127 l 1
 1954 510 l 1
 2081 510 l 1
 1928 0 l 1
 1811 0 l 1
 1700 379 l 1
 1710 379 l 1
 1598 0 l 1
 1484 0 l 1
 1373 379 l 1
 1383 379 l 1
 1271 0 l 1
 1158 0 l 1
 1047 379 l 1
 1056 379 l 1
 945 0 l 1
 831 0 l 1
 720 379 l 1
 730 379 l 1
 618 0 l 1
 505 0 l 1
 394 379 l 1
 404 379 l 1
 292 0 l 1
 174 0 l 1
EndSplineSet
Validated: 5
Ligature2: "'liga' Standard Ligatures in Latin lookup 21 subtable" w w w
LCarets2: 2 698 1395
EndChar

StartChar: f_f_i.ss01
Encoding: 65622 -1 315
Width: 939
GlyphClass: 3
LigCaretCntFixed: 1
Flags: HW
HStem: 0 21G<109 234 429 554 749 874> 405 105<20 788> 577 152<760.205 864.826> 624 106<253.083 351.594 573.083 671.594>
VStem: 109 125<0 604.402> 429 125<0 604.402> 737 150<600.205 707.341> 749 125<0 405> 749 39<405 510>
AnchorPoint: "Anchor-5" 160 0 baselig 0
AnchorPoint: "Anchor-4" 160 740 baselig 0
AnchorPoint: "Anchor-5" 470 0 baselig 1
AnchorPoint: "Anchor-4" 470 740 baselig 1
AnchorPoint: "Anchor-5" 779 0 baselig 2
AnchorPoint: "Anchor-4" 779 740 baselig 2
LayerCount: 3
Fore
SplineSet
429 0 m 1xdc
 429 559 l 2
 429 615 444.333007812 657.5 475 686.5 c 0
 505.666992188 715.5 551 730 611 730 c 0
 624.333007812 730 635.666992188 729.333007812 645 728 c 0
 654.333007812 726.666992188 663.333007812 724.666992188 672 722 c 1
 672 618 l 1
 667.333007812 620 661.5 621.5 654.5 622.5 c 0
 647.5 623.5 639.333007812 624 630 624 c 0
 604 624 584.833007812 617.666992188 572.5 605 c 0
 560.166992188 592.333007812 554 574 554 550 c 2
 554 0 l 1
 429 0 l 1xdc
109 0 m 1
 109 559 l 2
 109 615 124.333007812 657.5 155 686.5 c 0
 185.666992188 715.5 231 730 291 730 c 0
 305 730 316.5 729.333007812 325.5 728 c 0
 334.5 726.666992188 343.333007812 724.666992188 352 722 c 1
 352 618 l 1
 347.333007812 620 341.5 621.5 334.5 622.5 c 0
 327.5 623.5 319.333007812 624 310 624 c 0
 284 624 264.833007812 617.666992188 252.5 605 c 0
 240.166992188 592.333007812 234 574 234 550 c 2
 234 0 l 1
 109 0 l 1
20 405 m 1
 20 510 l 1
 788 510 l 1
 788 405 l 1xcc80
 20 405 l 1
749 0 m 1xcd
 749 510 l 1xcc80
 874 510 l 1
 874 0 l 1
 749 0 l 1xcd
813 577 m 256xee
 792.333007812 577 774.5 584.5 759.5 599.5 c 0
 744.5 614.5 737 632.333007812 737 653 c 0
 737 675.666992188 744.5 694 759.5 708 c 0
 774.5 722 792.333007812 729 813 729 c 256
 833.666992188 729 851.166992188 722 865.5 708 c 0
 879.833007812 694 887 675.666992188 887 653 c 0
 887 632.333007812 879.833007812 614.5 865.5 599.5 c 0
 851.166992188 584.5 833.666992188 577 813 577 c 256xee
EndSplineSet
Validated: 5
LCarets2: 2 310 619
EndChar

StartChar: f_i.ss01
Encoding: 65623 -1 316
Width: 632
GlyphClass: 3
LigCaretCntFixed: 1
Flags: HW
HStem: 0 21G<109 234 429 554> 405 105<20 468> 578 152<440.205 544.826> 624 106<253.083 351.594>
VStem: 109 125<0 604.402> 417 150<600.69 708.341> 429 125<0 405> 429 39<405 510>
AnchorPoint: "Anchor-5" 161 0 baselig 0
AnchorPoint: "Anchor-4" 161 740 baselig 0
AnchorPoint: "Anchor-5" 471 0 baselig 1
AnchorPoint: "Anchor-4" 471 740 baselig 1
LayerCount: 3
Fore
SplineSet
109 0 m 1xd8
 109 559 l 2
 109 615 124.333007812 657.5 155 686.5 c 0
 185.666992188 715.5 231 730 291 730 c 0
 304.333007812 730 315.666992188 729.333007812 325 728 c 0
 334.333007812 726.666992188 343.333007812 724.666992188 352 722 c 1
 352 618 l 1
 347.333007812 620 341.5 621.5 334.5 622.5 c 0
 327.5 623.5 319.333007812 624 310 624 c 0
 284 624 264.833007812 617.666992188 252.5 605 c 0
 240.166992188 592.333007812 234 574 234 550 c 2
 234 0 l 1
 109 0 l 1xd8
429 0 m 1xca
 429 510 l 1xc9
 554 510 l 1
 554 0 l 1
 429 0 l 1xca
493 578 m 256xec
 472.333007812 578 454.5 585.333007812 439.5 600 c 0
 424.5 614.666992188 417 632.666992188 417 654 c 0
 417 676.666992188 424.5 695 439.5 709 c 0
 454.5 723 472.333007812 730 493 730 c 256
 513.666992188 730 531.166992188 723 545.5 709 c 0
 559.833007812 695 567 676.666992188 567 654 c 0
 567 632.666992188 559.833007812 614.666992188 545.5 600 c 0
 531.166992188 585.333007812 513.666992188 578 493 578 c 256xec
20 405 m 1
 20 510 l 1
 468 510 l 1
 468 405 l 1xc9
 20 405 l 1
EndSplineSet
Validated: 5
LCarets2: 1 311
EndChar

StartChar: ordfeminine
Encoding: 170 170 317
Width: 377
Flags: HW
HStem: 412 70<138.745 204.451> 660 70<141.294 221.049>
VStem: 45 88<487.114 535.384> 229 88<418.469 480 531 557 616 649.17>
LayerCount: 3
Fore
SplineSet
237 418 m 1
 235 426 233.333007812 435 232 445 c 0
 230.666992188 455 230 466.666992188 230 480 c 1
 229 480 l 1
 229 621 l 2
 229 633 225.333007812 642.5 218 649.5 c 0
 210.666992188 656.5 199.666992188 660 185 660 c 0
 172.333007812 660 162.166992188 657.5 154.5 652.5 c 0
 146.833007812 647.5 141.666992188 641.333007812 139 634 c 1
 53 634 l 1
 56.3330078125 662 69.6669921875 685 93 703 c 0
 116.333007812 721 148 730 188 730 c 0
 230 730 262 720.333007812 284 701 c 0
 306 681.666992188 317 654 317 618 c 2
 317 480 l 2
 317 468 317.833007812 457.166992188 319.5 447.5 c 0
 321.166992188 437.833007812 323.333007812 428 326 418 c 1
 237 418 l 1
136 412 m 0
 108 412 85.8330078125 419.666992188 69.5 435 c 0
 53.1669921875 450.333007812 45 470.666992188 45 496 c 0
 45 524 54 547 72 565 c 0
 90 583 117 595 153 601 c 2
 240 616 l 1
 240 557 l 1
 169 543 l 2
 157 541 148 537.5 142 532.5 c 0
 136 527.5 133 520.333007812 133 511 c 256
 133 501.666992188 136.166992188 494.5 142.5 489.5 c 0
 148.833007812 484.5 157.333007812 482 168 482 c 0
 184.666992188 482 199 487 211 497 c 0
 223 507 229 518.333007812 229 531 c 1
 236 480 l 1
 228 456.666992188 215 439.5 197 428.5 c 0
 179 417.5 158.666992188 412 136 412 c 0
EndSplineSet
Validated: 5
EndChar

StartChar: ordmasculine
Encoding: 186 186 318
Width: 414
Flags: HW
HStem: 412 76<156.584 256.803> 654 76<156.281 258.702>
VStem: 41 93<510.921 631.914> 279 93<510.837 633.077>
LayerCount: 3
Fore
SplineSet
207 412 m 0
 174.333007812 412 145.5 418.833007812 120.5 432.5 c 0
 95.5 446.166992188 76 465 62 489 c 0
 48 513 41 540.666992188 41 572 c 0
 41 619.333007812 56.1669921875 657.5 86.5 686.5 c 0
 116.833007812 715.5 157 730 207 730 c 256
 257 730 297 715.5 327 686.5 c 0
 357 657.5 372 619.333007812 372 572 c 256
 372 524.666992188 356.833007812 486.166992188 326.5 456.5 c 0
 296.166992188 426.833007812 256.333007812 412 207 412 c 0
207 488 m 0
 228.333007812 488 245.666992188 495.833007812 259 511.5 c 0
 272.333007812 527.166992188 279 547.666992188 279 573 c 256
 279 598.333007812 272.333007812 618.166992188 259 632.5 c 0
 245.666992188 646.833007812 228.333007812 654 207 654 c 0
 186.333007812 654 169 646.666992188 155 632 c 0
 141 617.333007812 134 597.666992188 134 573 c 0
 134 547 141 526.333007812 155 511 c 0
 169 495.666992188 186.333007812 488 207 488 c 0
EndSplineSet
Validated: 1
EndChar

StartChar: zero
Encoding: 48 48 319
Width: 671
Flags: HW
HStem: -10 108<263.522 407.093> 622 108<261.394 409.984>
VStem: 41 137<212.138 510.887> 493 136<214.424 512.584>
LayerCount: 3
Fore
SplineSet
335 -10 m 0
 277.666992188 -10 226.833007812 5.6669921875 182.5 37 c 0
 138.166992188 68.3330078125 103.5 112 78.5 168 c 0
 53.5 224 41 289 41 363 c 256
 41 437 53.5 501.333007812 78.5 556 c 0
 103.5 610.666992188 138.166992188 653.333007812 182.5 684 c 0
 226.833007812 714.666992188 277.666992188 730 335 730 c 0
 393 730 444 714.666992188 488 684 c 0
 532 653.333007812 566.5 610.666992188 591.5 556 c 0
 616.5 501.333007812 629 437 629 363 c 0
 629 288.333007812 616.5 223.166992188 591.5 167.5 c 0
 566.5 111.833007812 532 68.3330078125 488 37 c 0
 444 5.6669921875 393 -10 335 -10 c 0
335 98 m 0
 369.666992188 98 398.666992188 109.333007812 422 132 c 0
 445.333007812 154.666992188 463 186 475 226 c 0
 487 266 493 312 493 364 c 0
 493 415.333007812 487.166992188 460.5 475.5 499.5 c 0
 463.833007812 538.5 446.333007812 568.666992188 423 590 c 0
 399.666992188 611.333007812 370.333007812 622 335 622 c 0
 300.333007812 622 271.333007812 611.166992188 248 589.5 c 0
 224.666992188 567.833007812 207.166992188 537.666992188 195.5 499 c 0
 183.833007812 460.333007812 178 415.333007812 178 364 c 0
 178 312 183.833007812 265.833007812 195.5 225.5 c 0
 207.166992188 185.166992188 224.833007812 153.833007812 248.5 131.5 c 0
 272.166992188 109.166992188 301 98 335 98 c 0
EndSplineSet
Validated: 1
Substitution2: "'tnum' Tabular Numbers in Latin lookup 19 subtable" zero.tf
Substitution2: "'aalt' Access All Alternates in Latin lookup 0 subtable" zero.tf
EndChar

StartChar: one
Encoding: 49 49 320
Width: 392
Flags: HW
HStem: 0 21G<200 326> 700 20G<191.231 326>
VStem: 200 126<0 594>
LayerCount: 3
Fore
SplineSet
200 0 m 1
 200 608 l 1
 219 594 l 1
 219 594 219 594 22 465 c 1
 22 590 l 5
 222 720 l 1
 326 720 l 1
 326 0 l 1
 200 0 l 1
EndSplineSet
Validated: 5
Substitution2: "'tnum' Tabular Numbers in Latin lookup 19 subtable" one.tf
Substitution2: "'aalt' Access All Alternates in Latin lookup 0 subtable" one.tf
EndChar

StartChar: two
Encoding: 50 50 321
Width: 555
Flags: HW
HStem: 0 102<175 530> 511 21G<28 160.333> 628 102<207.578 346.709>
VStem: 28 130<511 575.475> 381 137<434.526 593.469>
LayerCount: 3
Fore
SplineSet
36 0 m 1
 36 101 l 1
 101.333007812 157 156.166992188 205.666992188 200.5 247 c 0
 244.833007812 288.333007812 280.333007812 325 307 357 c 0
 333.666992188 389 352.666992188 418.166992188 364 444.5 c 0
 375.333007812 470.833007812 381 497 381 523 c 0
 381 556.333007812 372 582.166992188 354 600.5 c 0
 336 618.833007812 311 628 279 628 c 0
 245 628 217.5 617.833007812 196.5 597.5 c 0
 175.5 577.166992188 162.666992188 548.333007812 158 511 c 1
 28 511 l 1
 34.6669921875 578.333007812 60.8330078125 631.666992188 106.5 671 c 0
 152.166992188 710.333007812 211.666992188 730 285 730 c 0
 357.666992188 730 414.666992188 711 456 673 c 0
 497.333007812 635 518 582.666992188 518 516 c 0
 518 482.666992188 512.166992188 450 500.5 418 c 0
 488.833007812 386 469.833007812 352.5 443.5 317.5 c 0
 417.166992188 282.5 382 244.333007812 338 203 c 0
 294 161.666992188 239.666992188 114.666992188 175 62 c 1
 144 102 l 1
 530 102 l 1
 530 0 l 1
 36 0 l 1
EndSplineSet
Validated: 5
Substitution2: "'ss10' Style Set 10 in Latin lookup 31 subtable" two.ss10
Substitution2: "'tnum' Tabular Numbers in Latin lookup 19 subtable" two.tf
AlternateSubs2: "'aalt' Access All Alternates in Latin lookup 1 subtable" two.ss10 two.tf
EndChar

StartChar: three
Encoding: 51 51 322
Width: 577
Flags: HW
HStem: -10 102<215.821 365.243> 326 100<208 353.597> 369 21<368 395.333> 514 21G<40 172> 628 102<218.225 359.792>
VStem: 31 129<151.705 225> 40 130<514 578.904> 390 136<461.727 597.571> 406 137<132.372 280.636>
LayerCount: 3
Fore
SplineSet
296 -10 m 0xb880
 246.666992188 -10 203 -1 165 17 c 0
 127 35 96.1669921875 61.6669921875 72.5 97 c 0
 48.8330078125 132.333007812 35 175 31 225 c 1
 160 225 l 1
 165.333007812 180.333007812 179.333007812 147 202 125 c 0
 224.666992188 103 254.666992188 92 292 92 c 0
 326 92 353.5 101.833007812 374.5 121.5 c 0
 395.5 141.166992188 406 169 406 205 c 256xbc80
 406 241 395.666992188 270.166992188 375 292.5 c 0
 354.333007812 314.833007812 322.333007812 326 279 326 c 2
 208 326 l 1
 208 426 l 1
 276 426 l 2
 314.666992188 426 343.333007812 435.5 362 454.5 c 0
 380.666992188 473.5 390 498.333007812 390 529 c 256
 390 559.666992188 381.666992188 583.833007812 365 601.5 c 0
 348.333007812 619.166992188 323 628 289 628 c 0
 258.333007812 628 231.833007812 618.5 209.5 599.5 c 0
 187.166992188 580.5 174 552 170 514 c 1
 40 514 l 1
 44.6669921875 558.666992188 57.8330078125 597 79.5 629 c 0
 101.166992188 661 130.333007812 685.833007812 167 703.5 c 0
 203.666992188 721.166992188 246 730 294 730 c 0
 340.666992188 730 381.333007812 722.166992188 416 706.5 c 0
 450.666992188 690.833007812 477.666992188 668.833007812 497 640.5 c 0
 516.333007812 612.166992188 526 578.333007812 526 539 c 0xdb
 526 505.666992188 518.333007812 476.166992188 503 450.5 c 0
 487.666992188 424.833007812 468.166992188 404.833007812 444.5 390.5 c 0
 420.833007812 376.166992188 395.333007812 369 368 369 c 1
 366 390 l 1
 402 390 433.333007812 381.5 460 364.5 c 0
 486.666992188 347.5 507.166992188 324.666992188 521.5 296 c 0
 535.833007812 267.333007812 543 235 543 199 c 0
 543 156.333007812 532.333007812 119.333007812 511 88 c 0
 489.666992188 56.6669921875 460.333007812 32.5 423 15.5 c 0
 385.666992188 -1.5 343.333007812 -10 296 -10 c 0xb880
EndSplineSet
Validated: 5
Substitution2: "'tnum' Tabular Numbers in Latin lookup 19 subtable" three.tf
Substitution2: "'aalt' Access All Alternates in Latin lookup 0 subtable" three.tf
EndChar

StartChar: four
Encoding: 52 52 323
Width: 610
Flags: HW
HStem: 0 21G<373 505> 145 102<142 373 379 582> 700 20G<362.462 505>
VStem: 379 126<0 597>
LayerCount: 3
Fore
SplineSet
373 0 m 1
 373 189 l 1
 379 209 l 1
 379 617 l 1
 428 597 l 1
 142 203 l 1
 90 247 l 1
 582 247 l 1
 582 145 l 1
 31 145 l 1
 31 244 l 1
 377 720 l 1
 505 720 l 1
 505 0 l 1
 373 0 l 1
EndSplineSet
Validated: 5
Substitution2: "'tnum' Tabular Numbers in Latin lookup 19 subtable" four.tf
Substitution2: "'aalt' Access All Alternates in Latin lookup 0 subtable" four.tf
EndChar

StartChar: five
Encoding: 53 53 324
Width: 580
Flags: HW
HStem: -10 102<218.745 358.657> 381 94<222.393 358.409> 618 102<221 501> 618 20<198.95 221>
VStem: 35 130<146.65 205> 406 137<141.075 330.476>
LayerCount: 3
Fore
SplineSet
292 -10 m 0xdc
 220 -10 161.666992188 9.1669921875 117 47.5 c 0
 72.3330078125 85.8330078125 45 138.333007812 35 205 c 1
 165 205 l 1
 171 169 185.333007812 141.166992188 208 121.5 c 0
 230.666992188 101.833007812 257.666992188 92 289 92 c 0
 323.666992188 92 351.833007812 103.666992188 373.5 127 c 0
 395.166992188 150.333007812 406 186.333007812 406 235 c 0
 406 283 395.5 319.333007812 374.5 344 c 0
 353.5 368.666992188 325.333007812 381 290 381 c 0
 267.333007812 381 247 376 229 366 c 0
 211 356 197.333007812 341.666992188 188 323 c 1
 72 323 l 1
 106 720 l 1
 501 720 l 1
 501 618 l 1xec
 158 618 l 1
 221 638 l 1
 203 391 l 1
 164 397 l 1
 178.666992188 421 198.5 440 223.5 454 c 0
 248.5 468 280 475 318 475 c 0
 362.666992188 475 401.833007812 465.166992188 435.5 445.5 c 0
 469.166992188 425.833007812 495.5 398.166992188 514.5 362.5 c 0
 533.5 326.833007812 543 284 543 234 c 0
 543 182.666992188 532.666992188 138.833007812 512 102.5 c 0
 491.333007812 66.1669921875 462.166992188 38.3330078125 424.5 19 c 0
 386.833007812 -0.3330078125 342.666992188 -10 292 -10 c 0xdc
EndSplineSet
Validated: 5
Substitution2: "'tnum' Tabular Numbers in Latin lookup 19 subtable" five.tf
Substitution2: "'aalt' Access All Alternates in Latin lookup 0 subtable" five.tf
EndChar

StartChar: six
Encoding: 54 54 325
Width: 612
Flags: HW
HStem: -10 102<238.452 389.947> 355 99<250.767 389.713> 628 102<254.248 406.545>
VStem: 41 139<181.907 513.395> 441 137<142.37 304.052>
LayerCount: 3
Fore
SplineSet
321 -10 m 0
 231.666992188 -10 162.666992188 20.6669921875 114 82 c 0
 65.3330078125 143.333007812 41 231.333007812 41 346 c 0
 41 426.666992188 52.6669921875 495.5 76 552.5 c 0
 99.3330078125 609.5 132.666992188 653.333007812 176 684 c 0
 219.333007812 714.666992188 270.333007812 730 329 730 c 0
 395 730 449 714.5 491 683.5 c 0
 533 652.5 558.333007812 605 567 541 c 5
 438 541 l 5
 434 574.333007812 422.166992188 597.166992188 402.5 609.5 c 0
 382.833007812 621.833007812 358 628 328 628 c 0
 277.333007812 628 239.333007812 605.666992188 214 561 c 0
 188.666992188 516.333007812 176 447.333007812 176 354 c 2
 176 292 l 1
 148 301 l 1
 155.333007812 332.333007812 168.333007812 359.5 187 382.5 c 0
 205.666992188 405.5 229.166992188 423.166992188 257.5 435.5 c 0
 285.833007812 447.833007812 317 454 351 454 c 0
 396.333007812 454 436 444.333007812 470 425 c 0
 504 405.666992188 530.5 378.833007812 549.5 344.5 c 0
 568.5 310.166992188 578 270 578 224 c 0
 578 176.666992188 567.333007812 135.5 546 100.5 c 0
 524.666992188 65.5 494.833007812 38.3330078125 456.5 19 c 0
 418.166992188 -0.3330078125 373 -10 321 -10 c 0
315 92 m 0
 351.666992188 92 381.833007812 103.333007812 405.5 126 c 0
 429.166992188 148.666992188 441 181 441 223 c 0
 441 265.666992188 429 298.333007812 405 321 c 0
 381 343.666992188 350.333007812 355 313 355 c 0
 275 355 243.333007812 344 218 322 c 0
 192.666992188 300 180 268.333007812 180 227 c 0
 180 199.666992188 186 175.833007812 198 155.5 c 0
 210 135.166992188 226.166992188 119.5 246.5 108.5 c 0
 266.833007812 97.5 289.666992188 92 315 92 c 0
EndSplineSet
Validated: 5
Substitution2: "'tnum' Tabular Numbers in Latin lookup 19 subtable" six.tf
Substitution2: "'aalt' Access All Alternates in Latin lookup 0 subtable" six.tf
EndChar

StartChar: seven
Encoding: 55 55 326
Width: 558
Flags: HW
HStem: 0 21G<155 302.592> 610 110<88 411>
LayerCount: 3
Fore
SplineSet
155 0 m 1
 155 0 155 0 411 641 c 5
 421 610 l 1
 88 610 l 1
 88 720 l 1
 533 720 l 1
 533 627 l 1
 295 0 l 1
 155 0 l 1
EndSplineSet
Validated: 5
Substitution2: "'tnum' Tabular Numbers in Latin lookup 19 subtable" seven.tf
Substitution2: "'aalt' Access All Alternates in Latin lookup 0 subtable" seven.tf
EndChar

StartChar: eight
Encoding: 56 56 327
Width: 596
Flags: HW
HStem: -10 102<220.169 376.293> 328 95<232.015 363.093> 369 21<195 220 376 400.667> 628 102<227.665 367.038>
VStem: 38 136<137.416 283.855> 57 135<458.763 592.517> 404 135<458.337 591.725> 421 137<136.349 283.843>
LayerCount: 3
Fore
SplineSet
298 -10 m 0xb1
 246 -10 200.5 -1 161.5 17 c 0
 122.5 35 92.1669921875 59.8330078125 70.5 91.5 c 0
 48.8330078125 123.166992188 38 159.666992188 38 201 c 0xb9
 38 237 45.8330078125 269.333007812 61.5 298 c 0
 77.1669921875 326.666992188 98.6669921875 349.166992188 126 365.5 c 0
 153.333007812 381.833007812 184.666992188 390 220 390 c 1
 231 369 l 1
 195 369 164 375.833007812 138 389.5 c 0
 112 403.166992188 92 422.666992188 78 448 c 0
 64 473.333007812 57 502.333007812 57 535 c 0
 57 573.666992188 67 607.666992188 87 637 c 0
 107 666.333007812 135 689.166992188 171 705.5 c 0
 207 721.833007812 249.333007812 730 298 730 c 256
 346.666992188 730 389 721.833007812 425 705.5 c 0
 461 689.166992188 489 666.333007812 509 637 c 0
 529 607.666992188 539 573.666992188 539 535 c 0xb6
 539 502.333007812 532 473.5 518 448.5 c 0
 504 423.5 484 404 458 390 c 0
 432 376 400.666992188 369 364 369 c 1
 376 390 l 1
 411.333007812 390 442.666992188 381.833007812 470 365.5 c 0
 497.333007812 349.166992188 518.833007812 326.666992188 534.5 298 c 0
 550.166992188 269.333007812 558 236.666992188 558 200 c 0
 558 158.666992188 547.166992188 122.166992188 525.5 90.5 c 0
 503.833007812 58.8330078125 473.666992188 34.1669921875 435 16.5 c 0
 396.333007812 -1.1669921875 350.666992188 -10 298 -10 c 0xb1
298 92 m 0
 336.666992188 92 366.833007812 102.5 388.5 123.5 c 0
 410.166992188 144.5 421 173.666992188 421 211 c 0
 421 247.666992188 409.833007812 276.333007812 387.5 297 c 0
 365.166992188 317.666992188 335.333007812 328 298 328 c 0xd9
 260 328 229.833007812 317.666992188 207.5 297 c 0
 185.166992188 276.333007812 174 247.666992188 174 211 c 0
 174 173.666992188 185.166992188 144.5 207.5 123.5 c 0
 229.833007812 102.5 260 92 298 92 c 0
298 423 m 0
 330 423 355.666992188 432.166992188 375 450.5 c 0
 394.333007812 468.833007812 404 493.666992188 404 525 c 0
 404 557 394.166992188 582.166992188 374.5 600.5 c 0
 354.833007812 618.833007812 329 628 297 628 c 0
 265.666992188 628 240.333007812 618.833007812 221 600.5 c 0
 201.666992188 582.166992188 192 557 192 525 c 0xd6
 192 493.666992188 201.833007812 468.833007812 221.5 450.5 c 0
 241.166992188 432.166992188 266.666992188 423 298 423 c 0
EndSplineSet
Validated: 5
Substitution2: "'tnum' Tabular Numbers in Latin lookup 19 subtable" eight.tf
Substitution2: "'aalt' Access All Alternates in Latin lookup 0 subtable" eight.tf
EndChar

StartChar: nine
Encoding: 57 57 328
Width: 616
Flags: HW
HStem: -10 102<208.062 366.217> 274 99<224.802 362.442> 628 102<224.798 374.078>
VStem: 35 142<422.446 577.937> 46 129<124.503 191> 425 147<196.105 536.902>
LayerCount: 3
Fore
SplineSet
290 -10 m 0xf4
 242.666992188 -10 201.666992188 -1 167 17 c 0
 132.333007812 35 104.833007812 57 84.5 83 c 0
 64.1669921875 109 51.3330078125 145 46 191 c 1
 175 191 l 1xec
 179.666992188 149.666992188 192 122.833007812 212 110.5 c 0
 232 98.1669921875 259.333007812 92 294 92 c 0
 318.666992188 92 339.666992188 97.1669921875 357 107.5 c 0
 374.333007812 117.833007812 388.5 133.833007812 399.5 155.5 c 0
 410.5 177.166992188 418.5 205.333007812 423.5 240 c 0
 428.5 274.666992188 431 316.666992188 431 366 c 2
 431 428 l 1
 465 427 l 1
 458.333007812 395.666992188 445.5 368.5 426.5 345.5 c 0
 407.5 322.5 384 304.833007812 356 292.5 c 0
 328 280.166992188 296.333007812 274 261 274 c 0
 216.333007812 274 177.166992188 283.5 143.5 302.5 c 0
 109.833007812 321.5 83.3330078125 348 64 382 c 0
 44.6669921875 416 35 455 35 499 c 0
 35 545.666992188 45.8330078125 586.166992188 67.5 620.5 c 0
 89.1669921875 654.833007812 119.333007812 681.666992188 158 701 c 0
 196.666992188 720.333007812 241.333007812 730 292 730 c 0
 382.666992188 730 452 699.166992188 500 637.5 c 0
 548 575.833007812 572 486 572 368 c 0
 572 288 561 219.666992188 539 163 c 0
 517 106.333007812 485 63.3330078125 443 34 c 0
 401 4.6669921875 350 -10 290 -10 c 0xf4
301 373 m 0
 339.666992188 373 370 384 392 406 c 0
 414 428 425 457.666992188 425 495 c 0
 425 520.333007812 420 543.166992188 410 563.5 c 0
 400 583.833007812 385.666992188 599.666992188 367 611 c 0
 348.333007812 622.333007812 325.666992188 628 299 628 c 0
 261 628 231.166992188 616.166992188 209.5 592.5 c 0
 187.833007812 568.833007812 177 538 177 500 c 0xf4
 177 462.666992188 187.833007812 432.166992188 209.5 408.5 c 0
 231.166992188 384.833007812 261.666992188 373 301 373 c 0
EndSplineSet
Validated: 5
Substitution2: "'tnum' Tabular Numbers in Latin lookup 19 subtable" nine.tf
Substitution2: "'aalt' Access All Alternates in Latin lookup 0 subtable" nine.tf
EndChar

StartChar: two.ss10
Encoding: 65624 -1 329
Width: 555
Flags: HW
HStem: 0 102<162 530> 511 21G<28 160.333> 628 102<209.795 347.114>
VStem: 28 130<511 575.475> 381 137<453.385 594.814>
LayerCount: 3
Fore
SplineSet
36 0 m 1
 36 76 l 2
 36 118.666992188 44.1669921875 155.5 60.5 186.5 c 0
 76.8330078125 217.5 98.1669921875 244.5 124.5 267.5 c 0
 150.833007812 290.5 178.833007812 311.666992188 208.5 331 c 0
 238.166992188 350.333007812 266 369.333007812 292 388 c 0
 318 406.666992188 339.333007812 427 356 449 c 0
 372.666992188 471 381 496.333007812 381 525 c 0
 381 558.333007812 371.666992188 583.833007812 353 601.5 c 0
 334.333007812 619.166992188 310 628 280 628 c 0
 247.333007812 628 220 617.833007812 198 597.5 c 0
 176 577.166992188 162.666992188 548.333007812 158 511 c 1
 28 511 l 1
 34.6669921875 578.333007812 60.8330078125 631.666992188 106.5 671 c 0
 152.166992188 710.333007812 211.333007812 730 284 730 c 0
 355.333007812 730 412.166992188 711.5 454.5 674.5 c 0
 496.833007812 637.5 518 585.333007812 518 518 c 0
 518 482.666992188 511 451.333007812 497 424 c 0
 483 396.666992188 464.833007812 372.333007812 442.5 351 c 0
 420.166992188 329.666992188 395.833007812 310 369.5 292 c 0
 343.166992188 274 317 256.833007812 291 240.5 c 0
 265 224.166992188 241.666992188 207.166992188 221 189.5 c 0
 200.333007812 171.833007812 184.5 152.833007812 173.5 132.5 c 0
 162.5 112.166992188 158.666992188 89 162 63 c 1
 144 102 l 1
 530 102 l 1
 530 0 l 1
 36 0 l 1
EndSplineSet
Validated: 37
EndChar

StartChar: zero.tf
Encoding: 65625 -1 330
Width: 602
Flags: HW
HStem: -10 108<238.406 363.111> 622 108<236.714 364.267>
VStem: 25 140<205.924 518.461> 436 141<206.264 518.461>
LayerCount: 3
Fore
SplineSet
301 -10 m 0
 247 -10 199.333007812 5.8330078125 158 37.5 c 0
 116.666992188 69.1669921875 84.1669921875 112.833007812 60.5 168.5 c 0
 36.8330078125 224.166992188 25 289 25 363 c 256
 25 437 36.8330078125 501.333007812 60.5 556 c 0
 84.1669921875 610.666992188 116.833007812 653.333007812 158.5 684 c 0
 200.166992188 714.666992188 247.666992188 730 301 730 c 0
 355 730 402.666992188 714.666992188 444 684 c 0
 485.333007812 653.333007812 517.833007812 610.666992188 541.5 556 c 0
 565.166992188 501.333007812 577 437 577 363 c 256
 577 289 565 224 541 168 c 0
 517 112 484.333007812 68.3330078125 443 37 c 0
 401.666992188 5.6669921875 354.333007812 -10 301 -10 c 0
301 98 m 256
 331 98 356 109.333007812 376 132 c 0
 396 154.666992188 411 186.166992188 421 226.5 c 0
 431 266.833007812 436 312.666992188 436 364 c 256
 436 415.333007812 431 460.333007812 421 499 c 0
 411 537.666992188 396.166992188 567.833007812 376.5 589.5 c 0
 356.833007812 611.166992188 331.666992188 622 301 622 c 256
 270.333007812 622 245 611.166992188 225 589.5 c 0
 205 567.833007812 190 537.666992188 180 499 c 0
 170 460.333007812 165 415.333007812 165 364 c 0
 165 312 170 265.833007812 180 225.5 c 0
 190 185.166992188 205.166992188 153.833007812 225.5 131.5 c 0
 245.833007812 109.166992188 271 98 301 98 c 256
EndSplineSet
Validated: 1
Substitution2: "'pnum' Proportional Numbers in Latin lookup 18 subtable" zero
Substitution2: "'aalt' Access All Alternates in Latin lookup 0 subtable" zero
EndChar

StartChar: one.tf
Encoding: 65626 -1 331
Width: 602
Flags: HW
HStem: 0 102<116 283 413 552> 30 72<283 413> 465 125<123 186> 700 20G<298.333 413>
VStem: 283 130<30 594>
LayerCount: 3
Fore
SplineSet
283 30 m 1x78
 283 608 l 1
 300 594 l 1
 290 573.333007812 276.5 554.333007812 259.5 537 c 0
 242.5 519.666992188 222.5 504.666992188 199.5 492 c 0
 176.5 479.333007812 151 470.333007812 123 465 c 1
 123 590 l 1
 147 594.666992188 171 603.5 195 616.5 c 0
 219 629.5 240.666992188 645.166992188 260 663.5 c 0
 279.333007812 681.833007812 293.666992188 700.666992188 303 720 c 1
 413 720 l 1
 413 30 l 1
 283 30 l 1x78
116 0 m 1xb8
 116 102 l 1
 552 102 l 1
 552 0 l 1
 116 0 l 1xb8
EndSplineSet
Validated: 5
Substitution2: "'pnum' Proportional Numbers in Latin lookup 18 subtable" one
Substitution2: "'aalt' Access All Alternates in Latin lookup 0 subtable" one
EndChar

StartChar: two.tf
Encoding: 65627 -1 332
Width: 602
Flags: HW
HStem: 0 102<201 537> 511 21G<64 200> 628 102<238.556 358.124>
VStem: 64 134<511 583.498> 383 141<430.173 602.242>
LayerCount: 3
Fore
SplineSet
71 0 m 1
 71 101 l 1
 133 157 184.166992188 205.833007812 224.5 247.5 c 0
 264.833007812 289.166992188 296.666992188 326.5 320 359.5 c 0
 343.333007812 392.5 359.666992188 422.666992188 369 450 c 0
 378.333007812 477.333007812 383 503.666992188 383 529 c 0
 383 561 376.166992188 585.5 362.5 602.5 c 0
 348.833007812 619.5 328 628 300 628 c 0
 270 628 246.5 617.833007812 229.5 597.5 c 0
 212.5 577.166992188 202 548.333007812 198 511 c 1
 64 511 l 1
 70 578.333007812 94.5 631.666992188 137.5 671 c 0
 180.5 710.333007812 236.666992188 730 306 730 c 0
 374 730 427.333007812 711 466 673 c 0
 504.666992188 635 524 582.666992188 524 516 c 0
 524 482.666992188 518.5 450 507.5 418 c 0
 496.5 386 478.666992188 352.5 454 317.5 c 0
 429.333007812 282.5 396.333007812 244.333007812 355 203 c 0
 313.666992188 161.666992188 262.333007812 114.666992188 201 62 c 1
 173 102 l 1
 537 102 l 1
 537 0 l 1
 71 0 l 1
EndSplineSet
Validated: 5
Substitution2: "'ss10' Style Set 10 in Latin lookup 31 subtable" two.tf.ss10
Substitution2: "'pnum' Proportional Numbers in Latin lookup 18 subtable" two
AlternateSubs2: "'aalt' Access All Alternates in Latin lookup 1 subtable" two two.tf.ss10
EndChar

StartChar: three.tf
Encoding: 65628 -1 333
Width: 602
Flags: HW
HStem: -10 102<238.899 362.725> 326 100<225 352.568> 369 21<384 407.333> 514 21G<68 203> 628 102<242.203 359.634>
VStem: 60 133<145.634 225> 68 133<514 583.363> 384 141<457.975 603.359> 399 141<128.62 285.558>
LayerCount: 3
Fore
SplineSet
308 -10 m 0xb880
 262 -10 221 -1 185 17 c 0
 149 35 120.166992188 61.6669921875 98.5 97 c 0
 76.8330078125 132.333007812 64 175 60 225 c 1
 193 225 l 1
 197.666992188 182.333007812 209 149.5 227 126.5 c 0
 245 103.5 270.333007812 92 303 92 c 0
 330.333007812 92 353.166992188 101.833007812 371.5 121.5 c 0
 389.833007812 141.166992188 399 169 399 205 c 256
 399 241 390.166992188 270.166992188 372.5 292.5 c 0
 354.833007812 314.833007812 325.666992188 326 285 326 c 2
 225 326 l 1
 225 426 l 1
 282 426 l 2xdc80
 317.333007812 426 343.166992188 435.5 359.5 454.5 c 0
 375.833007812 473.5 384 498.333007812 384 529 c 0
 384 559 377.5 583 364.5 601 c 0
 351.5 619 330.333007812 628 301 628 c 0
 275.666992188 628 253.666992188 618.5 235 599.5 c 0
 216.333007812 580.5 205 552 201 514 c 1
 68 514 l 1
 72.6669921875 558.666992188 85.1669921875 597 105.5 629 c 0
 125.833007812 661 153 685.833007812 187 703.5 c 0
 221 721.166992188 260.666992188 730 306 730 c 0
 350.666992188 730 389.333007812 722.166992188 422 706.5 c 0
 454.666992188 690.833007812 480 668.833007812 498 640.5 c 0
 516 612.166992188 525 578.333007812 525 539 c 0
 525 505.666992188 518 476.166992188 504 450.5 c 0
 490 424.833007812 472.333007812 404.833007812 451 390.5 c 0
 429.666992188 376.166992188 407.333007812 369 384 369 c 1xbb
 383 390 l 1
 416.333007812 390 444.5 381.5 467.5 364.5 c 0
 490.5 347.5 508.333007812 324.666992188 521 296 c 0
 533.666992188 267.333007812 540 235 540 199 c 0
 540 156.333007812 530 119.333007812 510 88 c 0
 490 56.6669921875 462.5 32.5 427.5 15.5 c 0
 392.5 -1.5 352.666992188 -10 308 -10 c 0xb880
EndSplineSet
Validated: 5
Substitution2: "'pnum' Proportional Numbers in Latin lookup 18 subtable" three
Substitution2: "'aalt' Access All Alternates in Latin lookup 0 subtable" three
EndChar

StartChar: four.tf
Encoding: 65629 -1 334
Width: 602
Flags: HW
HStem: 0 21G<357 492> 145 102<155 357 363 559> 700 20G<346.681 492>
VStem: 363 129<0 597>
LayerCount: 3
Fore
SplineSet
357 0 m 1
 357 189 l 1
 363 209 l 1
 363 617 l 1
 415 597 l 1
 155 203 l 1
 97 247 l 1
 559 247 l 1
 559 145 l 1
 43 145 l 1
 43 244 l 1
 360 720 l 1
 492 720 l 1
 492 0 l 1
 357 0 l 1
EndSplineSet
Validated: 5
Substitution2: "'pnum' Proportional Numbers in Latin lookup 18 subtable" four
Substitution2: "'aalt' Access All Alternates in Latin lookup 0 subtable" four
EndChar

StartChar: five.tf
Encoding: 65630 -1 335
Width: 602
Flags: HW
HStem: -10 102<240.46 357.528> 381 94<244.005 358.385> 618 102<247 499> 618 20<222.5 247>
VStem: 62 133<138.901 205> 397 141<135.023 338.035>
LayerCount: 3
Fore
SplineSet
303 -10 m 0xdc
 236.333007812 -10 181.833007812 9.1669921875 139.5 47.5 c 0
 97.1669921875 85.8330078125 71.3330078125 138.333007812 62 205 c 1
 195 205 l 1
 199 169 211 141.166992188 231 121.5 c 0
 251 101.833007812 274 92 300 92 c 0
 328.666992188 92 352 103.666992188 370 127 c 0
 388 150.333007812 397 186.333007812 397 235 c 0
 397 283 388.5 319.333007812 371.5 344 c 0
 354.5 368.666992188 331.333007812 381 302 381 c 0
 284.666992188 381 268.333007812 376 253 366 c 0
 237.666992188 356 225.666992188 341.666992188 217 323 c 1
 96 323 l 1
 128 720 l 1
 499 720 l 1
 499 618 l 1xec
 177 618 l 1
 247 638 l 1
 231 391 l 1
 188 397 l 1
 203.333007812 421 222.333007812 440 245 454 c 0
 267.666992188 468 296 475 330 475 c 0
 371.333007812 475 407.666992188 465.166992188 439 445.5 c 0
 470.333007812 425.833007812 494.666992188 398.166992188 512 362.5 c 0
 529.333007812 326.833007812 538 284 538 234 c 0
 538 182.666992188 528.166992188 138.833007812 508.5 102.5 c 0
 488.833007812 66.1669921875 461.5 38.3330078125 426.5 19 c 0
 391.5 -0.3330078125 350.333007812 -10 303 -10 c 0xdc
EndSplineSet
Validated: 5
Substitution2: "'pnum' Proportional Numbers in Latin lookup 18 subtable" five
Substitution2: "'aalt' Access All Alternates in Latin lookup 0 subtable" five
EndChar

StartChar: six.tf
Encoding: 65631 -1 336
Width: 602
Flags: HW
HStem: -10 102<240.67 370.826> 355 99<254.942 369.551> 628 102<258.043 378.736>
VStem: 51 139<178.086 516.875> 415 142<138.662 308.623> 415 133<525 590.736>
LayerCount: 3
Fore
SplineSet
314 -10 m 0xf8
 230 -10 165.166992188 20.8330078125 119.5 82.5 c 0
 73.8330078125 144.166992188 51 232 51 346 c 0
 51 426 62 494.5 84 551.5 c 0
 106 608.5 137.333007812 652.5 178 683.5 c 0
 218.666992188 714.5 267 730 323 730 c 0
 385 730 435.833007812 711.833007812 475.5 675.5 c 0
 515.166992188 639.166992188 539.333007812 589 548 525 c 1
 415 525 l 1xf4
 411.666992188 558.333007812 401.5 583.833007812 384.5 601.5 c 0
 367.5 619.166992188 346.666992188 628 322 628 c 0
 277.333007812 628 244.166992188 605.5 222.5 560.5 c 0
 200.833007812 515.5 190 446.666992188 190 354 c 2
 190 292 l 1
 162 301 l 1
 168.666992188 332.333007812 180.5 359.5 197.5 382.5 c 0
 214.5 405.5 235.666992188 423.166992188 261 435.5 c 0
 286.333007812 447.833007812 314.666992188 454 346 454 c 0
 388 454 424.833007812 444.333007812 456.5 425 c 0
 488.166992188 405.666992188 512.833007812 378.833007812 530.5 344.5 c 0
 548.166992188 310.166992188 557 270 557 224 c 0
 557 176.666992188 547 135.5 527 100.5 c 0
 507 65.5 478.833007812 38.3330078125 442.5 19 c 0
 406.166992188 -0.3330078125 363.333007812 -10 314 -10 c 0xf8
306 92 m 0
 337.333007812 92 363.333007812 103.333007812 384 126 c 0
 404.666992188 148.666992188 415 181 415 223 c 0xf8
 415 265.666992188 404.5 298.333007812 383.5 321 c 0
 362.5 343.666992188 336 355 304 355 c 256
 272 355 245 344 223 322 c 0
 201 300 190 268.333007812 190 227 c 0
 190 199.666992188 195.333007812 175.833007812 206 155.5 c 0
 216.666992188 135.166992188 230.833007812 119.5 248.5 108.5 c 0
 266.166992188 97.5 285.333007812 92 306 92 c 0
EndSplineSet
Validated: 5
Substitution2: "'pnum' Proportional Numbers in Latin lookup 18 subtable" six
Substitution2: "'aalt' Access All Alternates in Latin lookup 0 subtable" six
EndChar

StartChar: seven.tf
Encoding: 65632 -1 337
Width: 602
Flags: HW
HStem: 0 21G<177 325> 618 102<64 413>
VStem: 177 144<0 148.299>
LayerCount: 3
Fore
SplineSet
177 0 m 1
 186.333007812 114.666992188 211.5 225.5 252.5 332.5 c 0
 293.5 439.5 347 542.333007812 413 641 c 1
 419 618 l 1
 64 618 l 1
 64 720 l 1
 537 720 l 1
 537 627 l 1
 475.666992188 525 426.333007812 423 389 321 c 0
 351.666992188 219 329 112 321 0 c 1
 177 0 l 1
EndSplineSet
Validated: 5
Substitution2: "'pnum' Proportional Numbers in Latin lookup 18 subtable" seven
Substitution2: "'aalt' Access All Alternates in Latin lookup 0 subtable" seven
EndChar

StartChar: eight.tf
Encoding: 65633 -1 338
Width: 602
Flags: HW
HStem: -10 102<234.988 366.633> 328 95<245.119 357.948> 369 21<203.333 225 377 398.333> 628 102<244.145 358.538>
VStem: 56 141<130.753 288.669> 74 140<454.287 597.358> 388 140<453.177 597.63> 405 141<132.759 288.663>
LayerCount: 3
Fore
SplineSet
302 -10 m 256xb1
 253.333007812 -10 210.5 -1 173.5 17 c 0
 136.5 35 107.666992188 59.8330078125 87 91.5 c 0
 66.3330078125 123.166992188 56 159.666992188 56 201 c 0xb9
 56 237 63.1669921875 269.333007812 77.5 298 c 0
 91.8330078125 326.666992188 111.666992188 349.166992188 137 365.5 c 0
 162.333007812 381.833007812 191.666992188 390 225 390 c 1
 238 369 l 1
 203.333007812 369 173.666992188 375.833007812 149 389.5 c 0
 124.333007812 403.166992188 105.666992188 422.666992188 93 448 c 0
 80.3330078125 473.333007812 74 502.333007812 74 535 c 0
 74 573.666992188 83.3330078125 607.666992188 102 637 c 0
 120.666992188 666.333007812 147 689.166992188 181 705.5 c 0
 215 721.833007812 255 730 301 730 c 0
 347.666992188 730 387.833007812 721.833007812 421.5 705.5 c 0
 455.166992188 689.166992188 481.333007812 666.333007812 500 637 c 0
 518.666992188 607.666992188 528 573.666992188 528 535 c 0xb6
 528 502.333007812 521.5 473.5 508.5 448.5 c 0
 495.5 423.5 476.833007812 404 452.5 390 c 0
 428.166992188 376 398.333007812 369 363 369 c 1
 377 390 l 1
 410.333007812 390 439.666992188 381.833007812 465 365.5 c 0
 490.333007812 349.166992188 510.166992188 326.666992188 524.5 298 c 0
 538.833007812 269.333007812 546 236.666992188 546 200 c 0
 546 158.666992188 535.833007812 122.166992188 515.5 90.5 c 0
 495.166992188 58.8330078125 466.666992188 34.1669921875 430 16.5 c 0
 393.333007812 -1.1669921875 350.666992188 -10 302 -10 c 256xb1
301 92 m 0
 333 92 358.333007812 102.666992188 377 124 c 0
 395.666992188 145.333007812 405 174.333007812 405 211 c 256
 405 247.666992188 395.5 276.333007812 376.5 297 c 0
 357.5 317.666992188 332.333007812 328 301 328 c 256xd9
 269.666992188 328 244.5 317.666992188 225.5 297 c 0
 206.5 276.333007812 197 247.666992188 197 211 c 0
 197 173.666992188 206.166992188 144.5 224.5 123.5 c 0
 242.833007812 102.5 268.333007812 92 301 92 c 0
301 423 m 0
 327 423 348 432.166992188 364 450.5 c 0
 380 468.833007812 388 493.666992188 388 525 c 0
 388 557 380 582.166992188 364 600.5 c 0
 348 618.833007812 326.666992188 628 300 628 c 0
 274.666992188 628 254 618.666992188 238 600 c 0
 222 581.333007812 214 556.333007812 214 525 c 0xd6
 214 494.333007812 222.166992188 469.666992188 238.5 451 c 0
 254.833007812 432.333007812 275.666992188 423 301 423 c 0
EndSplineSet
Validated: 5
Substitution2: "'pnum' Proportional Numbers in Latin lookup 18 subtable" eight
Substitution2: "'aalt' Access All Alternates in Latin lookup 0 subtable" eight
EndChar

StartChar: nine.tf
Encoding: 65634 -1 339
Width: 602
Flags: HW
HStem: -10 102<225.379 350.907> 274 99<232.717 347.4> 628 102<232.547 359.222>
VStem: 44 147<417.39 583.098> 54 132<135.147 212> 401 150<193.253 541.107>
LayerCount: 3
Fore
SplineSet
283 -10 m 0xf4
 238.333007812 -10 199.666992188 -1 167 17 c 0
 134.333007812 35 108.5 60.5 89.5 93.5 c 0
 70.5 126.5 58.6669921875 166 54 212 c 1
 186 212 l 1xec
 190 170 200.666992188 139.5 218 120.5 c 0
 235.333007812 101.5 258.666992188 92 288 92 c 0
 310 92 328.333007812 97.1669921875 343 107.5 c 0
 357.666992188 117.833007812 369.666992188 133.833007812 379 155.5 c 0
 388.333007812 177.166992188 394.833007812 205.5 398.5 240.5 c 0
 402.166992188 275.5 404 317.333007812 404 366 c 2
 404 428 l 1
 440 427 l 1
 433.333007812 395 421.333007812 367.5 404 344.5 c 0
 386.666992188 321.5 365.333007812 304 340 292 c 0
 314.666992188 280 286 274 254 274 c 0
 212.666992188 274 176.333007812 283.5 145 302.5 c 0
 113.666992188 321.5 89 348 71 382 c 0
 53 416 44 455 44 499 c 0
 44 545.666992188 54.1669921875 586.166992188 74.5 620.5 c 0
 94.8330078125 654.833007812 123.166992188 681.666992188 159.5 701 c 0
 195.833007812 720.333007812 238.333007812 730 287 730 c 0
 372.333007812 730 437.666992188 699.166992188 483 637.5 c 0
 528.333007812 575.833007812 551 486 551 368 c 0
 551 288 540.5 219.666992188 519.5 163 c 0
 498.5 106.333007812 468.166992188 63.3330078125 428.5 34 c 0
 388.833007812 4.6669921875 340.333007812 -10 283 -10 c 0xf4
297 373 m 0
 331 373 356.833007812 384 374.5 406 c 0
 392.166992188 428 401 457.666992188 401 495 c 0
 401 533.666992188 392.166992188 565.5 374.5 590.5 c 0
 356.833007812 615.5 331 628 297 628 c 0
 263.666992188 628 237.666992188 616.166992188 219 592.5 c 0
 200.333007812 568.833007812 191 538 191 500 c 0xf4
 191 462.666992188 200.333007812 432.166992188 219 408.5 c 0
 237.666992188 384.833007812 263.666992188 373 297 373 c 0
EndSplineSet
Validated: 5
Substitution2: "'pnum' Proportional Numbers in Latin lookup 18 subtable" nine
Substitution2: "'aalt' Access All Alternates in Latin lookup 0 subtable" nine
EndChar

StartChar: two.tf.ss10
Encoding: 65635 -1 340
Width: 602
Flags: HW
HStem: 0 102<203 537> 511 21G<64 199.667> 628 102<237.513 357.52>
VStem: 64 134<511 585.524> 383 141<454.074 601.377>
LayerCount: 3
Fore
SplineSet
72 0 m 1
 72 76 l 2
 72 118.666992188 79.5 155.5 94.5 186.5 c 0
 109.5 217.5 128.833007812 244.666992188 152.5 268 c 0
 176.166992188 291.333007812 201.166992188 312.666992188 227.5 332 c 0
 253.833007812 351.333007812 278.833007812 370.666992188 302.5 390 c 0
 326.166992188 409.333007812 345.5 430.333007812 360.5 453 c 0
 375.5 475.666992188 383 501.666992188 383 531 c 0
 383 561.666992188 375.833007812 585.5 361.5 602.5 c 0
 347.166992188 619.5 326.666992188 628 300 628 c 0
 272 628 248.833007812 618.5 230.5 599.5 c 0
 212.166992188 580.5 201.333007812 551 198 511 c 1
 64 511 l 1
 70.6669921875 578.333007812 95.1669921875 631.666992188 137.5 671 c 0
 179.833007812 710.333007812 235 730 303 730 c 256
 371 730 424.833007812 711.833007812 464.5 675.5 c 0
 504.166992188 639.166992188 524 589 524 525 c 0
 524 488.333007812 517.833007812 456 505.5 428 c 0
 493.166992188 400 476.666992188 375 456 353 c 0
 435.333007812 331 413 311 389 293 c 0
 365 275 341.333007812 257.666992188 318 241 c 0
 294.666992188 224.333007812 273.5 207.166992188 254.5 189.5 c 0
 235.5 171.833007812 221.166992188 152.833007812 211.5 132.5 c 0
 201.833007812 112.166992188 199 89 203 63 c 1
 185 102 l 1
 537 102 l 1
 537 0 l 1
 72 0 l 1
EndSplineSet
Validated: 37
EndChar

StartChar: hyphen_greater.liga
Encoding: 65636 -1 343
Width: 843
GlyphClass: 3
LigCaretCntFixed: 1
Flags: HW
HStem: 302 116<65 630>
LayerCount: 3
Fore
SplineSet
65 418 m 1
 700 418 l 1
 630 368 l 1
 296 702 l 1
 455 702 l 1
 795 360 l 1
 455 18 l 1
 296 18 l 1
 630 352 l 1
 700 302 l 1
 65 302 l 1
 65 418 l 1
EndSplineSet
Validated: 5
Ligature2: "'liga' Standard Ligatures in Latin lookup 21 subtable" hyphen greater
LCarets2: 1 417
EndChar

StartChar: period
Encoding: 46 46 344
Width: 281
Flags: HW
HStem: 0 144<69 213>
VStem: 69 144<0 144>
LayerCount: 3
Fore
SplineSet
69 0 m 1
 69 144 l 1
 213 144 l 1
 213 0 l 1
 69 0 l 1
EndSplineSet
Validated: 1
Substitution2: "'ss01' Style Set 1 in Latin lookup 22 subtable" period.ss01
Substitution2: "'aalt' Access All Alternates in Latin lookup 0 subtable" period.ss01
EndChar

StartChar: comma
Encoding: 44 44 345
Width: 281
Flags: HW
HStem: -119 247<101 138>
VStem: 41 202
LayerCount: 3
Fore
SplineSet
138 -119 m 5
 41 -119 l 1
 101 128 l 1
 243 128 l 5
 138 -119 l 5
EndSplineSet
Validated: 1
Substitution2: "'ss01' Style Set 1 in Latin lookup 22 subtable" comma.ss01
Substitution2: "'aalt' Access All Alternates in Latin lookup 0 subtable" comma.ss01
EndChar

StartChar: exclam
Encoding: 33 33 349
Width: 301
Flags: HW
HStem: 0 144<79 223>
VStem: 79 144<0 144 584.409 740> 100 101<251 431.158>
LayerCount: 3
Fore
SplineSet
100 251 m 1xa0
 81 740 l 1
 220 740 l 1
 201 251 l 1
 100 251 l 1xa0
79 0 m 1xc0
 79 144 l 1
 223 144 l 1
 223 0 l 1
 79 0 l 1xc0
EndSplineSet
Validated: 1
Substitution2: "'ss01' Style Set 1 in Latin lookup 22 subtable" exclam.ss01
Substitution2: "'case' Case-Sensitive Forms in Latin lookup 20 subtable" exclam.case
AlternateSubs2: "'aalt' Access All Alternates in Latin lookup 1 subtable" exclam.case exclam.ss01
EndChar

StartChar: exclamdown
Encoding: 161 161 350
Width: 301
Flags: HW
HStem: 366 144<79 223>
VStem: 79 144<-205 -57.3636 366 510> 100 101<88.0526 259>
LayerCount: 3
Fore
SplineSet
81 -205 m 1xa0
 100 259 l 1
 201 259 l 1
 220 -205 l 1
 81 -205 l 1xa0
223 510 m 1xc0
 223 366 l 1
 79 366 l 1
 79 510 l 1
 223 510 l 1xc0
EndSplineSet
Validated: 1
Substitution2: "'ss01' Style Set 1 in Latin lookup 22 subtable" exclamdown.ss01
Substitution2: "'case' Case-Sensitive Forms in Latin lookup 20 subtable" exclamdown.case
AlternateSubs2: "'aalt' Access All Alternates in Latin lookup 1 subtable" exclamdown.case exclamdown.ss01
EndChar

StartChar: question
Encoding: 63 63 351
Width: 538
Flags: HW
HStem: 0 144<151 295> 645 105<109.735 310.802>
VStem: 151 144<0 144> 162 121<251 325.316> 341 129<498.368 616.514>
LayerCount: 3
Fore
SplineSet
162 251 m 5xd8
 162 285 166.333007812 313.5 175 336.5 c 4
 183.666992188 359.5 194.833007812 379 208.5 395 c 4
 222.166992188 411 236.5 425.166992188 251.5 437.5 c 4
 266.5 449.833007812 280.833007812 461.666992188 294.5 473 c 4
 308.166992188 484.333007812 319.333007812 496.833007812 328 510.5 c 4
 336.666992188 524.166992188 341 540.333007812 341 559 c 4
 341 587 331.166992188 608.333007812 311.5 623 c 4
 291.833007812 637.666992188 264.666992188 645 230 645 c 4
 176 645.666992188 129.666992188 635.333007812 91 614 c 5
 89 725 l 5
 127.666992188 742.333007812 175.333007812 750.666992188 232 750 c 4
 280 750 321.666992188 742.166992188 357 726.5 c 4
 392.333007812 710.833007812 420 688.666992188 440 660 c 4
 460 631.333007812 470 598 470 560 c 4
 470 531.333007812 465.5 507 456.5 487 c 4
 447.5 467 436 449.666992188 422 435 c 4
 408 420.333007812 392.833007812 407 376.5 395 c 4
 360.166992188 383 345 370.333007812 331 357 c 4
 317 343.666992188 305.5 328.666992188 296.5 312 c 4
 287.5 295.333007812 283 275 283 251 c 5
 162 251 l 5xd8
151 0 m 5xe8
 151 144 l 5
 295 144 l 5
 295 0 l 5
 151 0 l 5xe8
EndSplineSet
Validated: 33
Substitution2: "'ss01' Style Set 1 in Latin lookup 22 subtable" question.ss01
Substitution2: "'case' Case-Sensitive Forms in Latin lookup 20 subtable" question.case
AlternateSubs2: "'aalt' Access All Alternates in Latin lookup 1 subtable" question.case question.ss01
EndChar

StartChar: questiondown
Encoding: 191 191 352
Width: 576
Flags: HW
HStem: -169 105<189.198 390.265> 437 144<205 349>
VStem: 30 129<-35.417 82.2931> 205 144<437 581> 217 121<255.684 330>
LayerCount: 3
Fore
SplineSet
338 330 m 5xe8
 338 296 333.666992188 267.5 325 244.5 c 4
 316.333007812 221.5 305.166015625 202 291.5 186 c 4
 277.833007812 170 263.5 155.833007812 248.5 143.5 c 4
 233.630859375 131.274414062 219.297851562 119.44140625 205.5 108 c 4
 191.833007812 96.6669921875 180.666015625 84.1669921875 172 70.5 c 4
 163.333007812 56.8330078125 159 40.666015625 159 22 c 4
 159 -6 168.833007812 -27.3330078125 188.5 -42 c 4
 208.166992188 -56.6669921875 235.333984375 -64 270 -64 c 4
 324 -64.6669921875 370.333007812 -54.333984375 409 -33 c 5
 411 -144 l 5
 372.333007812 -161.333007812 324.666015625 -169.666015625 268 -169 c 4
 220 -169 178.333007812 -161.166992188 143 -145.5 c 4
 107.666992188 -129.833007812 80 -107.666015625 60 -79 c 4
 40 -50.3330078125 30 -17 30 21 c 4
 30 49.6669921875 34.5 74 43.5 94 c 4
 52.5 114 64 131.333007812 78 146 c 4
 92 160.666992188 107.166992188 174 123.5 186 c 4
 139.833007812 198 155 210.666992188 169 224 c 4
 183 237.333007812 194.5 252.333007812 203.5 269 c 4
 212.5 285.666992188 217 306 217 330 c 5
 338 330 l 5xe8
349 581 m 5xf0
 349 437 l 5
 205 437 l 5
 205 581 l 5
 349 581 l 5xf0
EndSplineSet
Validated: 33
Substitution2: "'ss01' Style Set 1 in Latin lookup 22 subtable" questiondown.ss01
Substitution2: "'case' Case-Sensitive Forms in Latin lookup 20 subtable" questiondown.case
AlternateSubs2: "'aalt' Access All Alternates in Latin lookup 1 subtable" questiondown.case questiondown.ss01
EndChar

StartChar: bullet
Encoding: 8226 8226 354
Width: 342
Flags: HW
HStem: 263 205<69 274>
VStem: 69 205<263 468>
LayerCount: 3
Fore
SplineSet
69 263 m 1
 69 468 l 1
 274 468 l 1
 274 263 l 1
 69 263 l 1
EndSplineSet
Validated: 1
Substitution2: "'ss01' Style Set 1 in Latin lookup 22 subtable" bullet.ss01
Substitution2: "'case' Case-Sensitive Forms in Latin lookup 20 subtable" bullet.case
AlternateSubs2: "'aalt' Access All Alternates in Latin lookup 1 subtable" bullet.case bullet.ss01
EndChar

StartChar: asterisk
Encoding: 42 42 355
Width: 437
Flags: HW
HStem: 417 323
LayerCount: 3
Fore
SplineSet
165 417 m 1
 190 530 l 1
 102 452 l 1
 48 544 l 1
 161 579 l 1
 48 614 l 1
 102 706 l 1
 190 628 l 1
 165 740 l 1
 273 740 l 1
 248 628 l 1
 336 706 l 1
 390 614 l 1
 277 579 l 1
 390 544 l 1
 336 452 l 1
 248 530 l 1
 273 417 l 1
 165 417 l 1
EndSplineSet
Validated: 1
EndChar

StartChar: numbersign
Encoding: 35 35 356
Width: 716
Flags: HW
HStem: 0 21G<131 242.778 376 487.778> 198 103<39 653> 429 103<64 678> 700 20G<228.222 340 473.222 585>
LayerCount: 3
Fore
SplineSet
131 0 m 1
 231 720 l 1
 340 720 l 1
 240 0 l 1
 131 0 l 1
376 0 m 1
 476 720 l 1
 585 720 l 1
 485 0 l 1
 376 0 l 1
64 532 m 1
 678 532 l 1
 678 429 l 1
 64 429 l 1
 64 532 l 1
39 301 m 1
 653 301 l 1
 653 198 l 1
 39 198 l 1
 39 301 l 1
EndSplineSet
Validated: 5
EndChar

StartChar: slash
Encoding: 47 47 357
Width: 442
Flags: HW
LayerCount: 3
Fore
SplineSet
42 -73 m 1
 291 763 l 1
 400 763 l 1
 151 -73 l 1
 42 -73 l 1
EndSplineSet
Validated: 1
EndChar

StartChar: backslash
Encoding: 92 92 358
Width: 442
Flags: HW
LayerCount: 3
Fore
SplineSet
42 763 m 1
 151 763 l 1
 400 -73 l 1
 291 -73 l 1
 42 763 l 1
EndSplineSet
Validated: 1
EndChar

StartChar: exclam.case
Encoding: 65639 -1 361
Width: 301
Flags: HW
HStem: 0 144<79 223> 700 20G<81 220>
VStem: 79 144<0 144 570.773 720> 100 101<251 423.789>
LayerCount: 3
Fore
SplineSet
100 251 m 1xd0
 81 720 l 1
 220 720 l 1
 201 251 l 1
 100 251 l 1xd0
79 0 m 1xe0
 79 144 l 1
 223 144 l 1
 223 0 l 1
 79 0 l 1xe0
EndSplineSet
Validated: 1
EndChar

StartChar: exclamdown.case
Encoding: 65640 -1 362
Width: 301
Flags: HW
HStem: 0 21G<81 220> 576 144<79 223>
VStem: 79 144<0 149.227 576 720> 100 101<296.211 469>
LayerCount: 3
Fore
SplineSet
81 0 m 1xd0
 100 469 l 1
 201 469 l 1
 220 0 l 1
 81 0 l 1xd0
223 720 m 1xe0
 223 576 l 1
 79 576 l 1
 79 720 l 1
 223 720 l 1xe0
EndSplineSet
Validated: 1
EndChar

StartChar: question.case
Encoding: 65641 -1 363
Width: 576
Flags: HW
HStem: 0 144<225 369> 513 21G<38 164.667> 628 102<219.209 385.62>
VStem: 38 124<513 572.648> 225 144<0 144> 236 121<251 320.213> 415 129<488.393 599.473>
LayerCount: 3
Fore
SplineSet
236 251 m 1xf6
 236 283 240.333007812 310 249 332 c 0
 257.666992188 354 268.833007812 372.666992188 282.5 388 c 0
 296.166992188 403.333007812 310.5 417 325.5 429 c 0
 340.5 441 354.833007812 452.5 368.5 463.5 c 0
 382.166992188 474.5 393.333007812 486.833007812 402 500.5 c 0
 410.666992188 514.166992188 415 530.333007812 415 549 c 0
 415 571.666992188 405.5 590.5 386.5 605.5 c 0
 367.5 620.5 340 628 304 628 c 0
 264.666992188 628 232.5 618.166992188 207.5 598.5 c 0
 182.5 578.833007812 167.333007812 550.333007812 162 513 c 1
 38 513 l 1
 44 557 58.6669921875 595.333007812 82 628 c 0
 105.333007812 660.666992188 136.166992188 685.833007812 174.5 703.5 c 0
 212.833007812 721.166992188 256.666992188 730 306 730 c 0
 354.666992188 730 396.666992188 722.333007812 432 707 c 0
 467.333007812 691.666992188 494.833007812 670.333007812 514.5 643 c 0
 534.166992188 615.666992188 544 584.666992188 544 550 c 0
 544 521.333007812 539.5 497 530.5 477 c 0
 521.5 457 510 439.833007812 496 425.5 c 0
 482 411.166992188 466.833007812 398 450.5 386 c 0
 434.166992188 374 419 361.833007812 405 349.5 c 0
 391 337.166992188 379.5 323.333007812 370.5 308 c 0
 361.5 292.666992188 357 273.666992188 357 251 c 1
 236 251 l 1xf6
225 0 m 1xfa
 225 144 l 1
 369 144 l 1
 369 0 l 1
 225 0 l 1xfa
EndSplineSet
Validated: 1
EndChar

StartChar: questiondown.case
Encoding: 65642 -1 364
Width: 576
Flags: HW
HStem: -10 102<194.018 363.34> 576 144<208 351>
VStem: 32 130<122.435 239.488> 208 143<576 720> 219 121<400.756 469>
LayerCount: 3
Fore
SplineSet
270 -10 m 0xe8
 223.333007812 -10 182.166992188 -2.5 146.5 12.5 c 0
 110.833007812 27.5 82.8330078125 48.8330078125 62.5 76.5 c 0
 42.1669921875 104.166992188 32 136.333007812 32 173 c 0
 32 202.333007812 36.5 227 45.5 247 c 0
 54.5 267 66 284.166992188 80 298.5 c 0
 94 312.833007812 109.166992188 325.833007812 125.5 337.5 c 0
 141.833007812 349.166992188 157 360.833007812 171 372.5 c 0
 185 384.166992188 196.5 397.833007812 205.5 413.5 c 0
 214.5 429.166992188 219 447.666992188 219 469 c 1
 340 469 l 1
 340 437 335.833007812 410.333007812 327.5 389 c 0
 319.166992188 367.666992188 308.166992188 349.666992188 294.5 335 c 0
 280.833007812 320.333007812 266.333007812 307.333007812 251 296 c 0
 235.666992188 284.666992188 221.166992188 273.666992188 207.5 263 c 0
 193.833007812 252.333007812 182.833007812 240.333007812 174.5 227 c 0
 166.166992188 213.666992188 162 197.333007812 162 178 c 0
 162 150.666992188 172.166992188 129.5 192.5 114.5 c 0
 212.833007812 99.5 241 92 277 92 c 0
 312.333007812 92 342.833007812 100.166992188 368.5 116.5 c 0
 394.166992188 132.833007812 409.333007812 157 414 189 c 1
 538 189 l 1
 532.666992188 147.666992188 518 112.166992188 494 82.5 c 0
 470 52.8330078125 438.833007812 30 400.5 14 c 0
 362.166992188 -2 318.666992188 -10 270 -10 c 0xe8
351 720 m 1xf0
 351 576 l 1
 208 576 l 1
 208 720 l 1
 351 720 l 1xf0
EndSplineSet
Validated: 1
EndChar

StartChar: bullet.case
Encoding: 65643 -1 365
Width: 715
Flags: HW
HStem: 90 577<69 646>
VStem: 69 577<90 667>
LayerCount: 3
Fore
SplineSet
69 90 m 1
 69 667 l 1
 646 667 l 1
 646 90 l 1
 69 90 l 1
EndSplineSet
Validated: 1
Substitution2: "'ss01' Style Set 1 in Latin lookup 22 subtable" bullet.case.ss01
Substitution2: "'aalt' Access All Alternates in Latin lookup 0 subtable" bullet.case.ss01
EndChar

StartChar: period.ss01
Encoding: 65645 -1 367
Width: 281
Flags: HW
HStem: -10 161<84.2369 196.248>
VStem: 60 161<14.639 126.363>
LayerCount: 3
Fore
SplineSet
141 -10 m 0
 118.333007812 -10 99.1669921875 -2.5 83.5 12.5 c 0
 67.8330078125 27.5 60 47 60 71 c 0
 60 94.3330078125 67.8330078125 113.5 83.5 128.5 c 0
 99.1669921875 143.5 118.333007812 151 141 151 c 0
 162.333007812 151 181 143.5 197 128.5 c 0
 213 113.5 221 94.3330078125 221 71 c 0
 221 46.3330078125 213 26.6669921875 197 12 c 0
 181 -2.6669921875 162.333007812 -10 141 -10 c 0
EndSplineSet
Validated: 1
EndChar

StartChar: comma.ss01
Encoding: 65646 -1 368
Width: 281
Flags: HW
VStem: 60 161<18.6127 120.928>
LayerCount: 3
Fore
SplineSet
76 -159 m 1
 76 -97 l 1
 100 -88.3330078125 118.166992188 -75.5 130.5 -58.5 c 0
 142.833007812 -41.5 149 -18 149 12 c 1
 189 12 l 1
 183 6.6669921875 175.5 2.3330078125 166.5 -1 c 0
 157.5 -4.3330078125 149 -6 141 -6 c 0
 117.666992188 -6 98.3330078125 1.3330078125 83 16 c 0
 67.6669921875 30.6669921875 60 49.3330078125 60 72 c 0
 60 96 67.8330078125 115.166992188 83.5 129.5 c 0
 99.1669921875 143.833007812 117.333007812 151 138 151 c 0
 160.666992188 151 180.166992188 142.166992188 196.5 124.5 c 0
 212.833007812 106.833007812 221 78.3330078125 221 39 c 0
 221 -10.3330078125 208.166992188 -52.5 182.5 -87.5 c 0
 156.833007812 -122.5 121.333007812 -146.333007812 76 -159 c 1
EndSplineSet
Validated: 5
EndChar

StartChar: exclam.ss01
Encoding: 65650 -1 372
Width: 301
Flags: HW
HStem: -10 161<94.237 206.248>
VStem: 70 161<14.639 126.363> 81 139<559.842 740> 100 101<251 431.158>
LayerCount: 3
Fore
SplineSet
100 251 m 1x90
 81 740 l 1
 220 740 l 1xa0
 201 251 l 1
 100 251 l 1x90
151 -10 m 0
 128.333007812 -10 109.166992188 -2.5 93.5 12.5 c 0
 77.8330078125 27.5 70 47 70 71 c 0
 70 94.3330078125 77.8330078125 113.5 93.5 128.5 c 0
 109.166992188 143.5 128.333007812 151 151 151 c 0
 172.333007812 151 191 143.5 207 128.5 c 0
 223 113.5 231 94.3330078125 231 71 c 0xc0
 231 46.3330078125 223 26.6669921875 207 12 c 0
 191 -2.6669921875 172.333007812 -10 151 -10 c 0
EndSplineSet
Validated: 1
EndChar

StartChar: exclamdown.ss01
Encoding: 65651 -1 373
Width: 318
Flags: HW
HStem: 359 161<103.782 215.278>
VStem: 78 161<384.361 494.635> 89 139<-205 -34.0526> 108 101<88.0526 259>
LayerCount: 3
Fore
SplineSet
89 -205 m 1xa0
 108 259 l 1
 209 259 l 1x90
 228 -205 l 1
 89 -205 l 1xa0
158 520 m 0
 181.333007812 520 200.666992188 512.5 216 497.5 c 0
 231.333007812 482.5 239 463 239 439 c 0
 239 415.666992188 231.333007812 396.5 216 381.5 c 0
 200.666992188 366.5 181.333007812 359 158 359 c 0
 138 359 119.666992188 366.5 103 381.5 c 0
 86.3330078125 396.5 78 415.666992188 78 439 c 0xc0
 78 463.666992188 86.3330078125 483.333007812 103 498 c 0
 119.666992188 512.666992188 138 520 158 520 c 0
EndSplineSet
Validated: 1
EndChar

StartChar: question.ss01
Encoding: 65652 -1 374
Width: 576
Flags: HW
HStem: -10 161<240.237 352.248> 648 102<219.209 382.792>
VStem: 38 124<533 592.648> 216 161<14.0955 126.363> 236 121<251 325.316> 415 129<498.368 617.068>
LayerCount: 3
Fore
SplineSet
236 251 m 1xec
 236 285 240.333007812 313.5 249 336.5 c 0
 257.666992188 359.5 268.833007812 379 282.5 395 c 0
 296.166992188 411 310.5 425.166992188 325.5 437.5 c 0
 340.5 449.833007812 354.833007812 461.666992188 368.5 473 c 0
 382.166992188 484.333007812 393.333007812 496.833007812 402 510.5 c 0
 410.666992188 524.166992188 415 540.333007812 415 559 c 0
 415 587 405.166992188 608.833007812 385.5 624.5 c 0
 365.833007812 640.166992188 338.666992188 648 304 648 c 0
 264.666992188 648 232.5 638.166992188 207.5 618.5 c 0
 182.5 598.833007812 167.333007812 570.333007812 162 533 c 1
 38 533 l 1
 44 577 58.6669921875 615.333007812 82 648 c 0
 105.333007812 680.666992188 136.166992188 705.833007812 174.5 723.5 c 0
 212.833007812 741.166992188 256.666992188 750 306 750 c 0
 354 750 395.666992188 742.166992188 431 726.5 c 0
 466.333007812 710.833007812 494 688.666992188 514 660 c 0
 534 631.333007812 544 598 544 560 c 0
 544 531.333007812 539.5 507 530.5 487 c 0
 521.5 467 510 449.666992188 496 435 c 0
 482 420.333007812 466.833007812 407 450.5 395 c 0
 434.166992188 383 419 370.333007812 405 357 c 0
 391 343.666992188 379.5 328.666992188 370.5 312 c 0
 361.5 295.333007812 357 275 357 251 c 1
 236 251 l 1xec
297 -10 m 0
 274.333007812 -10 255.166992188 -2.6669921875 239.5 12 c 0
 223.833007812 26.6669921875 216 46.3330078125 216 71 c 0
 216 94.3330078125 223.833007812 113.5 239.5 128.5 c 0
 255.166992188 143.5 274.333007812 151 297 151 c 0
 318.333007812 151 337 143.5 353 128.5 c 0
 369 113.5 377 94.3330078125 377 71 c 0xf4
 377 46.3330078125 369 26.6669921875 353 12 c 0
 337 -2.6669921875 318.333007812 -10 297 -10 c 0
EndSplineSet
Validated: 1
EndChar

StartChar: questiondown.ss01
Encoding: 65653 -1 375
Width: 576
Flags: HW
HStem: -215 102<193.075 363.34> 359 161<224.267 335.763>
VStem: 32 130<-83.5106 29.8152> 199 161<384.361 495.191> 219 121<191.562 259>
LayerCount: 3
Fore
SplineSet
270 -215 m 0xe8
 223.333007812 -215 182.166992188 -207.5 146.5 -192.5 c 0
 110.833007812 -177.5 82.8330078125 -156.333007812 62.5 -129 c 0
 42.1669921875 -101.666992188 32 -70 32 -34 c 0
 32 -5.3330078125 36.5 18.8330078125 45.5 38.5 c 0
 54.5 58.1669921875 66 75.1669921875 80 89.5 c 0
 94 103.833007812 109.166992188 116.666992188 125.5 128 c 0
 141.833007812 139.333007812 157 151 171 163 c 0
 185 175 196.5 188.666992188 205.5 204 c 0
 214.5 219.333007812 219 237.666992188 219 259 c 1
 340 259 l 1
 340 227 335.833007812 200.333007812 327.5 179 c 0
 319.166992188 157.666992188 308.166992188 139.666992188 294.5 125 c 0
 280.833007812 110.333007812 266.333007812 97.3330078125 251 86 c 0
 235.666992188 74.6669921875 221.166992188 63.6669921875 207.5 53 c 0
 193.833007812 42.3330078125 182.833007812 30.3330078125 174.5 17 c 0
 166.166992188 3.6669921875 162 -12.6669921875 162 -32 c 0
 162 -56.6669921875 172.166992188 -76.3330078125 192.5 -91 c 0
 212.833007812 -105.666992188 241 -113 277 -113 c 0
 312.333007812 -113 342.833007812 -104.833007812 368.5 -88.5 c 0
 394.166992188 -72.1669921875 409.333007812 -48 414 -16 c 1
 538 -16 l 1
 532.666992188 -57.3330078125 518 -92.8330078125 494 -122.5 c 0
 470 -152.166992188 438.833007812 -175 400.5 -191 c 0
 362.166992188 -207 318.666992188 -215 270 -215 c 0xe8
279 520 m 0
 301.666992188 520 320.833007812 512.666992188 336.5 498 c 0
 352.166992188 483.333007812 360 463.666992188 360 439 c 0
 360 415.666992188 352.166992188 396.5 336.5 381.5 c 0
 320.833007812 366.5 301.666992188 359 279 359 c 0
 258.333007812 359 239.833007812 366.5 223.5 381.5 c 0
 207.166992188 396.5 199 415.666992188 199 439 c 0xf0
 199 463.666992188 207.166992188 483.333007812 223.5 498 c 0
 239.833007812 512.666992188 258.333007812 520 279 520 c 0
EndSplineSet
Validated: 1
EndChar

StartChar: bullet.ss01
Encoding: 65655 -1 377
Width: 367
Flags: HW
HStem: 249 229<115.572 250.193>
VStem: 69 229<294.143 431.616>
LayerCount: 3
Fore
SplineSet
184 249 m 0
 152 249 124.833007812 259.5 102.5 280.5 c 0
 80.1669921875 301.5 69 329.333007812 69 364 c 0
 69 396.666992188 80.1669921875 423.833007812 102.5 445.5 c 0
 124.833007812 467.166992188 152 478 184 478 c 0
 214 478 240.5 467.166992188 263.5 445.5 c 0
 286.5 423.833007812 298 396.666992188 298 364 c 0
 298 329.333007812 286.5 301.5 263.5 280.5 c 0
 240.5 259.5 214 249 184 249 c 0
EndSplineSet
Validated: 1
EndChar

StartChar: bullet.case.ss01
Encoding: 65657 -1 379
Width: 784
Flags: HW
HStem: 48 646<271.37 509.376>
VStem: 69 646<247.932 492.766>
LayerCount: 3
Fore
SplineSet
394 48 m 0
 302.666992188 48 225.666992188 77.6669921875 163 137 c 0
 100.333007812 196.333007812 69 275 69 373 c 0
 69 465.666992188 100.333007812 542.333007812 163 603 c 0
 225.666992188 663.666992188 302.666992188 694 394 694 c 0
 478 694 552.5 663.666992188 617.5 603 c 0
 682.5 542.333007812 715 465.666992188 715 373 c 0
 715 275 682.5 196.333007812 617.5 137 c 0
 552.5 77.6669921875 478 48 394 48 c 0
EndSplineSet
Validated: 1
EndChar

StartChar: hyphen
Encoding: 45 45 381
Width: 491
Flags: HW
HStem: 219 106<70 421>
LayerCount: 3
Fore
SplineSet
70 219 m 1
 70 325 l 1
 421 325 l 1
 421 219 l 1
 70 219 l 1
EndSplineSet
Validated: 1
Substitution2: "'case' Case-Sensitive Forms in Latin lookup 20 subtable" hyphen.case
Substitution2: "'aalt' Access All Alternates in Latin lookup 0 subtable" hyphen.case
EndChar

StartChar: endash
Encoding: 8211 8211 382
Width: 597
Flags: HW
HStem: 224 96<70 527>
LayerCount: 3
Fore
SplineSet
70 224 m 1
 70 320 l 1
 527 320 l 1
 527 224 l 1
 70 224 l 1
EndSplineSet
Validated: 1
Substitution2: "'case' Case-Sensitive Forms in Latin lookup 20 subtable" endash.case
Substitution2: "'aalt' Access All Alternates in Latin lookup 0 subtable" endash.case
EndChar

StartChar: emdash
Encoding: 8212 8212 383
Width: 889
Flags: HW
HStem: 224 96<70 818>
LayerCount: 3
Fore
SplineSet
70 224 m 1
 70 320 l 1
 818 320 l 1
 818 224 l 1
 70 224 l 1
EndSplineSet
Validated: 1
Substitution2: "'case' Case-Sensitive Forms in Latin lookup 20 subtable" emdash.case
Substitution2: "'aalt' Access All Alternates in Latin lookup 0 subtable" emdash.case
EndChar

StartChar: hyphen.case
Encoding: 65659 -1 385
Width: 491
Flags: HW
HStem: 307 106<70 421>
LayerCount: 3
Fore
SplineSet
70 307 m 1
 70 413 l 1
 421 413 l 1
 421 307 l 1
 70 307 l 1
EndSplineSet
Validated: 1
EndChar

StartChar: endash.case
Encoding: 65660 -1 386
Width: 597
Flags: HW
HStem: 312 96<70 527>
LayerCount: 3
Fore
SplineSet
70 312 m 1
 70 408 l 1
 527 408 l 1
 527 312 l 1
 70 312 l 1
EndSplineSet
Validated: 1
EndChar

StartChar: emdash.case
Encoding: 65661 -1 387
Width: 889
Flags: HW
HStem: 312 96<70 818>
LayerCount: 3
Fore
SplineSet
70 312 m 1
 70 408 l 1
 818 408 l 1
 818 312 l 1
 70 312 l 1
EndSplineSet
Validated: 1
EndChar

StartChar: parenleft
Encoding: 40 40 388
Width: 443
Flags: HW
VStem: 78 119<167.251 469.78>
LayerCount: 3
Fore
SplineSet
273 -110 m 1
 206.333007812 -47.3330078125 157.166992188 20.8330078125 125.5 94.5 c 0
 93.8330078125 168.166992188 78 243.333007812 78 320 c 0
 78 395.333007812 94 470 126 544 c 0
 158 618 207 686.666992188 273 750 c 1
 395 750 l 1
 329 686.666992188 279.5 619.166992188 246.5 547.5 c 0
 213.5 475.833007812 197 400 197 320 c 0
 197 239.333007812 214 163.166992188 248 91.5 c 0
 282 19.8330078125 331 -47.3330078125 395 -110 c 1
 273 -110 l 1
EndSplineSet
Validated: 1
Substitution2: "'case' Case-Sensitive Forms in Latin lookup 20 subtable" parenleft.case
Substitution2: "'aalt' Access All Alternates in Latin lookup 0 subtable" parenleft.case
EndChar

StartChar: parenright
Encoding: 41 41 389
Width: 443
Flags: HW
VStem: 246 119<173.671 476.749>
LayerCount: 3
Fore
SplineSet
170 754 m 1
 236.666992188 691.333007812 285.833007812 623.166992188 317.5 549.5 c 0
 349.166992188 475.833007812 365 400.666992188 365 324 c 0
 365 248.666992188 349 173.833007812 317 99.5 c 0
 285 25.1669921875 236 -43.3330078125 170 -106 c 1
 48 -106 l 1
 114 -43.3330078125 163.5 23.8330078125 196.5 95.5 c 0
 229.5 167.166992188 246 243.333007812 246 324 c 256
 246 404.666992188 229 480.833007812 195 552.5 c 0
 161 624.166992188 112 691.333007812 48 754 c 1
 170 754 l 1
EndSplineSet
Validated: 1
Substitution2: "'case' Case-Sensitive Forms in Latin lookup 20 subtable" parenright.case
Substitution2: "'aalt' Access All Alternates in Latin lookup 0 subtable" parenright.case
EndChar

StartChar: braceleft
Encoding: 123 123 390
Width: 443
Flags: HW
HStem: -108 99<248.505 385> 271 100<38 139.247> 651 99<248.505 385>
CounterMasks: 1 e0
LayerCount: 3
Fore
SplineSet
291 -108 m 2
 245.666992188 -108 209.666992188 -100.166992188 183 -84.5 c 0
 156.333007812 -68.8330078125 138.5 -47.6669921875 129.5 -21 c 0
 120.5 5.6669921875 119.333007812 36 126 70 c 2
 148 173 l 2
 155.333007812 207 153 231.833007812 141 247.5 c 0
 129 263.166992188 107 271 75 271 c 2
 38 271 l 1
 38 371 l 1
 75 371 l 2
 107 371 129 379 141 395 c 0
 153 411 155.333007812 435.666992188 148 469 c 2
 126 572 l 2
 119.333007812 606 120.5 636.333007812 129.5 663 c 0
 138.5 689.666992188 156.333007812 710.833007812 183 726.5 c 0
 209.666992188 742.166992188 245.666992188 750 291 750 c 2
 385 750 l 1
 385 651 l 1
 299 651 l 2
 275.666992188 651 258.666992188 644 248 630 c 0
 237.333007812 616 235 596.666992188 241 572 c 2
 264 473 l 2
 274 433.666992188 271.5 401 256.5 375 c 0
 241.5 349 218.333007812 331 187 321 c 1
 218.333007812 311 241.5 293 256.5 267 c 0
 271.5 241 274 208.333007812 264 169 c 2
 241 70 l 2
 235 45.3330078125 237.333007812 26 248 12 c 0
 258.666992188 -2 275.666992188 -9 299 -9 c 2
 385 -9 l 1
 385 -108 l 1
 291 -108 l 2
EndSplineSet
Validated: 33
Substitution2: "'case' Case-Sensitive Forms in Latin lookup 20 subtable" braceleft.case
Substitution2: "'aalt' Access All Alternates in Latin lookup 0 subtable" braceleft.case
EndChar

StartChar: braceright
Encoding: 125 125 391
Width: 443
Flags: HW
HStem: -108 99<58 194.495> 271 100<303.753 405> 651 99<58 194.495>
CounterMasks: 1 e0
LayerCount: 3
Fore
SplineSet
152 750 m 2
 197.333007812 750 233.333007812 742.166992188 260 726.5 c 0
 286.666992188 710.833007812 304.666992188 689.666992188 314 663 c 0
 323.333007812 636.333007812 324.333007812 606 317 572 c 2
 295 469 l 2
 287.666992188 435.666992188 290 411 302 395 c 0
 314 379 336 371 368 371 c 2
 405 371 l 1
 405 271 l 1
 368 271 l 2
 336 271 314 263.166992188 302 247.5 c 0
 290 231.833007812 287.666992188 207 295 173 c 2
 317 70 l 2
 324.333007812 36 323.333007812 5.6669921875 314 -21 c 0
 304.666992188 -47.6669921875 286.666992188 -68.8330078125 260 -84.5 c 0
 233.333007812 -100.166992188 197.333007812 -108 152 -108 c 2
 58 -108 l 1
 58 -9 l 1
 144 -9 l 2
 167.333007812 -9 184.333007812 -2 195 12 c 0
 205.666992188 26 208 45.3330078125 202 70 c 2
 179 169 l 2
 169 208.333007812 171.5 241 186.5 267 c 0
 201.5 293 224.666992188 311 256 321 c 1
 224.666992188 331 201.5 349 186.5 375 c 0
 171.5 401 169 433.666992188 179 473 c 2
 202 572 l 2
 208 596.666992188 205.666992188 616 195 630 c 0
 184.333007812 644 167.333007812 651 144 651 c 2
 58 651 l 1
 58 750 l 1
 152 750 l 2
EndSplineSet
Validated: 33
Substitution2: "'case' Case-Sensitive Forms in Latin lookup 20 subtable" braceright.case
Substitution2: "'aalt' Access All Alternates in Latin lookup 0 subtable" braceright.case
EndChar

StartChar: bracketleft
Encoding: 91 91 392
Width: 443
Flags: HW
HStem: -108 99<206 385> 651 99<206 385>
VStem: 88 297<-108 -9 651 750> 88 118<-9 651>
LayerCount: 3
Fore
SplineSet
88 -108 m 1xe0
 88 750 l 1
 385 750 l 1
 385 651 l 1xe0
 206 651 l 1
 206 -9 l 1xd0
 385 -9 l 1
 385 -108 l 1
 88 -108 l 1xe0
EndSplineSet
Validated: 1
Substitution2: "'case' Case-Sensitive Forms in Latin lookup 20 subtable" bracketleft.case
Substitution2: "'aalt' Access All Alternates in Latin lookup 0 subtable" bracketleft.case
EndChar

StartChar: bracketright
Encoding: 93 93 393
Width: 443
Flags: HW
HStem: -108 99<58 237> 651 99<58 237>
VStem: 58 297<-108 -9 651 750> 237 118<-9 651>
LayerCount: 3
Fore
SplineSet
355 750 m 1xe0
 355 -108 l 1
 58 -108 l 1
 58 -9 l 1xe0
 237 -9 l 1
 237 651 l 1xd0
 58 651 l 1
 58 750 l 1
 355 750 l 1xe0
EndSplineSet
Validated: 1
Substitution2: "'case' Case-Sensitive Forms in Latin lookup 20 subtable" bracketright.case
Substitution2: "'aalt' Access All Alternates in Latin lookup 0 subtable" bracketright.case
EndChar

StartChar: parenleft.case
Encoding: 65662 -1 394
Width: 443
Flags: HW
VStem: 78 119<219.376 500.456>
LayerCount: 3
Fore
SplineSet
273 -40 m 1
 229 -2 192.5 39 163.5 83 c 0
 134.5 127 113 172.666992188 99 220 c 0
 85 267.333007812 78 313.666992188 78 359 c 0
 78 405 85 451.666992188 99 499 c 0
 113 546.333007812 134.666992188 592.166992188 164 636.5 c 0
 193.333007812 680.833007812 229.666992188 722 273 760 c 1
 395 760 l 1
 329 703.333007812 279.5 640.5 246.5 571.5 c 0
 213.5 502.5 197 431.666992188 197 359 c 256
 197 286.333007812 214 215.833007812 248 147.5 c 0
 282 79.1669921875 331 16.6669921875 395 -40 c 1
 273 -40 l 1
EndSplineSet
Validated: 1
EndChar

StartChar: parenright.case
Encoding: 65663 -1 395
Width: 443
Flags: HW
VStem: 246 119<219.544 500.875>
LayerCount: 3
Fore
SplineSet
170 760 m 1
 214 722.666992188 250.5 681.833007812 279.5 637.5 c 0
 308.5 593.166992188 330 547.5 344 500.5 c 0
 358 453.5 365 407 365 361 c 256
 365 315 358 268.333007812 344 221 c 0
 330 173.666992188 308.5 127.833007812 279.5 83.5 c 0
 250.5 39.1669921875 214 -2 170 -40 c 1
 48 -40 l 1
 114 16.6669921875 163.5 79.5 196.5 148.5 c 0
 229.5 217.5 246 288.333007812 246 361 c 256
 246 433.666992188 229 504.166992188 195 572.5 c 0
 161 640.833007812 112 703.333007812 48 760 c 1
 170 760 l 1
EndSplineSet
Validated: 1
EndChar

StartChar: braceleft.case
Encoding: 65664 -1 396
Width: 443
Flags: HW
HStem: -40 99<247.263 385> 310 100<38 140.83> 661 99<247.263 385>
CounterMasks: 1 e0
LayerCount: 3
Fore
SplineSet
291 -40 m 2
 245.666992188 -40 208.833007812 -32 180.5 -16 c 0
 152.166992188 0 133.333007812 21.5 124 48.5 c 0
 114.666992188 75.5 115.333007812 105.333007812 126 138 c 2
 148 212 l 2
 158.666992188 244.666992188 157.166992188 269.166992188 143.5 285.5 c 0
 129.833007812 301.833007812 107 310 75 310 c 2
 38 310 l 1
 38 410 l 1
 75 410 l 2
 107 410 129.833007812 418.166992188 143.5 434.5 c 0
 157.166992188 450.833007812 158.666992188 475.333007812 148 508 c 2
 126 582 l 2
 115.333007812 615.333007812 114.666992188 645.5 124 672.5 c 0
 133.333007812 699.5 152.166992188 720.833007812 180.5 736.5 c 0
 208.833007812 752.166992188 245.666992188 760 291 760 c 2
 385 760 l 1
 385 661 l 1
 299 661 l 2
 275.666992188 661 258.166992188 653.833007812 246.5 639.5 c 0
 234.833007812 625.166992188 233 606 241 582 c 2
 264 512 l 2
 273.333007812 486.666992188 275.666992188 463.666992188 271 443 c 0
 266.333007812 422.333007812 256.5 405 241.5 391 c 0
 226.5 377 208.333007812 366.666992188 187 360 c 1
 208.333007812 353.333007812 226.5 343 241.5 329 c 0
 256.5 315 266.333007812 297.833007812 271 277.5 c 0
 275.666992188 257.166992188 273.333007812 234 264 208 c 2
 241 138 l 2
 233 114 234.833007812 94.8330078125 246.5 80.5 c 0
 258.166992188 66.1669921875 275.666992188 59 299 59 c 2
 385 59 l 1
 385 -40 l 1
 291 -40 l 2
EndSplineSet
Validated: 33
EndChar

StartChar: braceright.case
Encoding: 65665 -1 397
Width: 443
Flags: HW
HStem: -40 99<58 195.737> 310 100<302.17 405> 661 99<58 195.737>
CounterMasks: 1 e0
LayerCount: 3
Fore
SplineSet
152 760 m 2
 197.333007812 760 234.166992188 752.166992188 262.5 736.5 c 0
 290.833007812 720.833007812 309.666992188 699.5 319 672.5 c 0
 328.333007812 645.5 327.666992188 615.333007812 317 582 c 2
 295 508 l 2
 284.333007812 475.333007812 285.833007812 450.833007812 299.5 434.5 c 0
 313.166992188 418.166992188 336 410 368 410 c 2
 405 410 l 1
 405 310 l 1
 368 310 l 2
 336 310 313.166992188 301.833007812 299.5 285.5 c 0
 285.833007812 269.166992188 284.333007812 244.666992188 295 212 c 2
 317 138 l 2
 327.666992188 105.333007812 328.333007812 75.5 319 48.5 c 0
 309.666992188 21.5 290.833007812 0 262.5 -16 c 0
 234.166992188 -32 197.333007812 -40 152 -40 c 2
 58 -40 l 1
 58 59 l 1
 144 59 l 2
 167.333007812 59 184.833007812 66.1669921875 196.5 80.5 c 0
 208.166992188 94.8330078125 210 114 202 138 c 2
 179 208 l 2
 169.666992188 234 167.333007812 257.166992188 172 277.5 c 0
 176.666992188 297.833007812 186.666992188 315 202 329 c 0
 217.333007812 343 235.333007812 353.333007812 256 360 c 1
 235.333007812 366.666992188 217.333007812 377 202 391 c 0
 186.666992188 405 176.666992188 422.333007812 172 443 c 0
 167.333007812 463.666992188 169.666992188 486.666992188 179 512 c 2
 202 582 l 2
 210 606 208.166992188 625.166992188 196.5 639.5 c 0
 184.833007812 653.833007812 167.333007812 661 144 661 c 2
 58 661 l 1
 58 760 l 1
 152 760 l 2
EndSplineSet
Validated: 33
EndChar

StartChar: bracketleft.case
Encoding: 65666 -1 398
Width: 443
Flags: HW
HStem: -40 99<206 385> 661 99<206 385>
VStem: 88 297<-40 59 661 760> 88 118<59 661>
LayerCount: 3
Fore
SplineSet
88 -40 m 1xe0
 88 760 l 1
 385 760 l 1
 385 661 l 1xe0
 206 661 l 1
 206 59 l 1xd0
 385 59 l 1
 385 -40 l 1
 88 -40 l 1xe0
EndSplineSet
Validated: 1
EndChar

StartChar: bracketright.case
Encoding: 65667 -1 399
Width: 443
Flags: HW
HStem: -40 99<58 237> 661 99<58 237>
VStem: 58 297<-40 59 661 760> 237 118<59 661>
LayerCount: 3
Fore
SplineSet
355 760 m 1xe0
 355 -40 l 1
 58 -40 l 1
 58 59 l 1xe0
 237 59 l 1
 237 661 l 1xd0
 58 661 l 1
 58 760 l 1
 355 760 l 1xe0
EndSplineSet
Validated: 1
EndChar

StartChar: quoteleft
Encoding: 8216 8216 404
Width: 281
Flags: HW
HStem: 477 246<171 206>
VStem: 78 182
LayerCount: 3
Fore
SplineSet
206 477 m 1
 78 477 l 5
 171 723 l 5
 260 723 l 1
 206 477 l 1
EndSplineSet
Validated: 1
Substitution2: "'ss01' Style Set 1 in Latin lookup 22 subtable" quoteleft.ss01
Substitution2: "'aalt' Access All Alternates in Latin lookup 0 subtable" quoteleft.ss01
EndChar

StartChar: quoteright
Encoding: 8217 8217 405
Width: 281
Flags: HW
HStem: 477 246<138 174>
VStem: 82 185
LayerCount: 3
Fore
SplineSet
174 477 m 5
 82 477 l 1
 138 723 l 1
 267 723 l 5
 174 477 l 5
EndSplineSet
Validated: 1
Substitution2: "'ss01' Style Set 1 in Latin lookup 22 subtable" quoteright.ss01
Substitution2: "'aalt' Access All Alternates in Latin lookup 0 subtable" quoteright.ss01
EndChar

StartChar: guillemotright
Encoding: 187 187 407
Width: 549
Flags: HW
LayerCount: 3
Fore
SplineSet
367 434 m 1
 497 251 l 1
 367 68 l 1
 247 68 l 1
 373 251 l 1
 247 434 l 1
 367 434 l 1
182 434 m 1
 312 251 l 1
 182 68 l 1
 63 68 l 1
 188 251 l 1
 63 434 l 1
 182 434 l 1
EndSplineSet
Validated: 1
EndChar

StartChar: guilsinglleft
Encoding: 8249 8249 408
Width: 364
Flags: HW
VStem: 53 249
LayerCount: 3
Fore
SplineSet
182 68 m 1
 53 251 l 1
 182 434 l 1
 302 434 l 1
 176 251 l 1
 302 68 l 1
 182 68 l 1
EndSplineSet
Validated: 1
EndChar

StartChar: guilsinglright
Encoding: 8250 8250 409
Width: 364
Flags: HW
VStem: 63 249
LayerCount: 3
Fore
SplineSet
182 68 m 1
 63 68 l 1
 188 251 l 1
 63 434 l 1
 182 434 l 1
 312 251 l 1
 182 68 l 1
EndSplineSet
Validated: 1
EndChar

StartChar: quotesingle
Encoding: 39 39 411
Width: 262
InSpiro: 1
Flags: HW
HStem: 446 304<84 178>
VStem: 84 94<446 552.4>
LayerCount: 3
Fore
SplineSet
84 446 m 1
 64 750 l 1
 198 750 l 1
 178 446 l 1
 84 446 l 1
  Spiro
    84 446 v
    64 750 v
    198 750 v
    178 446 v
    0 0 z
  EndSpiro
EndSplineSet
Validated: 1
EndChar

StartChar: quoteleft.ss01
Encoding: 65672 -1 416
Width: 297
Flags: HW
HStem: 678 62<172.672 224>
VStem: 69 162<471.506 571.583>
LayerCount: 3
Fore
SplineSet
153 443 m 0
 129 443 109 451.666992188 93 469 c 0
 77 486.333007812 69 514 69 552 c 0
 69 599.333007812 82.3330078125 640.166992188 109 674.5 c 0
 135.666992188 708.833007812 174 730.666992188 224 740 c 1
 224 678 l 1
 195.333007812 673.333007812 174.333007812 662.666992188 161 646 c 0
 147.666992188 629.333007812 141 606 141 576 c 1
 101 576 l 1
 107 580.666992188 114.666992188 584.833007812 124 588.5 c 0
 133.333007812 592.166992188 141.666992188 594 149 594 c 0
 173.666992188 594 193.5 586.833007812 208.5 572.5 c 0
 223.5 558.166992188 231 540.333007812 231 519 c 0
 231 497 223.333007812 478.833007812 208 464.5 c 0
 192.666992188 450.166992188 174.333007812 443 153 443 c 0
EndSplineSet
Validated: 5
EndChar

StartChar: quoteright.ss01
Encoding: 65673 -1 417
Width: 281
Flags: HW
HStem: 456 62<66 119.806>
VStem: 59 162<623.57 721.427>
LayerCount: 3
Fore
SplineSet
66 456 m 1
 66 518 l 1
 95.3330078125 522 116.5 532.166992188 129.5 548.5 c 0
 142.5 564.833007812 149 587.666992188 149 617 c 1
 189 618 l 1
 183 612.666992188 175.5 608.333007812 166.5 605 c 0
 157.5 601.666992188 149 600 141 600 c 0
 117 600 97.3330078125 607 82 621 c 0
 66.6669921875 635 59 653 59 675 c 256
 59 697 66.6669921875 715 82 729 c 0
 97.3330078125 743 115.666992188 750 137 750 c 0
 161 750 181 741.333007812 197 724 c 0
 213 706.666992188 221 679 221 641 c 0
 221 593.666992188 207.833007812 553.166992188 181.5 519.5 c 0
 155.166992188 485.833007812 116.666992188 464.666992188 66 456 c 1
EndSplineSet
Validated: 5
EndChar

StartChar: less_hyphen.liga
Encoding: 65674 -1 418
Width: 843
GlyphClass: 3
LigCaretCntFixed: 1
Flags: HW
HStem: 302 116<230 795>
LayerCount: 3
Fore
SplineSet
795 302 m 1
 160 302 l 1
 230 352 l 1
 564 18 l 1
 406 18 l 1
 65 360 l 1
 406 702 l 1
 565 702 l 1
 230 368 l 1
 160 418 l 1
 795 418 l 1
 795 302 l 1
EndSplineSet
Validated: 5
Ligature2: "'liga' Standard Ligatures in Latin lookup 21 subtable" less hyphen
LCarets2: 1 417
EndChar

StartChar: at
Encoding: 64 64 419
Width: 869
Flags: HW
HStem: -10 81<292.114 574.88> 3 110<568.653 630.359> 151 81<584.667 675.391> 152 92<352.38 434.57> 480 92<377.965 486.181> 649 81<337.679 610.182>
VStem: 41 88<218.507 450.597> 214 114<268.792 424.113> 740 87<320.743 531.225>
LayerCount: 3
Fore
SplineSet
432 -10 m 0x8f80
 352.666992188 -10 283.833007812 3.8330078125 225.5 31.5 c 0
 167.166992188 59.1669921875 121.833007812 98.1669921875 89.5 148.5 c 0
 57.1669921875 198.833007812 41 258 41 326 c 0
 41 383.333007812 51 436.5 71 485.5 c 0
 91 534.5 120.166992188 577.333007812 158.5 614 c 0
 196.833007812 650.666992188 243.333007812 679.166992188 298 699.5 c 0
 352.666992188 719.833007812 414.333007812 730 483 730 c 0
 552.333007812 730 612.666992188 717.833007812 664 693.5 c 0
 715.333007812 669.166992188 755.333007812 635.333007812 784 592 c 0
 812.666992188 548.666992188 827 498 827 440 c 0
 827 402 821 365.666992188 809 331 c 0
 797 296.333007812 780.166992188 265.5 758.5 238.5 c 0
 736.833007812 211.5 712.166992188 190.166992188 684.5 174.5 c 0
 656.833007812 158.833007812 627.666992188 151 597 151 c 0xaf80
 572.333007812 151 551.5 156.333007812 534.5 167 c 0
 517.5 177.666992188 506 192.166992188 500 210.5 c 0
 494 228.833007812 494.333007812 249.666992188 501 273 c 1
 503 249 l 1
 487 218.333007812 466.166992188 194.5 440.5 177.5 c 0
 414.833007812 160.5 387 152 357 152 c 0x1f80
 315 152 280.666992188 167.166992188 254 197.5 c 0
 227.333007812 227.833007812 214 268.333007812 214 319 c 0
 214 353 219.333007812 385.166992188 230 415.5 c 0
 240.666992188 445.833007812 255.5 472.833007812 274.5 496.5 c 0
 293.5 520.166992188 315.333007812 538.666992188 340 552 c 0
 364.666992188 565.333007812 391 572 419 572 c 0
 460.333007812 572 491.5 560.666992188 512.5 538 c 0
 533.5 515.333007812 542.333007812 486.666992188 539 452 c 1
 529 453 l 1
 553 544 l 1
 664 544 l 1
 603 308 l 2
 596.333007812 282 594.833007812 262.833007812 598.5 250.5 c 0
 602.166992188 238.166992188 611 232 625 232 c 0
 640.333007812 232 654.833007812 237.333007812 668.5 248 c 0
 682.166992188 258.666992188 694.333007812 273.166992188 705 291.5 c 0
 715.666992188 309.833007812 724.166992188 331 730.5 355 c 0
 736.833007812 379 740 404 740 430 c 0
 740 476.666992188 729.5 516.333007812 708.5 549 c 0
 687.5 581.666992188 657.666992188 606.5 619 623.5 c 0
 580.333007812 640.5 534.333007812 649 481 649 c 0
 423.666992188 649 373.166992188 640.833007812 329.5 624.5 c 0
 285.833007812 608.166992188 249.166992188 585.5 219.5 556.5 c 0
 189.833007812 527.5 167.333007812 493.5 152 454.5 c 0
 136.666992188 415.5 129 373.333007812 129 328 c 0
 129 275.333007812 141 229.666992188 165 191 c 0
 189 152.333007812 223.333007812 122.666992188 268 102 c 0
 312.666992188 81.3330078125 365.666992188 71 427 71 c 0xaf80
 461.666992188 71 496.5 74.6669921875 531.5 82 c 0
 566.5 89.3330078125 600 99.6669921875 632 113 c 1
 662 39 l 1
 631.333007812 23.6669921875 596.166992188 11.6669921875 556.5 3 c 0x4f80
 516.833007812 -5.6669921875 475.333007812 -10 432 -10 c 0x8f80
404 244 m 0x1f80
 418.666992188 244 432.333007812 247.833007812 445 255.5 c 0
 457.666992188 263.166992188 468.833007812 273.666992188 478.5 287 c 0
 488.166992188 300.333007812 495.666992188 315.5 501 332.5 c 0
 506.333007812 349.5 509 367.666992188 509 387 c 0
 509 415.666992188 502.333007812 438.333007812 489 455 c 0
 475.666992188 471.666992188 457.333007812 480 434 480 c 0
 419.333007812 480 405.666992188 476.333007812 393 469 c 0
 380.333007812 461.666992188 369 451.333007812 359 438 c 0
 349 424.666992188 341.333007812 409.5 336 392.5 c 0
 330.666992188 375.5 328 357.333007812 328 338 c 0
 328 308 335 284.833007812 349 268.5 c 0
 363 252.166992188 381.333007812 244 404 244 c 0x1f80
EndSplineSet
Validated: 37
EndChar

StartChar: ampersand
Encoding: 65675 -1 420
Width: 762
Flags: HW
HStem: -10 103<215.617 423.82> 0 21G<566.407 745> 640 90<271.836 392.367>
VStem: 33 125<144.288 280.718> 131 119<502.25 618.273> 416 112<505.132 616.53> 568 119<248.795 388>
LayerCount: 3
Fore
SplineSet
585 0 m 1x6e
 215 398 l 2
 193.666992188 421.333007812 176.833007812 442.166992188 164.5 460.5 c 0
 152.166992188 478.833007812 143.5 496.333007812 138.5 513 c 0
 133.5 529.666992188 131 547.333007812 131 566 c 0
 131 596.666992188 139.333007812 624.333007812 156 649 c 0
 172.666992188 673.666992188 195.833007812 693.333007812 225.5 708 c 0
 255.166992188 722.666992188 289.666992188 730 329 730 c 0
 367 730 401 723.166992188 431 709.5 c 0
 461 695.833007812 484.666992188 676.333007812 502 651 c 0
 519.333007812 625.666992188 528 595.666992188 528 561 c 0
 528 519.666992188 512.833007812 482.166992188 482.5 448.5 c 0
 452.166992188 414.833007812 407 387.666992188 347 367 c 1
 288 441 l 1
 332 455.666992188 364.333007812 473.333007812 385 494 c 0
 405.666992188 514.666992188 416 537.666992188 416 563 c 0
 416 585 408.333007812 603.333007812 393 618 c 0
 377.666992188 632.666992188 357 640 331 640 c 256
 305 640 285 632.833007812 271 618.5 c 0
 257 604.166992188 250 586.666992188 250 566 c 0
 250 554.666992188 252.166992188 542.833007812 256.5 530.5 c 0
 260.833007812 518.166992188 270.166992188 503 284.5 485 c 0
 298.833007812 467 320 443.333007812 348 414 c 2
 745 0 l 1
 585 0 l 1x6e
306 -10 m 0xb6
 251.333007812 -10 203.5 -1 162.5 17 c 0
 121.5 35 89.6669921875 59.8330078125 67 91.5 c 0
 44.3330078125 123.166992188 33 159.666992188 33 201 c 0
 33 256.333007812 51.6669921875 303.333007812 89 342 c 0
 126.333007812 380.666992188 180.333007812 410.666992188 251 432 c 1
 311 358 l 1
 273.666992188 346 243.666992188 332.666992188 221 318 c 0
 198.333007812 303.333007812 182.166992188 287.5 172.5 270.5 c 0
 162.833007812 253.5 158 234.333007812 158 213 c 0
 158 175 172 145.5 200 124.5 c 0
 228 103.5 266.666992188 93 316 93 c 0
 350.666992188 93 383 98.6669921875 413 110 c 0
 443 121.333007812 469.666992188 138.833007812 493 162.5 c 0
 516.333007812 186.166992188 534.666992188 216.666992188 548 254 c 0
 561.333007812 291.333007812 568 336 568 388 c 1
 687 388 l 1
 687 340 680.833007812 295.5 668.5 254.5 c 0
 656.166992188 213.5 638.5 176.666992188 615.5 144 c 0
 592.5 111.333007812 565.333007812 83.5 534 60.5 c 0
 502.666992188 37.5 467.666992188 20 429 8 c 0
 390.333007812 -4 349.333007812 -10 306 -10 c 0xb6
EndSplineSet
Validated: 5
Substitution2: "'calt' Contextual Alternates in Latin lookup 32 subtable" ampersand.ss11
Substitution2: "'aalt' Access All Alternates in Latin lookup 0 subtable" ampersand.ss11
EndChar

StartChar: paragraph
Encoding: 182 182 421
Width: 662
Flags: HW
HStem: 626 94<402 478>
VStem: 33 369<427.364 615.439> 284 118<-130 326> 478 118<-130 626>
LayerCount: 3
Fore
SplineSet
284 -130 m 1xb0
 284 326 l 1xb0
 235 326 l 2
 197 326 162.666992188 334.166992188 132 350.5 c 0
 101.333007812 366.833007812 77.1669921875 389.666992188 59.5 419 c 0
 41.8330078125 448.333007812 33 482 33 520 c 0xd0
 33 559.333007812 41.8330078125 594 59.5 624 c 0
 77.1669921875 654 101.5 677.5 132.5 694.5 c 0
 163.5 711.5 198.666992188 720 238 720 c 2
 596 720 l 1
 596 -130 l 1
 478 -130 l 1
 478 626 l 1
 402 626 l 1
 402 -130 l 1
 284 -130 l 1xb0
EndSplineSet
Validated: 1
EndChar

StartChar: section
Encoding: 167 167 422
Width: 516
Flags: HW
HStem: -56 91<183.052 322.029> 182 80<275 307.667> 412 80<209.333 242> 639 91<196.414 334.496>
VStem: 35 113<304.38 394.653> 65 113<544.308 623.717> 339 113<50.2827 129.709> 369 113<279.605 370.408>
LayerCount: 3
Fore
SplineSet
274 182 m 1xf5
 275 262 l 1
 307.666992188 262 331.5 267.5 346.5 278.5 c 0
 361.5 289.5 369 305 369 325 c 0
 369 343.666992188 363.166992188 358.333007812 351.5 369 c 0
 339.833007812 379.666992188 322 388.333007812 298 395 c 2
 217 415 l 2
 166.333007812 427.666992188 128.333007812 447 103 473 c 0
 77.6669921875 499 65 532.333007812 65 573 c 0
 65 621.666992188 82.6669921875 660 118 688 c 0
 153.333007812 716 202 730 264 730 c 256
 326 730 375.666992188 716.333007812 413 689 c 0
 450.333007812 661.666992188 471 623.666992188 475 575 c 1
 361 575 l 1
 358.333007812 596.333007812 348.5 612.333007812 331.5 623 c 0
 314.5 633.666992188 291.333007812 639 262 639 c 0
 234.666992188 639 213.833007812 634.166992188 199.5 624.5 c 0
 185.166992188 614.833007812 178 601.333007812 178 584 c 0
 178 568.666992188 183.666992188 556 195 546 c 0
 206.333007812 536 225 527.666992188 251 521 c 2
 337 499 l 2
 384.333007812 487.666992188 420.333007812 467.833007812 445 439.5 c 0
 469.666992188 411.166992188 482 376.666992188 482 336 c 0
 482 287.333007812 463.833007812 249.5 427.5 222.5 c 0
 391.166992188 195.5 340 182 274 182 c 1xf5
253 -56 m 256
 191 -56 141.5 -42.3330078125 104.5 -15 c 0
 67.5 12.3330078125 47 50.3330078125 43 99 c 1
 156 99 l 1
 159.333007812 77.6669921875 169.5 61.6669921875 186.5 51 c 0
 203.5 40.3330078125 226.333007812 35 255 35 c 0
 283 35 304 39.8330078125 318 49.5 c 0
 332 59.1669921875 339 72.6669921875 339 90 c 0
 339 105.333007812 333.666992188 118 323 128 c 0
 312.333007812 138 293.666992188 146.333007812 267 153 c 2
 181 175 l 2
 133 187.666992188 96.6669921875 208 72 236 c 0
 47.3330078125 264 35 298 35 338 c 0
 35 386.666992188 53.1669921875 424.5 89.5 451.5 c 0
 125.833007812 478.5 177 492 243 492 c 1
 242 412 l 1
 209.333007812 412 185.5 406.666992188 170.5 396 c 0
 155.5 385.333007812 148 369.666992188 148 349 c 0
 148 331 153.833007812 316.666992188 165.5 306 c 0
 177.166992188 295.333007812 195.333007812 286.666992188 220 280 c 2
 300 259 l 2
 351.333007812 247 389.5 227.833007812 414.5 201.5 c 0
 439.5 175.166992188 452 141.666992188 452 101 c 0xfa
 452 52.3330078125 434.333007812 14 399 -14 c 0
 363.666992188 -42 315 -56 253 -56 c 256
EndSplineSet
Validated: 5
EndChar

StartChar: copyright
Encoding: 169 169 423
Width: 833
Flags: HW
HStem: -15 56<301.571 532.025> 140 66<350.938 491.592> 514 66<348.995 492.965> 679 56<301.571 532.025>
VStem: 41 58<244.253 475.747> 211 79<270.923 451.365> 537 78<251.648 303 417 469.759> 733 58<244.253 475.747>
LayerCount: 3
Fore
SplineSet
416 -15 m 256
 364 -15 315.333007812 -5.3330078125 270 14 c 0
 224.666992188 33.3330078125 184.833007812 60.1669921875 150.5 94.5 c 0
 116.166992188 128.833007812 89.3330078125 168.666992188 70 214 c 0
 50.6669921875 259.333007812 41 308 41 360 c 256
 41 412 50.6669921875 460.666992188 70 506 c 0
 89.3330078125 551.333007812 116.166992188 591.166992188 150.5 625.5 c 0
 184.833007812 659.833007812 224.666992188 686.666992188 270 706 c 0
 315.333007812 725.333007812 364 735 416 735 c 256
 468 735 516.666992188 725.333007812 562 706 c 0
 607.333007812 686.666992188 647.166992188 659.833007812 681.5 625.5 c 0
 715.833007812 591.166992188 742.666992188 551.333007812 762 506 c 0
 781.333007812 460.666992188 791 412 791 360 c 256
 791 308 781.333007812 259.333007812 762 214 c 0
 742.666992188 168.666992188 715.833007812 128.833007812 681.5 94.5 c 0
 647.166992188 60.1669921875 607.333007812 33.3330078125 562 14 c 0
 516.666992188 -5.3330078125 468 -15 416 -15 c 256
416 41 m 0
 460 41 501.166992188 49.3330078125 539.5 66 c 0
 577.833007812 82.6669921875 611.5 105.666992188 640.5 135 c 0
 669.5 164.333007812 692.166992188 198.333007812 708.5 237 c 0
 724.833007812 275.666992188 733 316.666992188 733 360 c 256
 733 403.333007812 724.833007812 444.333007812 708.5 483 c 0
 692.166992188 521.666992188 669.5 555.666992188 640.5 585 c 0
 611.5 614.333007812 577.833007812 637.333007812 539.5 654 c 0
 501.166992188 670.666992188 460 679 416 679 c 0
 372.666992188 679 331.833007812 670.666992188 293.5 654 c 0
 255.166992188 637.333007812 221.5 614.333007812 192.5 585 c 0
 163.5 555.666992188 140.666992188 521.666992188 124 483 c 0
 107.333007812 444.333007812 99 403.333007812 99 360 c 256
 99 316.666992188 107.333007812 275.666992188 124 237 c 0
 140.666992188 198.333007812 163.5 164.333007812 192.5 135 c 0
 221.5 105.666992188 255.166992188 82.6669921875 293.5 66 c 0
 331.833007812 49.3330078125 372.666992188 41 416 41 c 0
423 140 m 0
 381.666992188 140 345 149.5 313 168.5 c 0
 281 187.5 256 213.666992188 238 247 c 0
 220 280.333007812 211 318.333007812 211 361 c 256
 211 403.666992188 220 441.333007812 238 474 c 0
 256 506.666992188 281 532.5 313 551.5 c 0
 345 570.5 381.333007812 580 422 580 c 0
 473.333007812 580 516.5 565 551.5 535 c 0
 586.5 505 607.333007812 465.666992188 614 417 c 1
 537 417 l 1
 532.333007812 447 519.666992188 470.666992188 499 488 c 0
 478.333007812 505.333007812 452.666992188 514 422 514 c 0
 382.666992188 514 350.833007812 500 326.5 472 c 0
 302.166992188 444 290 407.333007812 290 362 c 0
 290 315.333007812 302.333007812 277.666992188 327 249 c 0
 351.666992188 220.333007812 383.666992188 206 423 206 c 0
 452.333007812 206 477.333007812 214.833007812 498 232.5 c 0
 518.666992188 250.166992188 531.666992188 273.666992188 537 303 c 1
 615 303 l 1
 607.666992188 253.666992188 586.5 214.166992188 551.5 184.5 c 0
 516.5 154.833007812 473.666992188 140 423 140 c 0
EndSplineSet
Validated: 1
EndChar

StartChar: registered
Encoding: 174 174 424
Width: 833
Flags: HW
HStem: -15 56<301.571 532.025> 327 62<296 476.922> 345 16<479 512.333> 510 65<337 494.402> 679 56<301.571 532.025>
VStem: 41 58<244.253 475.747> 260 77<145 327 389 510> 296 41<327 389> 507 78<145.499 306.37> 514 78<145 195.47 404.783 495.455> 733 58<244.253 475.747>
LayerCount: 3
Fore
SplineSet
416 -15 m 256x9c20
 364 -15 315.333007812 -5.3330078125 270 14 c 0
 224.666992188 33.3330078125 184.833007812 60.1669921875 150.5 94.5 c 0
 116.166992188 128.833007812 89.3330078125 168.666992188 70 214 c 0
 50.6669921875 259.333007812 41 308 41 360 c 256
 41 412 50.6669921875 460.666992188 70 506 c 0
 89.3330078125 551.333007812 116.166992188 591.166992188 150.5 625.5 c 0
 184.833007812 659.833007812 224.666992188 686.666992188 270 706 c 0
 315.333007812 725.333007812 364 735 416 735 c 256
 468 735 516.666992188 725.333007812 562 706 c 0
 607.333007812 686.666992188 647.166992188 659.833007812 681.5 625.5 c 0
 715.833007812 591.166992188 742.666992188 551.333007812 762 506 c 0
 781.333007812 460.666992188 791 412 791 360 c 256
 791 308 781.333007812 259.333007812 762 214 c 0
 742.666992188 168.666992188 715.833007812 128.833007812 681.5 94.5 c 0
 647.166992188 60.1669921875 607.333007812 33.3330078125 562 14 c 0
 516.666992188 -5.3330078125 468 -15 416 -15 c 256x9c20
416 41 m 0
 460 41 501.166992188 49.3330078125 539.5 66 c 0
 577.833007812 82.6669921875 611.5 105.666992188 640.5 135 c 0
 669.5 164.333007812 692.166992188 198.333007812 708.5 237 c 0
 724.833007812 275.666992188 733 316.666992188 733 360 c 256
 733 403.333007812 724.833007812 444.333007812 708.5 483 c 0
 692.166992188 521.666992188 669.5 555.666992188 640.5 585 c 0
 611.5 614.333007812 577.833007812 637.333007812 539.5 654 c 0
 501.166992188 670.666992188 460 679 416 679 c 0
 372.666992188 679 331.833007812 670.666992188 293.5 654 c 0
 255.166992188 637.333007812 221.5 614.333007812 192.5 585 c 0
 163.5 555.666992188 140.666992188 521.666992188 124 483 c 0
 107.333007812 444.333007812 99 403.333007812 99 360 c 256
 99 316.666992188 107.333007812 275.666992188 124 237 c 0
 140.666992188 198.333007812 163.5 164.333007812 192.5 135 c 0
 221.5 105.666992188 255.166992188 82.6669921875 293.5 66 c 0
 331.833007812 49.3330078125 372.666992188 41 416 41 c 0
260 145 m 1xde60
 260 575 l 1
 445 575 l 2
 491 575 527 564.5 553 543.5 c 0
 579 522.5 592 493.666992188 592 457 c 0
 592 398.333007812 553.666992188 361 477 345 c 1
 479 361 l 1xbe60
 512.333007812 362.333007812 538.333007812 354.666992188 557 338 c 0
 575.666992188 321.333007812 585 297.666992188 585 267 c 2
 585 196 l 2
 585 189.333007812 585.333007812 181.833007812 586 173.5 c 0
 586.666992188 165.166992188 588 155.666992188 590 145 c 1
 511 145 l 1
 509.666992188 151 508.666992188 158.166992188 508 166.5 c 0
 507.333007812 174.833007812 507 184.666992188 507 196 c 2
 507 247 l 2
 507 273.666992188 500.666992188 293.666992188 488 307 c 0
 475.333007812 320.333007812 456 327 430 327 c 2
 296 327 l 1
 296 389 l 1xdda0
 441 389 l 2
 464.333007812 389 482.333007812 394.333007812 495 405 c 0
 507.666992188 415.666992188 514 430.666992188 514 450 c 0
 514 470 507.666992188 485 495 495 c 0
 482.333007812 505 464.333007812 510 441 510 c 2
 337 510 l 1
 337 145 l 1
 260 145 l 1xde60
EndSplineSet
Validated: 37
EndChar

StartChar: trademark
Encoding: 8482 8482 425
Width: 846
Flags: HW
HStem: 360 360<168 258 389 473 700 789> 646 74<58 168 258 369> 646 58<168 258>
VStem: 168 90<360 704> 459 14<666.167 694> 700 16<668.651 696>
LayerCount: 3
Fore
SplineSet
168 360 m 1x9c
 168 704 l 1
 258 704 l 1x3c
 258 360 l 1
 168 360 l 1x9c
58 646 m 1x5c
 58 720 l 1
 369 720 l 1
 369 646 l 1
 58 646 l 1x5c
389 360 m 1x9c
 389 720 l 1x9c
 521 720 l 1
 615 374 l 1
 562 374 l 1
 655 720 l 1x5c
 789 720 l 1
 789 360 l 1
 700 360 l 1
 700 696 l 1
 716 696 l 1
 630 360 l 1
 543 360 l 1
 459 694 l 1
 473 694 l 1
 473 360 l 1
 389 360 l 1x9c
EndSplineSet
Validated: 5
EndChar

StartChar: degree
Encoding: 176 176 426
Width: 383
Flags: HW
HStem: 449 66<139.033 244.134> 669 66<138.146 244.473>
VStem: 48 68<538.298 646.285> 267 67<538.298 646.285>
LayerCount: 3
Fore
SplineSet
192 449 m 0
 165.333007812 449 141 455.5 119 468.5 c 0
 97 481.5 79.6669921875 499 67 521 c 0
 54.3330078125 543 48 567 48 593 c 256
 48 619 54.3330078125 642.833007812 67 664.5 c 0
 79.6669921875 686.166992188 97 703.333007812 119 716 c 0
 141 728.666992188 165.333007812 735 192 735 c 0
 219.333007812 735 243.666992188 728.666992188 265 716 c 0
 286.333007812 703.333007812 303.166992188 686.166992188 315.5 664.5 c 0
 327.833007812 642.833007812 334 619 334 593 c 256
 334 567 327.833007812 543 315.5 521 c 0
 303.166992188 499 286.333007812 481.5 265 468.5 c 0
 243.666992188 455.5 219.333007812 449 192 449 c 0
193 515 m 0
 213.666992188 515 231.166992188 522.666992188 245.5 538 c 0
 259.833007812 553.333007812 267 571.666992188 267 593 c 0
 267 613.666992188 259.833007812 631.5 245.5 646.5 c 0
 231.166992188 661.5 213.666992188 669 193 669 c 0
 170.333007812 669 151.833007812 661.5 137.5 646.5 c 0
 123.166992188 631.5 116 613.666992188 116 593 c 0
 116 571.666992188 123.166992188 553.333007812 137.5 538 c 0
 151.833007812 522.666992188 170.333007812 515 193 515 c 0
EndSplineSet
Validated: 1
EndChar

StartChar: bar
Encoding: 124 124 427
Width: 242
Flags: HW
VStem: 67 109<-130 790>
LayerCount: 3
Fore
SplineSet
67 -130 m 1
 67 790 l 1
 176 790 l 1
 176 -130 l 1
 67 -130 l 1
EndSplineSet
Validated: 1
EndChar

StartChar: ampersand.ss11
Encoding: 38 38 428
Width: 762
Flags: HW
HStem: 0 96<208.891 540> 330 94<244.969 730> 369 21<210.667 233> 629 101<237.307 455>
VStem: 37 131<136.241 285.215> 67 129<460.912 589.729> 472 129<96 555> 472 68<0 96>
LayerCount: 3
Fore
SplineSet
256 0 m 2xd9
 212 0 173.666992188 8 141 24 c 0
 108.333007812 40 82.8330078125 62.6669921875 64.5 92 c 0
 46.1669921875 121.333007812 37 155.666992188 37 195 c 0xd9
 37 233 45.5 266.666992188 62.5 296 c 0
 79.5 325.333007812 102.833007812 348.333007812 132.5 365 c 0
 162.166992188 381.666992188 195.666992188 390 233 390 c 1
 244 369 l 1
 210.666992188 369 180.666992188 376.5 154 391.5 c 0
 127.333007812 406.5 106.166992188 427.5 90.5 454.5 c 0
 74.8330078125 481.5 67 512 67 546 c 0
 67 602.666992188 89.3330078125 647.5 134 680.5 c 0
 178.666992188 713.5 242.666992188 730 326 730 c 0
 349.333007812 730 371.5 728.5 392.5 725.5 c 0
 413.5 722.5 434.666992188 717.666992188 456 711 c 1
 456 611 l 1
 438.666992188 617 419.666992188 621.5 399 624.5 c 0
 378.333007812 627.5 358 629 338 629 c 0
 289.333007812 629 253.5 620.166992188 230.5 602.5 c 0
 207.5 584.833007812 196 559.666992188 196 527 c 256xb4
 196 494.333007812 206.5 469 227.5 451 c 0
 248.5 433 278.666992188 424 318 424 c 2
 730 424 l 1
 730 330 l 1
 287 330 l 2
 250.333007812 330 221.333007812 319.166992188 200 297.5 c 0
 178.666992188 275.833007812 168 246.333007812 168 209 c 0
 168 173.666992188 178 146 198 126 c 0
 218 106 246 96 282 96 c 2
 540 96 l 1
 540 0 l 1
 256 0 l 2xd9
472 0 m 1
 472 555 l 5
 601 604 l 5
 601 0 l 1x92
 472 0 l 1
EndSplineSet
Validated: 5
EndChar

StartChar: cent
Encoding: 162 162 429
Width: 550
GlyphClass: 2
Flags: HW
HStem: -10 30<237 327.667> 482 38<237 328.333>
VStem: 32 130<154.967 356.233> 237 102<-109 20 482 616>
AnchorPoint: "Anchor-2" 281 0 basechar 0
AnchorPoint: "Anchor-0" 290 510 basechar 0
LayerCount: 3
Fore
SplineSet
237 482 m 1
 237 616 l 1
 339 616 l 1
 339 482 l 1
 237 482 l 1
339 20 m 1
 339 -109 l 1
 237 -109 l 1
 237 20 l 1
 339 20 l 1
287 -10 m 0
 237 -10 192.833007812 1.3330078125 154.5 24 c 0
 116.166992188 46.6669921875 86.1669921875 78 64.5 118 c 0
 42.8330078125 158 32 204 32 256 c 0
 32 307.333007812 42.8330078125 353 64.5 393 c 0
 86.1669921875 433 116.166992188 464.166992188 154.5 486.5 c 0
 192.833007812 508.833007812 237 520 287 520 c 0
 328.333007812 520 365.666992188 512.166992188 399 496.5 c 0
 432.333007812 480.833007812 459.5 458.833007812 480.5 430.5 c 0
 501.5 402.166992188 515 368.666992188 521 330 c 1
 401 330 l 1
 394.333007812 358.666992188 381.166992188 380.666992188 361.5 396 c 0
 341.833007812 411.333007812 317.666992188 419 289 419 c 0
 263 419 240.5 412.5 221.5 399.5 c 0
 202.5 386.5 187.833007812 367.833007812 177.5 343.5 c 0
 167.166992188 319.166992188 162 290 162 256 c 256
 162 222 167.166992188 192.666992188 177.5 168 c 0
 187.833007812 143.333007812 202.5 124.333007812 221.5 111 c 0
 240.5 97.6669921875 263 91 289 91 c 0
 317 91 341.166992188 98.6669921875 361.5 114 c 0
 381.833007812 129.333007812 395 151.333007812 401 180 c 1
 521 180 l 1
 515 141.333007812 501.333007812 107.833007812 480 79.5 c 0
 458.666992188 51.1669921875 431.333007812 29.1669921875 398 13.5 c 0
 364.666992188 -2.1669921875 327.666992188 -10 287 -10 c 0
EndSplineSet
Validated: 5
Substitution2: "'ss12' Style Set 12 in Latin lookup 33 subtable" cent.ss12
Substitution2: "'aalt' Access All Alternates in Latin lookup 0 subtable" cent.ss12
EndChar

StartChar: dollar
Encoding: 36 36 430
Width: 631
GlyphClass: 2
Flags: HW
HStem: -9 29<273 376> 514 21G<459.667 587> 696 35<273 376>
VStem: 35 124<164.275 230> 69 124<490.294 598.941> 273 103<-109 20 696 830> 463 124<514 574.804> 473 125<125.914 245.107>
AnchorPoint: "Anchor-2" 331 0 basechar 0
AnchorPoint: "Anchor-0" 325 720 basechar 0
LayerCount: 3
Fore
SplineSet
273 696 m 1xe4
 273 830 l 1
 376 830 l 1
 376 696 l 1
 273 696 l 1xe4
376 20 m 1
 376 -109 l 1
 273 -109 l 1
 273 20 l 1
 376 20 l 1
336 -9 m 0
 248 -9 177.833007812 11.8330078125 125.5 53.5 c 0
 73.1669921875 95.1669921875 43 154 35 230 c 1
 159 230 l 1
 164.333007812 185.333007812 182.833007812 150.833007812 214.5 126.5 c 0
 246.166992188 102.166992188 288.333007812 90 341 90 c 0
 383.666992188 90 416.333007812 98.1669921875 439 114.5 c 0
 461.666992188 130.833007812 473 153.333007812 473 182 c 0xf5
 473 208 465.833007812 229.166992188 451.5 245.5 c 0
 437.166992188 261.833007812 413 275.333007812 379 286 c 2
 254 327 l 2
 190 347.666992188 143.166992188 374.333007812 113.5 407 c 0
 83.8330078125 439.666992188 69 480.333007812 69 529 c 0
 69 570.333007812 79.3330078125 606.166992188 100 636.5 c 0
 120.666992188 666.833007812 150 690.166992188 188 706.5 c 0
 226 722.833007812 270.333007812 731 321 731 c 0
 399 731 461.333007812 711.5 508 672.5 c 0
 554.666992188 633.5 581 580.666992188 587 514 c 1
 463 514 l 1xee
 456.333007812 554.666992188 440.5 584.333007812 415.5 603 c 0
 390.5 621.666992188 357 631 315 631 c 0
 277 631 247.166992188 623.5 225.5 608.5 c 0
 203.833007812 593.5 193 572.666992188 193 546 c 0
 193 524.666992188 199.833007812 506 213.5 490 c 0
 227.166992188 474 252 460.333007812 288 449 c 2
 416 407 l 2
 479.333007812 387 525.5 360.166992188 554.5 326.5 c 0
 583.5 292.833007812 598 251 598 201 c 0xed
 598 133.666992188 575 81.8330078125 529 45.5 c 0
 483 9.1669921875 418.666992188 -9 336 -9 c 0
EndSplineSet
Validated: 5
Substitution2: "'ss12' Style Set 12 in Latin lookup 33 subtable" dollar.ss12
Substitution2: "'aalt' Access All Alternates in Latin lookup 0 subtable" dollar.ss12
EndChar

StartChar: Euro
Encoding: 8364 8364 431
Width: 707
Flags: HW
HStem: -10 104<317.01 484.487> 246 88<20 454> 388 88<20 478> 626 104<314.09 484.354>
VStem: 80 131<334.837 387.517>
LayerCount: 3
Fore
SplineSet
398 -10 m 256
 351.333007812 -10 308.666992188 -1 270 17 c 0
 231.333007812 35 197.833007812 60.6669921875 169.5 94 c 0
 141.166992188 127.333007812 119.166992188 166.666992188 103.5 212 c 0
 87.8330078125 257.333007812 80 307.333007812 80 362 c 256
 80 416.666992188 87.6669921875 466.333007812 103 511 c 0
 118.333007812 555.666992188 140.166992188 594.5 168.5 627.5 c 0
 196.833007812 660.5 230.333007812 685.833007812 269 703.5 c 0
 307.666992188 721.166992188 350.666992188 730 398 730 c 0
 444.666992188 730 486.666992188 721.833007812 524 705.5 c 0
 561.333007812 689.166992188 592.666992188 666.166992188 618 636.5 c 0
 643.333007812 606.833007812 660.666992188 571.333007812 670 530 c 1
 538 530 l 1
 530 561.333007812 513.833007812 585.166992188 489.5 601.5 c 0
 465.166992188 617.833007812 434.333007812 626 397 626 c 256
 359.666992188 626 327 615.333007812 299 594 c 0
 271 572.666992188 249.333007812 542.333007812 234 503 c 0
 218.666992188 463.666992188 211 417 211 363 c 0
 211 308.333007812 218.833007812 260.833007812 234.5 220.5 c 0
 250.166992188 180.166992188 272.166992188 149 300.5 127 c 0
 328.833007812 105 361.333007812 94 398 94 c 256
 434.666992188 94 464.833007812 102 488.5 118 c 0
 512.166992188 134 528.333007812 157.666992188 537 189 c 1
 671 189 l 1
 661 147.666992188 643.333007812 112.166992188 618 82.5 c 0
 592.666992188 52.8330078125 561.333007812 30 524 14 c 0
 486.666992188 -2 444.666992188 -10 398 -10 c 256
5 388 m 1
 20 476 l 1
 494 476 l 1
 478 388 l 1
 5 388 l 1
5 246 m 1
 20 334 l 1
 469 334 l 1
 454 246 l 1
 5 246 l 1
EndSplineSet
Validated: 5
EndChar

StartChar: sterling
Encoding: 163 163 432
Width: 596
Flags: HW
HStem: 0 109<149 532> 289 106<19 87 113 237.5 248 457> 515 21G<430.667 556> 628 102<218.929 383.723>
VStem: 49 130<438.162 588.978> 124 124<192.105 300.667> 433 123<515 578.625>
LayerCount: 3
Fore
SplineSet
47 0 m 1xf6
 47 104 l 1
 76.3330078125 142.666992188 96.5 176 107.5 204 c 0
 118.5 232 124 257.333007812 124 280 c 0xf6
 124 302 120.333007812 322 113 340 c 0
 105.666992188 358 97 376 87 394 c 0
 77 412 68.1669921875 431.166992188 60.5 451.5 c 0
 52.8330078125 471.833007812 49 495.333007812 49 522 c 0
 49 563.333007812 58.8330078125 599.5 78.5 630.5 c 0
 98.1669921875 661.5 126.333007812 685.833007812 163 703.5 c 0
 199.666992188 721.166992188 243.333007812 730 294 730 c 0
 346 730 390.833007812 721 428.5 703 c 0
 466.166992188 685 496 659.833007812 518 627.5 c 0
 540 595.166992188 552.666992188 557.666992188 556 515 c 1
 433 515 l 1
 428.333007812 552.333007812 415 580.5 393 599.5 c 0
 371 618.5 340.333007812 628 301 628 c 0
 260.333007812 628 229.833007812 618.333007812 209.5 599 c 0
 189.166992188 579.666992188 179 553.666992188 179 521 c 0xfa
 179 501.666992188 182.5 483 189.5 465 c 0
 196.5 447 204.5 429 213.5 411 c 0
 222.5 393 230.5 374 237.5 354 c 0
 244.5 334 248 312.333007812 248 289 c 0
 248 261 241 229.333007812 227 194 c 0
 213 158.666992188 187 117.666992188 149 71 c 1
 137 109 l 1
 532 109 l 1
 532 0 l 1
 47 0 l 1xf6
19 289 m 1
 19 395 l 1
 457 395 l 1
 457 289 l 1
 19 289 l 1
EndSplineSet
Validated: 5
EndChar

StartChar: yen
Encoding: 165 165 433
Width: 634
Flags: HW
HStem: 0 21G<253 382> 246 88<49 280 368 586> 388 88<49 232 426 586> 700 20G<20 183.974 463.077 614>
VStem: 253 129<0 303>
LayerCount: 3
Fore
SplineSet
253 0 m 1
 253 303 l 1
 20 720 l 1
 174 720 l 1
 368 331 l 1
 280 331 l 1
 473 720 l 1
 614 720 l 1
 382 303 l 1
 382 0 l 1
 253 0 l 1
49 246 m 1
 49 334 l 1
 586 334 l 1
 586 246 l 1
 49 246 l 1
276 388 m 1
 49 388 l 1
 49 476 l 1
 232 476 l 1
 276 388 l 1
426 476 m 1
 586 476 l 1
 586 388 l 1
 379 388 l 1
 426 476 l 1
EndSplineSet
Validated: 5
EndChar

StartChar: cent.ss12
Encoding: 65676 -1 434
Width: 550
Flags: HW
HStem: -10 93<214.057 342.502> 427 93<214.008 341.937>
VStem: 32 122<150.972 360.258> 237 102<-109 616>
LayerCount: 3
Fore
SplineSet
287 -10 m 0
 237 -10 192.833007812 1.3330078125 154.5 24 c 0
 116.166992188 46.6669921875 86.1669921875 78 64.5 118 c 0
 42.8330078125 158 32 204 32 256 c 0
 32 307.333007812 42.8330078125 353 64.5 393 c 0
 86.1669921875 433 116.166992188 464.166992188 154.5 486.5 c 0
 192.833007812 508.833007812 237 520 287 520 c 0
 328.333007812 520 365.666992188 512.166992188 399 496.5 c 0
 432.333007812 480.833007812 459.5 458.833007812 480.5 430.5 c 0
 501.5 402.166992188 515 368.666992188 521 330 c 1
 409 330 l 1
 402.333007812 361.333007812 388.666992188 385.333007812 368 402 c 0
 347.333007812 418.666992188 320.666992188 427 288 427 c 0
 245.333007812 427 212.333007812 412 189 382 c 0
 165.666992188 352 154 310 154 256 c 256
 154 202 165.666992188 159.666992188 189 129 c 0
 212.333007812 98.3330078125 245.666992188 83 289 83 c 0
 321 83 347.333007812 91.3330078125 368 108 c 0
 388.666992188 124.666992188 402.333007812 148.666992188 409 180 c 1
 521 180 l 1
 515 141.333007812 501.333007812 107.833007812 480 79.5 c 0
 458.666992188 51.1669921875 431.333007812 29.1669921875 398 13.5 c 0
 364.666992188 -2.1669921875 327.666992188 -10 287 -10 c 0
237 -109 m 1
 237 32 l 1
 241 58 l 1
 241 455 l 1
 237 485 l 1
 237 616 l 1
 339 616 l 1
 339 482 l 1
 335 457 l 1
 335 61 l 1
 339 36 l 1
 339 -109 l 1
 237 -109 l 1
EndSplineSet
Validated: 5
EndChar

StartChar: dollar.ss12
Encoding: 65677 -1 435
Width: 631
Flags: HW
HStem: -9 99<242.629 437.089> 514 21G<460.667 587> 632 99<225.501 381.412>
VStem: 35 123<163.779 230> 69 123<490.314 600.233> 273 103<-109 830> 464 123<514 574.98> 475 122<125.594 244.029>
LayerCount: 3
Fore
SplineSet
336 -9 m 0xed
 248 -9 177.833007812 11.8330078125 125.5 53.5 c 0
 73.1669921875 95.1669921875 43 154 35 230 c 1
 158 230 l 1
 162.666992188 185.333007812 181 150.833007812 213 126.5 c 0
 245 102.166992188 287.666992188 90 341 90 c 0
 384.333007812 90 417.5 98 440.5 114 c 0
 463.5 130 475 152.666992188 475 182 c 0xf5
 475 208 467.5 229.166992188 452.5 245.5 c 0
 437.5 261.833007812 413 275.666992188 379 287 c 2
 254 328 l 2
 190 348.666992188 143.166992188 375.166992188 113.5 407.5 c 0
 83.8330078125 439.833007812 69 480.333007812 69 529 c 0
 69 570.333007812 79.3330078125 606.166992188 100 636.5 c 0
 120.666992188 666.833007812 150 690.166992188 188 706.5 c 0
 226 722.833007812 270.333007812 731 321 731 c 0
 399 731 461.166992188 711.5 507.5 672.5 c 0
 553.833007812 633.5 580.333007812 580.666992188 587 514 c 1
 464 514 l 1xee
 457.333007812 554.666992188 441.5 584.5 416.5 603.5 c 0
 391.5 622.5 357.666992188 632 315 632 c 0
 276.333007812 632 246.166992188 624.5 224.5 609.5 c 0
 202.833007812 594.5 192 573.333007812 192 546 c 0
 192 524.666992188 198.833007812 506 212.5 490 c 0
 226.166992188 474 251.333007812 460 288 448 c 2
 416 406 l 2
 479.333007812 386 525.333007812 359.333007812 554 326 c 0
 582.666992188 292.666992188 597 251 597 201 c 0
 597 133.666992188 574.166992188 81.8330078125 528.5 45.5 c 0
 482.833007812 9.1669921875 418.666992188 -9 336 -9 c 0xed
273 -109 m 1
 273 32 l 1
 278 58 l 1
 278 669 l 1
 273 699 l 1
 273 830 l 1
 376 830 l 1
 376 696 l 1
 371 671 l 1
 371 61 l 1
 376 36 l 1
 376 -109 l 1
 273 -109 l 1
EndSplineSet
Validated: 5
EndChar

StartChar: plus
Encoding: 43 43 436
Width: 554
Flags: HW
HStem: 324 94<58 496>
VStem: 229 97<140 603>
LayerCount: 3
Fore
SplineSet
229 140 m 1
 229 603 l 1
 326 603 l 1
 326 140 l 1
 229 140 l 1
58 324 m 1
 58 418 l 1
 496 418 l 1
 496 324 l 1
 58 324 l 1
EndSplineSet
Validated: 5
Substitution2: "'tnum' Tabular Numbers in Latin lookup 19 subtable" plus.tf
Substitution2: "'aalt' Access All Alternates in Latin lookup 0 subtable" plus.tf
EndChar

StartChar: minus
Encoding: 8722 8722 437
Width: 554
Flags: HW
HStem: 324 94<58 496>
LayerCount: 3
Fore
SplineSet
58 324 m 1
 58 418 l 1
 496 418 l 1
 496 324 l 1
 58 324 l 1
EndSplineSet
Validated: 1
Substitution2: "'tnum' Tabular Numbers in Latin lookup 19 subtable" minus.tf
Substitution2: "'aalt' Access All Alternates in Latin lookup 0 subtable" minus.tf
EndChar

StartChar: multiply
Encoding: 215 215 438
Width: 554
Flags: HW
LayerCount: 3
Fore
SplineSet
427 154 m 1
 60 522 l 1
 128 590 l 1
 495 222 l 1
 427 154 l 1
128 154 m 1
 60 222 l 1
 427 590 l 1
 495 522 l 1
 128 154 l 1
EndSplineSet
Validated: 5
Substitution2: "'tnum' Tabular Numbers in Latin lookup 19 subtable" multiply.tf
Substitution2: "'aalt' Access All Alternates in Latin lookup 0 subtable" multiply.tf
EndChar

